G04 #@! TF.GenerationSoftware,KiCad,Pcbnew,(5.1.10)-1*
G04 #@! TF.CreationDate,2021-09-29T18:39:33-04:00*
G04 #@! TF.ProjectId,design,64657369-676e-42e6-9b69-6361645f7063,rev?*
G04 #@! TF.SameCoordinates,Original*
G04 #@! TF.FileFunction,Soldermask,Top*
G04 #@! TF.FilePolarity,Negative*
%FSLAX46Y46*%
G04 Gerber Fmt 4.6, Leading zero omitted, Abs format (unit mm)*
G04 Created by KiCad (PCBNEW (5.1.10)-1) date 2021-09-29 18:39:33*
%MOMM*%
%LPD*%
G01*
G04 APERTURE LIST*
%ADD10C,0.250000*%
%ADD11C,0.350000*%
%ADD12C,1.700000*%
%ADD13C,4.000000*%
%ADD14C,2.200000*%
%ADD15C,2.500000*%
%ADD16C,1.600000*%
%ADD17R,1.600000X1.600000*%
%ADD18C,1.800000*%
G04 APERTURE END LIST*
D10*
X134289285Y-57985714D02*
X134717857Y-58128571D01*
X134860714Y-58271428D01*
X135003571Y-58557142D01*
X135003571Y-58985714D01*
X134860714Y-59271428D01*
X134717857Y-59414285D01*
X134432142Y-59557142D01*
X133289285Y-59557142D01*
X133289285Y-56557142D01*
X134289285Y-56557142D01*
X134575000Y-56700000D01*
X134717857Y-56842857D01*
X134860714Y-57128571D01*
X134860714Y-57414285D01*
X134717857Y-57700000D01*
X134575000Y-57842857D01*
X134289285Y-57985714D01*
X133289285Y-57985714D01*
X136003571Y-57557142D02*
X136717857Y-59557142D01*
X137432142Y-57557142D02*
X136717857Y-59557142D01*
X136432142Y-60271428D01*
X136289285Y-60414285D01*
X136003571Y-60557142D01*
X138575000Y-59271428D02*
X138717857Y-59414285D01*
X138575000Y-59557142D01*
X138432142Y-59414285D01*
X138575000Y-59271428D01*
X138575000Y-59557142D01*
X138575000Y-57700000D02*
X138717857Y-57842857D01*
X138575000Y-57985714D01*
X138432142Y-57842857D01*
X138575000Y-57700000D01*
X138575000Y-57985714D01*
X142146428Y-58700000D02*
X143575000Y-58700000D01*
X141860714Y-59557142D02*
X142860714Y-56557142D01*
X143860714Y-59557142D01*
X145289285Y-59557142D02*
X145003571Y-59414285D01*
X144860714Y-59128571D01*
X144860714Y-56557142D01*
X147575000Y-59414285D02*
X147289285Y-59557142D01*
X146717857Y-59557142D01*
X146432142Y-59414285D01*
X146289285Y-59128571D01*
X146289285Y-57985714D01*
X146432142Y-57700000D01*
X146717857Y-57557142D01*
X147289285Y-57557142D01*
X147575000Y-57700000D01*
X147717857Y-57985714D01*
X147717857Y-58271428D01*
X146289285Y-58557142D01*
X148717857Y-59557142D02*
X150289285Y-57557142D01*
X148717857Y-57557142D02*
X150289285Y-59557142D01*
X153717857Y-59557142D02*
X153717857Y-56557142D01*
X154860714Y-56557142D01*
X155146428Y-56700000D01*
X155289285Y-56842857D01*
X155432142Y-57128571D01*
X155432142Y-57557142D01*
X155289285Y-57842857D01*
X155146428Y-57985714D01*
X154860714Y-58128571D01*
X153717857Y-58128571D01*
X156717857Y-59557142D02*
X156717857Y-57557142D01*
X156717857Y-58128571D02*
X156860714Y-57842857D01*
X157003571Y-57700000D01*
X157289285Y-57557142D01*
X157575000Y-57557142D01*
X159860714Y-59557142D02*
X159860714Y-57985714D01*
X159717857Y-57700000D01*
X159432142Y-57557142D01*
X158860714Y-57557142D01*
X158575000Y-57700000D01*
X159860714Y-59414285D02*
X159575000Y-59557142D01*
X158860714Y-59557142D01*
X158575000Y-59414285D01*
X158432142Y-59128571D01*
X158432142Y-58842857D01*
X158575000Y-58557142D01*
X158860714Y-58414285D01*
X159575000Y-58414285D01*
X159860714Y-58271428D01*
X160860714Y-57557142D02*
X162003571Y-57557142D01*
X161289285Y-56557142D02*
X161289285Y-59128571D01*
X161432142Y-59414285D01*
X161717857Y-59557142D01*
X162003571Y-59557142D01*
X162575000Y-57557142D02*
X163717857Y-57557142D01*
X163003571Y-56557142D02*
X163003571Y-59128571D01*
X163146428Y-59414285D01*
X163432142Y-59557142D01*
X163717857Y-59557142D01*
X165860714Y-59414285D02*
X165575000Y-59557142D01*
X165003571Y-59557142D01*
X164717857Y-59414285D01*
X164575000Y-59128571D01*
X164575000Y-57985714D01*
X164717857Y-57700000D01*
X165003571Y-57557142D01*
X165575000Y-57557142D01*
X165860714Y-57700000D01*
X166003571Y-57985714D01*
X166003571Y-58271428D01*
X164575000Y-58557142D01*
D11*
X125256904Y-53244523D02*
X125256904Y-49244523D01*
X126590238Y-52101666D01*
X127923571Y-49244523D01*
X127923571Y-53244523D01*
X129828333Y-53244523D02*
X129828333Y-49244523D01*
X131733095Y-53244523D02*
X131733095Y-49244523D01*
X132685476Y-49244523D01*
X133256904Y-49435000D01*
X133637857Y-49815952D01*
X133828333Y-50196904D01*
X134018809Y-50958809D01*
X134018809Y-51530238D01*
X133828333Y-52292142D01*
X133637857Y-52673095D01*
X133256904Y-53054047D01*
X132685476Y-53244523D01*
X131733095Y-53244523D01*
X135733095Y-53244523D02*
X135733095Y-49244523D01*
X136685476Y-53625476D02*
X139733095Y-53625476D01*
X140685476Y-53244523D02*
X140685476Y-49244523D01*
X141066428Y-51720714D02*
X142209285Y-53244523D01*
X142209285Y-50577857D02*
X140685476Y-52101666D01*
X145447380Y-53054047D02*
X145066428Y-53244523D01*
X144304523Y-53244523D01*
X143923571Y-53054047D01*
X143733095Y-52673095D01*
X143733095Y-51149285D01*
X143923571Y-50768333D01*
X144304523Y-50577857D01*
X145066428Y-50577857D01*
X145447380Y-50768333D01*
X145637857Y-51149285D01*
X145637857Y-51530238D01*
X143733095Y-51911190D01*
X146971190Y-50577857D02*
X147923571Y-53244523D01*
X148875952Y-50577857D02*
X147923571Y-53244523D01*
X147542619Y-54196904D01*
X147352142Y-54387380D01*
X146971190Y-54577857D01*
X150399761Y-53244523D02*
X150399761Y-49244523D01*
X150399761Y-50768333D02*
X150780714Y-50577857D01*
X151542619Y-50577857D01*
X151923571Y-50768333D01*
X152114047Y-50958809D01*
X152304523Y-51339761D01*
X152304523Y-52482619D01*
X152114047Y-52863571D01*
X151923571Y-53054047D01*
X151542619Y-53244523D01*
X150780714Y-53244523D01*
X150399761Y-53054047D01*
X154590238Y-53244523D02*
X154209285Y-53054047D01*
X154018809Y-52863571D01*
X153828333Y-52482619D01*
X153828333Y-51339761D01*
X154018809Y-50958809D01*
X154209285Y-50768333D01*
X154590238Y-50577857D01*
X155161666Y-50577857D01*
X155542619Y-50768333D01*
X155733095Y-50958809D01*
X155923571Y-51339761D01*
X155923571Y-52482619D01*
X155733095Y-52863571D01*
X155542619Y-53054047D01*
X155161666Y-53244523D01*
X154590238Y-53244523D01*
X159352142Y-53244523D02*
X159352142Y-51149285D01*
X159161666Y-50768333D01*
X158780714Y-50577857D01*
X158018809Y-50577857D01*
X157637857Y-50768333D01*
X159352142Y-53054047D02*
X158971190Y-53244523D01*
X158018809Y-53244523D01*
X157637857Y-53054047D01*
X157447380Y-52673095D01*
X157447380Y-52292142D01*
X157637857Y-51911190D01*
X158018809Y-51720714D01*
X158971190Y-51720714D01*
X159352142Y-51530238D01*
X161256904Y-53244523D02*
X161256904Y-50577857D01*
X161256904Y-51339761D02*
X161447380Y-50958809D01*
X161637857Y-50768333D01*
X162018809Y-50577857D01*
X162399761Y-50577857D01*
X165447380Y-53244523D02*
X165447380Y-49244523D01*
X165447380Y-53054047D02*
X165066428Y-53244523D01*
X164304523Y-53244523D01*
X163923571Y-53054047D01*
X163733095Y-52863571D01*
X163542619Y-52482619D01*
X163542619Y-51339761D01*
X163733095Y-50958809D01*
X163923571Y-50768333D01*
X164304523Y-50577857D01*
X165066428Y-50577857D01*
X165447380Y-50768333D01*
X169828333Y-49244523D02*
X171161666Y-53244523D01*
X172495000Y-49244523D01*
X175923571Y-53244523D02*
X173637857Y-53244523D01*
X174780714Y-53244523D02*
X174780714Y-49244523D01*
X174399761Y-49815952D01*
X174018809Y-50196904D01*
X173637857Y-50387380D01*
G36*
G01*
X235575000Y-95845000D02*
X234325000Y-95845000D01*
G75*
G02*
X234075000Y-95595000I0J250000D01*
G01*
X234075000Y-94845000D01*
G75*
G02*
X234325000Y-94595000I250000J0D01*
G01*
X235575000Y-94595000D01*
G75*
G02*
X235825000Y-94845000I0J-250000D01*
G01*
X235825000Y-95595000D01*
G75*
G02*
X235575000Y-95845000I-250000J0D01*
G01*
G37*
G36*
G01*
X235575000Y-98645000D02*
X234325000Y-98645000D01*
G75*
G02*
X234075000Y-98395000I0J250000D01*
G01*
X234075000Y-97645000D01*
G75*
G02*
X234325000Y-97395000I250000J0D01*
G01*
X235575000Y-97395000D01*
G75*
G02*
X235825000Y-97645000I0J-250000D01*
G01*
X235825000Y-98395000D01*
G75*
G02*
X235575000Y-98645000I-250000J0D01*
G01*
G37*
D12*
X49515000Y-120750000D03*
X39355000Y-120750000D03*
D13*
X44435000Y-120750000D03*
D14*
X40625000Y-118210000D03*
X46975000Y-115670000D03*
D12*
X135240000Y-101700000D03*
X125080000Y-101700000D03*
D13*
X130160000Y-101700000D03*
D14*
X126350000Y-99160000D03*
X132700000Y-96620000D03*
D12*
X125715000Y-120750000D03*
X115555000Y-120750000D03*
D13*
X120635000Y-120750000D03*
D14*
X116825000Y-118210000D03*
X123175000Y-115670000D03*
G36*
G01*
X111750000Y-114895000D02*
X110500000Y-114895000D01*
G75*
G02*
X110250000Y-114645000I0J250000D01*
G01*
X110250000Y-113895000D01*
G75*
G02*
X110500000Y-113645000I250000J0D01*
G01*
X111750000Y-113645000D01*
G75*
G02*
X112000000Y-113895000I0J-250000D01*
G01*
X112000000Y-114645000D01*
G75*
G02*
X111750000Y-114895000I-250000J0D01*
G01*
G37*
G36*
G01*
X111750000Y-117695000D02*
X110500000Y-117695000D01*
G75*
G02*
X110250000Y-117445000I0J250000D01*
G01*
X110250000Y-116695000D01*
G75*
G02*
X110500000Y-116445000I250000J0D01*
G01*
X111750000Y-116445000D01*
G75*
G02*
X112000000Y-116695000I0J-250000D01*
G01*
X112000000Y-117445000D01*
G75*
G02*
X111750000Y-117695000I-250000J0D01*
G01*
G37*
G36*
G01*
X207000000Y-114895000D02*
X205750000Y-114895000D01*
G75*
G02*
X205500000Y-114645000I0J250000D01*
G01*
X205500000Y-113895000D01*
G75*
G02*
X205750000Y-113645000I250000J0D01*
G01*
X207000000Y-113645000D01*
G75*
G02*
X207250000Y-113895000I0J-250000D01*
G01*
X207250000Y-114645000D01*
G75*
G02*
X207000000Y-114895000I-250000J0D01*
G01*
G37*
G36*
G01*
X207000000Y-117695000D02*
X205750000Y-117695000D01*
G75*
G02*
X205500000Y-117445000I0J250000D01*
G01*
X205500000Y-116695000D01*
G75*
G02*
X205750000Y-116445000I250000J0D01*
G01*
X207000000Y-116445000D01*
G75*
G02*
X207250000Y-116695000I0J-250000D01*
G01*
X207250000Y-117445000D01*
G75*
G02*
X207000000Y-117695000I-250000J0D01*
G01*
G37*
D12*
X182865000Y-120750000D03*
X172705000Y-120750000D03*
D13*
X177785000Y-120750000D03*
D14*
X173975000Y-118210000D03*
X180325000Y-115670000D03*
D12*
X59040000Y-101700000D03*
X48880000Y-101700000D03*
D13*
X53960000Y-101700000D03*
D14*
X50150000Y-99160000D03*
X56500000Y-96620000D03*
D12*
X220965000Y-120750000D03*
X210805000Y-120750000D03*
D13*
X215885000Y-120750000D03*
D14*
X212075000Y-118210000D03*
X218425000Y-115670000D03*
X237475000Y-115670000D03*
X231125000Y-118210000D03*
D13*
X234935000Y-120750000D03*
D12*
X229855000Y-120750000D03*
X240015000Y-120750000D03*
X201915000Y-120750000D03*
X191755000Y-120750000D03*
D13*
X196835000Y-120750000D03*
D14*
X193025000Y-118210000D03*
X199375000Y-115670000D03*
D12*
X144765000Y-120750000D03*
X134605000Y-120750000D03*
D13*
X139685000Y-120750000D03*
D14*
X135875000Y-118210000D03*
X142225000Y-115670000D03*
D12*
X116190000Y-101700000D03*
X106030000Y-101700000D03*
D13*
X111110000Y-101700000D03*
D14*
X107300000Y-99160000D03*
X113650000Y-96620000D03*
D12*
X97140000Y-101700000D03*
X86980000Y-101700000D03*
D13*
X92060000Y-101700000D03*
D14*
X88250000Y-99160000D03*
X94600000Y-96620000D03*
D13*
X11430000Y-125730000D03*
X287020000Y-125730000D03*
X11430000Y-50800000D03*
X287020000Y-50800000D03*
G36*
G01*
X205200000Y-61210000D02*
X205200000Y-59960000D01*
G75*
G02*
X205450000Y-59710000I250000J0D01*
G01*
X206200000Y-59710000D01*
G75*
G02*
X206450000Y-59960000I0J-250000D01*
G01*
X206450000Y-61210000D01*
G75*
G02*
X206200000Y-61460000I-250000J0D01*
G01*
X205450000Y-61460000D01*
G75*
G02*
X205200000Y-61210000I0J250000D01*
G01*
G37*
G36*
G01*
X202400000Y-61210000D02*
X202400000Y-59960000D01*
G75*
G02*
X202650000Y-59710000I250000J0D01*
G01*
X203400000Y-59710000D01*
G75*
G02*
X203650000Y-59960000I0J-250000D01*
G01*
X203650000Y-61210000D01*
G75*
G02*
X203400000Y-61460000I-250000J0D01*
G01*
X202650000Y-61460000D01*
G75*
G02*
X202400000Y-61210000I0J250000D01*
G01*
G37*
G36*
G01*
X205200000Y-63710000D02*
X205200000Y-62460000D01*
G75*
G02*
X205450000Y-62210000I250000J0D01*
G01*
X206200000Y-62210000D01*
G75*
G02*
X206450000Y-62460000I0J-250000D01*
G01*
X206450000Y-63710000D01*
G75*
G02*
X206200000Y-63960000I-250000J0D01*
G01*
X205450000Y-63960000D01*
G75*
G02*
X205200000Y-63710000I0J250000D01*
G01*
G37*
G36*
G01*
X202400000Y-63710000D02*
X202400000Y-62460000D01*
G75*
G02*
X202650000Y-62210000I250000J0D01*
G01*
X203400000Y-62210000D01*
G75*
G02*
X203650000Y-62460000I0J-250000D01*
G01*
X203650000Y-63710000D01*
G75*
G02*
X203400000Y-63960000I-250000J0D01*
G01*
X202650000Y-63960000D01*
G75*
G02*
X202400000Y-63710000I0J250000D01*
G01*
G37*
D15*
X190525000Y-57585000D03*
X190525000Y-73585000D03*
D16*
X198575000Y-70585000D03*
X198575000Y-60585000D03*
X198575000Y-63085000D03*
X198575000Y-68085000D03*
X180275000Y-70585000D03*
X180275000Y-68085000D03*
X180275000Y-60585000D03*
X180275000Y-63085000D03*
X198575000Y-65585000D03*
X180275000Y-65585000D03*
D15*
X242525000Y-57585000D03*
X242525000Y-73585000D03*
D16*
X250575000Y-70585000D03*
X250575000Y-60585000D03*
X250575000Y-63085000D03*
X250575000Y-68085000D03*
X232275000Y-70585000D03*
X232275000Y-68085000D03*
X232275000Y-60585000D03*
X232275000Y-63085000D03*
X250575000Y-65585000D03*
X232275000Y-65585000D03*
D12*
X173340000Y-101700000D03*
X163180000Y-101700000D03*
D13*
X168260000Y-101700000D03*
D14*
X164450000Y-99160000D03*
X170800000Y-96620000D03*
D12*
X278115000Y-120750000D03*
X267955000Y-120750000D03*
D13*
X273035000Y-120750000D03*
D14*
X269225000Y-118210000D03*
X275575000Y-115670000D03*
D12*
X192390000Y-101700000D03*
X182230000Y-101700000D03*
D13*
X187310000Y-101700000D03*
D14*
X183500000Y-99160000D03*
X189850000Y-96620000D03*
G36*
G01*
X64125000Y-95845000D02*
X62875000Y-95845000D01*
G75*
G02*
X62625000Y-95595000I0J250000D01*
G01*
X62625000Y-94845000D01*
G75*
G02*
X62875000Y-94595000I250000J0D01*
G01*
X64125000Y-94595000D01*
G75*
G02*
X64375000Y-94845000I0J-250000D01*
G01*
X64375000Y-95595000D01*
G75*
G02*
X64125000Y-95845000I-250000J0D01*
G01*
G37*
G36*
G01*
X64125000Y-98645000D02*
X62875000Y-98645000D01*
G75*
G02*
X62625000Y-98395000I0J250000D01*
G01*
X62625000Y-97645000D01*
G75*
G02*
X62875000Y-97395000I250000J0D01*
G01*
X64125000Y-97395000D01*
G75*
G02*
X64375000Y-97645000I0J-250000D01*
G01*
X64375000Y-98395000D01*
G75*
G02*
X64125000Y-98645000I-250000J0D01*
G01*
G37*
D12*
X68565000Y-120750000D03*
X58405000Y-120750000D03*
D13*
X63485000Y-120750000D03*
D14*
X59675000Y-118210000D03*
X66025000Y-115670000D03*
G36*
G01*
X45075000Y-95845000D02*
X43825000Y-95845000D01*
G75*
G02*
X43575000Y-95595000I0J250000D01*
G01*
X43575000Y-94845000D01*
G75*
G02*
X43825000Y-94595000I250000J0D01*
G01*
X45075000Y-94595000D01*
G75*
G02*
X45325000Y-94845000I0J-250000D01*
G01*
X45325000Y-95595000D01*
G75*
G02*
X45075000Y-95845000I-250000J0D01*
G01*
G37*
G36*
G01*
X45075000Y-98645000D02*
X43825000Y-98645000D01*
G75*
G02*
X43575000Y-98395000I0J250000D01*
G01*
X43575000Y-97645000D01*
G75*
G02*
X43825000Y-97395000I250000J0D01*
G01*
X45075000Y-97395000D01*
G75*
G02*
X45325000Y-97645000I0J-250000D01*
G01*
X45325000Y-98395000D01*
G75*
G02*
X45075000Y-98645000I-250000J0D01*
G01*
G37*
G36*
G01*
X283200000Y-114895000D02*
X281950000Y-114895000D01*
G75*
G02*
X281700000Y-114645000I0J250000D01*
G01*
X281700000Y-113895000D01*
G75*
G02*
X281950000Y-113645000I250000J0D01*
G01*
X283200000Y-113645000D01*
G75*
G02*
X283450000Y-113895000I0J-250000D01*
G01*
X283450000Y-114645000D01*
G75*
G02*
X283200000Y-114895000I-250000J0D01*
G01*
G37*
G36*
G01*
X283200000Y-117695000D02*
X281950000Y-117695000D01*
G75*
G02*
X281700000Y-117445000I0J250000D01*
G01*
X281700000Y-116695000D01*
G75*
G02*
X281950000Y-116445000I250000J0D01*
G01*
X283200000Y-116445000D01*
G75*
G02*
X283450000Y-116695000I0J-250000D01*
G01*
X283450000Y-117445000D01*
G75*
G02*
X283200000Y-117695000I-250000J0D01*
G01*
G37*
G36*
G01*
X226050000Y-114895000D02*
X224800000Y-114895000D01*
G75*
G02*
X224550000Y-114645000I0J250000D01*
G01*
X224550000Y-113895000D01*
G75*
G02*
X224800000Y-113645000I250000J0D01*
G01*
X226050000Y-113645000D01*
G75*
G02*
X226300000Y-113895000I0J-250000D01*
G01*
X226300000Y-114645000D01*
G75*
G02*
X226050000Y-114895000I-250000J0D01*
G01*
G37*
G36*
G01*
X226050000Y-117695000D02*
X224800000Y-117695000D01*
G75*
G02*
X224550000Y-117445000I0J250000D01*
G01*
X224550000Y-116695000D01*
G75*
G02*
X224800000Y-116445000I250000J0D01*
G01*
X226050000Y-116445000D01*
G75*
G02*
X226300000Y-116695000I0J-250000D01*
G01*
X226300000Y-117445000D01*
G75*
G02*
X226050000Y-117695000I-250000J0D01*
G01*
G37*
G36*
G01*
X149850000Y-114895000D02*
X148600000Y-114895000D01*
G75*
G02*
X148350000Y-114645000I0J250000D01*
G01*
X148350000Y-113895000D01*
G75*
G02*
X148600000Y-113645000I250000J0D01*
G01*
X149850000Y-113645000D01*
G75*
G02*
X150100000Y-113895000I0J-250000D01*
G01*
X150100000Y-114645000D01*
G75*
G02*
X149850000Y-114895000I-250000J0D01*
G01*
G37*
G36*
G01*
X149850000Y-117695000D02*
X148600000Y-117695000D01*
G75*
G02*
X148350000Y-117445000I0J250000D01*
G01*
X148350000Y-116695000D01*
G75*
G02*
X148600000Y-116445000I250000J0D01*
G01*
X149850000Y-116445000D01*
G75*
G02*
X150100000Y-116695000I0J-250000D01*
G01*
X150100000Y-117445000D01*
G75*
G02*
X149850000Y-117695000I-250000J0D01*
G01*
G37*
G36*
G01*
X92700000Y-114895000D02*
X91450000Y-114895000D01*
G75*
G02*
X91200000Y-114645000I0J250000D01*
G01*
X91200000Y-113895000D01*
G75*
G02*
X91450000Y-113645000I250000J0D01*
G01*
X92700000Y-113645000D01*
G75*
G02*
X92950000Y-113895000I0J-250000D01*
G01*
X92950000Y-114645000D01*
G75*
G02*
X92700000Y-114895000I-250000J0D01*
G01*
G37*
G36*
G01*
X92700000Y-117695000D02*
X91450000Y-117695000D01*
G75*
G02*
X91200000Y-117445000I0J250000D01*
G01*
X91200000Y-116695000D01*
G75*
G02*
X91450000Y-116445000I250000J0D01*
G01*
X92700000Y-116445000D01*
G75*
G02*
X92950000Y-116695000I0J-250000D01*
G01*
X92950000Y-117445000D01*
G75*
G02*
X92700000Y-117695000I-250000J0D01*
G01*
G37*
G36*
G01*
X273675000Y-95845000D02*
X272425000Y-95845000D01*
G75*
G02*
X272175000Y-95595000I0J250000D01*
G01*
X272175000Y-94845000D01*
G75*
G02*
X272425000Y-94595000I250000J0D01*
G01*
X273675000Y-94595000D01*
G75*
G02*
X273925000Y-94845000I0J-250000D01*
G01*
X273925000Y-95595000D01*
G75*
G02*
X273675000Y-95845000I-250000J0D01*
G01*
G37*
G36*
G01*
X273675000Y-98645000D02*
X272425000Y-98645000D01*
G75*
G02*
X272175000Y-98395000I0J250000D01*
G01*
X272175000Y-97645000D01*
G75*
G02*
X272425000Y-97395000I250000J0D01*
G01*
X273675000Y-97395000D01*
G75*
G02*
X273925000Y-97645000I0J-250000D01*
G01*
X273925000Y-98395000D01*
G75*
G02*
X273675000Y-98645000I-250000J0D01*
G01*
G37*
G36*
G01*
X140325000Y-95845000D02*
X139075000Y-95845000D01*
G75*
G02*
X138825000Y-95595000I0J250000D01*
G01*
X138825000Y-94845000D01*
G75*
G02*
X139075000Y-94595000I250000J0D01*
G01*
X140325000Y-94595000D01*
G75*
G02*
X140575000Y-94845000I0J-250000D01*
G01*
X140575000Y-95595000D01*
G75*
G02*
X140325000Y-95845000I-250000J0D01*
G01*
G37*
G36*
G01*
X140325000Y-98645000D02*
X139075000Y-98645000D01*
G75*
G02*
X138825000Y-98395000I0J250000D01*
G01*
X138825000Y-97645000D01*
G75*
G02*
X139075000Y-97395000I250000J0D01*
G01*
X140325000Y-97395000D01*
G75*
G02*
X140575000Y-97645000I0J-250000D01*
G01*
X140575000Y-98395000D01*
G75*
G02*
X140325000Y-98645000I-250000J0D01*
G01*
G37*
G36*
G01*
X73650000Y-114895000D02*
X72400000Y-114895000D01*
G75*
G02*
X72150000Y-114645000I0J250000D01*
G01*
X72150000Y-113895000D01*
G75*
G02*
X72400000Y-113645000I250000J0D01*
G01*
X73650000Y-113645000D01*
G75*
G02*
X73900000Y-113895000I0J-250000D01*
G01*
X73900000Y-114645000D01*
G75*
G02*
X73650000Y-114895000I-250000J0D01*
G01*
G37*
G36*
G01*
X73650000Y-117695000D02*
X72400000Y-117695000D01*
G75*
G02*
X72150000Y-117445000I0J250000D01*
G01*
X72150000Y-116695000D01*
G75*
G02*
X72400000Y-116445000I250000J0D01*
G01*
X73650000Y-116445000D01*
G75*
G02*
X73900000Y-116695000I0J-250000D01*
G01*
X73900000Y-117445000D01*
G75*
G02*
X73650000Y-117695000I-250000J0D01*
G01*
G37*
G36*
G01*
X264150000Y-114895000D02*
X262900000Y-114895000D01*
G75*
G02*
X262650000Y-114645000I0J250000D01*
G01*
X262650000Y-113895000D01*
G75*
G02*
X262900000Y-113645000I250000J0D01*
G01*
X264150000Y-113645000D01*
G75*
G02*
X264400000Y-113895000I0J-250000D01*
G01*
X264400000Y-114645000D01*
G75*
G02*
X264150000Y-114895000I-250000J0D01*
G01*
G37*
G36*
G01*
X264150000Y-117695000D02*
X262900000Y-117695000D01*
G75*
G02*
X262650000Y-117445000I0J250000D01*
G01*
X262650000Y-116695000D01*
G75*
G02*
X262900000Y-116445000I250000J0D01*
G01*
X264150000Y-116445000D01*
G75*
G02*
X264400000Y-116695000I0J-250000D01*
G01*
X264400000Y-117445000D01*
G75*
G02*
X264150000Y-117695000I-250000J0D01*
G01*
G37*
G36*
G01*
X197475000Y-95845000D02*
X196225000Y-95845000D01*
G75*
G02*
X195975000Y-95595000I0J250000D01*
G01*
X195975000Y-94845000D01*
G75*
G02*
X196225000Y-94595000I250000J0D01*
G01*
X197475000Y-94595000D01*
G75*
G02*
X197725000Y-94845000I0J-250000D01*
G01*
X197725000Y-95595000D01*
G75*
G02*
X197475000Y-95845000I-250000J0D01*
G01*
G37*
G36*
G01*
X197475000Y-98645000D02*
X196225000Y-98645000D01*
G75*
G02*
X195975000Y-98395000I0J250000D01*
G01*
X195975000Y-97645000D01*
G75*
G02*
X196225000Y-97395000I250000J0D01*
G01*
X197475000Y-97395000D01*
G75*
G02*
X197725000Y-97645000I0J-250000D01*
G01*
X197725000Y-98395000D01*
G75*
G02*
X197475000Y-98645000I-250000J0D01*
G01*
G37*
G36*
G01*
X130800000Y-114895000D02*
X129550000Y-114895000D01*
G75*
G02*
X129300000Y-114645000I0J250000D01*
G01*
X129300000Y-113895000D01*
G75*
G02*
X129550000Y-113645000I250000J0D01*
G01*
X130800000Y-113645000D01*
G75*
G02*
X131050000Y-113895000I0J-250000D01*
G01*
X131050000Y-114645000D01*
G75*
G02*
X130800000Y-114895000I-250000J0D01*
G01*
G37*
G36*
G01*
X130800000Y-117695000D02*
X129550000Y-117695000D01*
G75*
G02*
X129300000Y-117445000I0J250000D01*
G01*
X129300000Y-116695000D01*
G75*
G02*
X129550000Y-116445000I250000J0D01*
G01*
X130800000Y-116445000D01*
G75*
G02*
X131050000Y-116695000I0J-250000D01*
G01*
X131050000Y-117445000D01*
G75*
G02*
X130800000Y-117695000I-250000J0D01*
G01*
G37*
G36*
G01*
X254625000Y-95845000D02*
X253375000Y-95845000D01*
G75*
G02*
X253125000Y-95595000I0J250000D01*
G01*
X253125000Y-94845000D01*
G75*
G02*
X253375000Y-94595000I250000J0D01*
G01*
X254625000Y-94595000D01*
G75*
G02*
X254875000Y-94845000I0J-250000D01*
G01*
X254875000Y-95595000D01*
G75*
G02*
X254625000Y-95845000I-250000J0D01*
G01*
G37*
G36*
G01*
X254625000Y-98645000D02*
X253375000Y-98645000D01*
G75*
G02*
X253125000Y-98395000I0J250000D01*
G01*
X253125000Y-97645000D01*
G75*
G02*
X253375000Y-97395000I250000J0D01*
G01*
X254625000Y-97395000D01*
G75*
G02*
X254875000Y-97645000I0J-250000D01*
G01*
X254875000Y-98395000D01*
G75*
G02*
X254625000Y-98645000I-250000J0D01*
G01*
G37*
G36*
G01*
X187950000Y-114895000D02*
X186700000Y-114895000D01*
G75*
G02*
X186450000Y-114645000I0J250000D01*
G01*
X186450000Y-113895000D01*
G75*
G02*
X186700000Y-113645000I250000J0D01*
G01*
X187950000Y-113645000D01*
G75*
G02*
X188200000Y-113895000I0J-250000D01*
G01*
X188200000Y-114645000D01*
G75*
G02*
X187950000Y-114895000I-250000J0D01*
G01*
G37*
G36*
G01*
X187950000Y-117695000D02*
X186700000Y-117695000D01*
G75*
G02*
X186450000Y-117445000I0J250000D01*
G01*
X186450000Y-116695000D01*
G75*
G02*
X186700000Y-116445000I250000J0D01*
G01*
X187950000Y-116445000D01*
G75*
G02*
X188200000Y-116695000I0J-250000D01*
G01*
X188200000Y-117445000D01*
G75*
G02*
X187950000Y-117695000I-250000J0D01*
G01*
G37*
G36*
G01*
X121275000Y-95845000D02*
X120025000Y-95845000D01*
G75*
G02*
X119775000Y-95595000I0J250000D01*
G01*
X119775000Y-94845000D01*
G75*
G02*
X120025000Y-94595000I250000J0D01*
G01*
X121275000Y-94595000D01*
G75*
G02*
X121525000Y-94845000I0J-250000D01*
G01*
X121525000Y-95595000D01*
G75*
G02*
X121275000Y-95845000I-250000J0D01*
G01*
G37*
G36*
G01*
X121275000Y-98645000D02*
X120025000Y-98645000D01*
G75*
G02*
X119775000Y-98395000I0J250000D01*
G01*
X119775000Y-97645000D01*
G75*
G02*
X120025000Y-97395000I250000J0D01*
G01*
X121275000Y-97395000D01*
G75*
G02*
X121525000Y-97645000I0J-250000D01*
G01*
X121525000Y-98395000D01*
G75*
G02*
X121275000Y-98645000I-250000J0D01*
G01*
G37*
G36*
G01*
X54600000Y-114895000D02*
X53350000Y-114895000D01*
G75*
G02*
X53100000Y-114645000I0J250000D01*
G01*
X53100000Y-113895000D01*
G75*
G02*
X53350000Y-113645000I250000J0D01*
G01*
X54600000Y-113645000D01*
G75*
G02*
X54850000Y-113895000I0J-250000D01*
G01*
X54850000Y-114645000D01*
G75*
G02*
X54600000Y-114895000I-250000J0D01*
G01*
G37*
G36*
G01*
X54600000Y-117695000D02*
X53350000Y-117695000D01*
G75*
G02*
X53100000Y-117445000I0J250000D01*
G01*
X53100000Y-116695000D01*
G75*
G02*
X53350000Y-116445000I250000J0D01*
G01*
X54600000Y-116445000D01*
G75*
G02*
X54850000Y-116695000I0J-250000D01*
G01*
X54850000Y-117445000D01*
G75*
G02*
X54600000Y-117695000I-250000J0D01*
G01*
G37*
G36*
G01*
X245100000Y-114895000D02*
X243850000Y-114895000D01*
G75*
G02*
X243600000Y-114645000I0J250000D01*
G01*
X243600000Y-113895000D01*
G75*
G02*
X243850000Y-113645000I250000J0D01*
G01*
X245100000Y-113645000D01*
G75*
G02*
X245350000Y-113895000I0J-250000D01*
G01*
X245350000Y-114645000D01*
G75*
G02*
X245100000Y-114895000I-250000J0D01*
G01*
G37*
G36*
G01*
X245100000Y-117695000D02*
X243850000Y-117695000D01*
G75*
G02*
X243600000Y-117445000I0J250000D01*
G01*
X243600000Y-116695000D01*
G75*
G02*
X243850000Y-116445000I250000J0D01*
G01*
X245100000Y-116445000D01*
G75*
G02*
X245350000Y-116695000I0J-250000D01*
G01*
X245350000Y-117445000D01*
G75*
G02*
X245100000Y-117695000I-250000J0D01*
G01*
G37*
G36*
G01*
X178425000Y-95845000D02*
X177175000Y-95845000D01*
G75*
G02*
X176925000Y-95595000I0J250000D01*
G01*
X176925000Y-94845000D01*
G75*
G02*
X177175000Y-94595000I250000J0D01*
G01*
X178425000Y-94595000D01*
G75*
G02*
X178675000Y-94845000I0J-250000D01*
G01*
X178675000Y-95595000D01*
G75*
G02*
X178425000Y-95845000I-250000J0D01*
G01*
G37*
G36*
G01*
X178425000Y-98645000D02*
X177175000Y-98645000D01*
G75*
G02*
X176925000Y-98395000I0J250000D01*
G01*
X176925000Y-97645000D01*
G75*
G02*
X177175000Y-97395000I250000J0D01*
G01*
X178425000Y-97395000D01*
G75*
G02*
X178675000Y-97645000I0J-250000D01*
G01*
X178675000Y-98395000D01*
G75*
G02*
X178425000Y-98645000I-250000J0D01*
G01*
G37*
G36*
G01*
X168900000Y-114895000D02*
X167650000Y-114895000D01*
G75*
G02*
X167400000Y-114645000I0J250000D01*
G01*
X167400000Y-113895000D01*
G75*
G02*
X167650000Y-113645000I250000J0D01*
G01*
X168900000Y-113645000D01*
G75*
G02*
X169150000Y-113895000I0J-250000D01*
G01*
X169150000Y-114645000D01*
G75*
G02*
X168900000Y-114895000I-250000J0D01*
G01*
G37*
G36*
G01*
X168900000Y-117695000D02*
X167650000Y-117695000D01*
G75*
G02*
X167400000Y-117445000I0J250000D01*
G01*
X167400000Y-116695000D01*
G75*
G02*
X167650000Y-116445000I250000J0D01*
G01*
X168900000Y-116445000D01*
G75*
G02*
X169150000Y-116695000I0J-250000D01*
G01*
X169150000Y-117445000D01*
G75*
G02*
X168900000Y-117695000I-250000J0D01*
G01*
G37*
G36*
G01*
X102225000Y-95845000D02*
X100975000Y-95845000D01*
G75*
G02*
X100725000Y-95595000I0J250000D01*
G01*
X100725000Y-94845000D01*
G75*
G02*
X100975000Y-94595000I250000J0D01*
G01*
X102225000Y-94595000D01*
G75*
G02*
X102475000Y-94845000I0J-250000D01*
G01*
X102475000Y-95595000D01*
G75*
G02*
X102225000Y-95845000I-250000J0D01*
G01*
G37*
G36*
G01*
X102225000Y-98645000D02*
X100975000Y-98645000D01*
G75*
G02*
X100725000Y-98395000I0J250000D01*
G01*
X100725000Y-97645000D01*
G75*
G02*
X100975000Y-97395000I250000J0D01*
G01*
X102225000Y-97395000D01*
G75*
G02*
X102475000Y-97645000I0J-250000D01*
G01*
X102475000Y-98395000D01*
G75*
G02*
X102225000Y-98645000I-250000J0D01*
G01*
G37*
G36*
G01*
X35550000Y-114895000D02*
X34300000Y-114895000D01*
G75*
G02*
X34050000Y-114645000I0J250000D01*
G01*
X34050000Y-113895000D01*
G75*
G02*
X34300000Y-113645000I250000J0D01*
G01*
X35550000Y-113645000D01*
G75*
G02*
X35800000Y-113895000I0J-250000D01*
G01*
X35800000Y-114645000D01*
G75*
G02*
X35550000Y-114895000I-250000J0D01*
G01*
G37*
G36*
G01*
X35550000Y-117695000D02*
X34300000Y-117695000D01*
G75*
G02*
X34050000Y-117445000I0J250000D01*
G01*
X34050000Y-116695000D01*
G75*
G02*
X34300000Y-116445000I250000J0D01*
G01*
X35550000Y-116445000D01*
G75*
G02*
X35800000Y-116695000I0J-250000D01*
G01*
X35800000Y-117445000D01*
G75*
G02*
X35550000Y-117695000I-250000J0D01*
G01*
G37*
G36*
G01*
X173650000Y-59960000D02*
X173650000Y-61210000D01*
G75*
G02*
X173400000Y-61460000I-250000J0D01*
G01*
X172650000Y-61460000D01*
G75*
G02*
X172400000Y-61210000I0J250000D01*
G01*
X172400000Y-59960000D01*
G75*
G02*
X172650000Y-59710000I250000J0D01*
G01*
X173400000Y-59710000D01*
G75*
G02*
X173650000Y-59960000I0J-250000D01*
G01*
G37*
G36*
G01*
X176450000Y-59960000D02*
X176450000Y-61210000D01*
G75*
G02*
X176200000Y-61460000I-250000J0D01*
G01*
X175450000Y-61460000D01*
G75*
G02*
X175200000Y-61210000I0J250000D01*
G01*
X175200000Y-59960000D01*
G75*
G02*
X175450000Y-59710000I250000J0D01*
G01*
X176200000Y-59710000D01*
G75*
G02*
X176450000Y-59960000I0J-250000D01*
G01*
G37*
G36*
G01*
X257200000Y-63710000D02*
X257200000Y-62460000D01*
G75*
G02*
X257450000Y-62210000I250000J0D01*
G01*
X258200000Y-62210000D01*
G75*
G02*
X258450000Y-62460000I0J-250000D01*
G01*
X258450000Y-63710000D01*
G75*
G02*
X258200000Y-63960000I-250000J0D01*
G01*
X257450000Y-63960000D01*
G75*
G02*
X257200000Y-63710000I0J250000D01*
G01*
G37*
G36*
G01*
X254400000Y-63710000D02*
X254400000Y-62460000D01*
G75*
G02*
X254650000Y-62210000I250000J0D01*
G01*
X255400000Y-62210000D01*
G75*
G02*
X255650000Y-62460000I0J-250000D01*
G01*
X255650000Y-63710000D01*
G75*
G02*
X255400000Y-63960000I-250000J0D01*
G01*
X254650000Y-63960000D01*
G75*
G02*
X254400000Y-63710000I0J250000D01*
G01*
G37*
G36*
G01*
X257200000Y-61210000D02*
X257200000Y-59960000D01*
G75*
G02*
X257450000Y-59710000I250000J0D01*
G01*
X258200000Y-59710000D01*
G75*
G02*
X258450000Y-59960000I0J-250000D01*
G01*
X258450000Y-61210000D01*
G75*
G02*
X258200000Y-61460000I-250000J0D01*
G01*
X257450000Y-61460000D01*
G75*
G02*
X257200000Y-61210000I0J250000D01*
G01*
G37*
G36*
G01*
X254400000Y-61210000D02*
X254400000Y-59960000D01*
G75*
G02*
X254650000Y-59710000I250000J0D01*
G01*
X255400000Y-59710000D01*
G75*
G02*
X255650000Y-59960000I0J-250000D01*
G01*
X255650000Y-61210000D01*
G75*
G02*
X255400000Y-61460000I-250000J0D01*
G01*
X254650000Y-61460000D01*
G75*
G02*
X254400000Y-61210000I0J250000D01*
G01*
G37*
G36*
G01*
X225650000Y-59960000D02*
X225650000Y-61210000D01*
G75*
G02*
X225400000Y-61460000I-250000J0D01*
G01*
X224650000Y-61460000D01*
G75*
G02*
X224400000Y-61210000I0J250000D01*
G01*
X224400000Y-59960000D01*
G75*
G02*
X224650000Y-59710000I250000J0D01*
G01*
X225400000Y-59710000D01*
G75*
G02*
X225650000Y-59960000I0J-250000D01*
G01*
G37*
G36*
G01*
X228450000Y-59960000D02*
X228450000Y-61210000D01*
G75*
G02*
X228200000Y-61460000I-250000J0D01*
G01*
X227450000Y-61460000D01*
G75*
G02*
X227200000Y-61210000I0J250000D01*
G01*
X227200000Y-59960000D01*
G75*
G02*
X227450000Y-59710000I250000J0D01*
G01*
X228200000Y-59710000D01*
G75*
G02*
X228450000Y-59960000I0J-250000D01*
G01*
G37*
G36*
G01*
X173650000Y-67460000D02*
X173650000Y-68710000D01*
G75*
G02*
X173400000Y-68960000I-250000J0D01*
G01*
X172650000Y-68960000D01*
G75*
G02*
X172400000Y-68710000I0J250000D01*
G01*
X172400000Y-67460000D01*
G75*
G02*
X172650000Y-67210000I250000J0D01*
G01*
X173400000Y-67210000D01*
G75*
G02*
X173650000Y-67460000I0J-250000D01*
G01*
G37*
G36*
G01*
X176450000Y-67460000D02*
X176450000Y-68710000D01*
G75*
G02*
X176200000Y-68960000I-250000J0D01*
G01*
X175450000Y-68960000D01*
G75*
G02*
X175200000Y-68710000I0J250000D01*
G01*
X175200000Y-67460000D01*
G75*
G02*
X175450000Y-67210000I250000J0D01*
G01*
X176200000Y-67210000D01*
G75*
G02*
X176450000Y-67460000I0J-250000D01*
G01*
G37*
G36*
G01*
X225650000Y-67460000D02*
X225650000Y-68710000D01*
G75*
G02*
X225400000Y-68960000I-250000J0D01*
G01*
X224650000Y-68960000D01*
G75*
G02*
X224400000Y-68710000I0J250000D01*
G01*
X224400000Y-67460000D01*
G75*
G02*
X224650000Y-67210000I250000J0D01*
G01*
X225400000Y-67210000D01*
G75*
G02*
X225650000Y-67460000I0J-250000D01*
G01*
G37*
G36*
G01*
X228450000Y-67460000D02*
X228450000Y-68710000D01*
G75*
G02*
X228200000Y-68960000I-250000J0D01*
G01*
X227450000Y-68960000D01*
G75*
G02*
X227200000Y-68710000I0J250000D01*
G01*
X227200000Y-67460000D01*
G75*
G02*
X227450000Y-67210000I250000J0D01*
G01*
X228200000Y-67210000D01*
G75*
G02*
X228450000Y-67460000I0J-250000D01*
G01*
G37*
G36*
G01*
X173650000Y-64960000D02*
X173650000Y-66210000D01*
G75*
G02*
X173400000Y-66460000I-250000J0D01*
G01*
X172650000Y-66460000D01*
G75*
G02*
X172400000Y-66210000I0J250000D01*
G01*
X172400000Y-64960000D01*
G75*
G02*
X172650000Y-64710000I250000J0D01*
G01*
X173400000Y-64710000D01*
G75*
G02*
X173650000Y-64960000I0J-250000D01*
G01*
G37*
G36*
G01*
X176450000Y-64960000D02*
X176450000Y-66210000D01*
G75*
G02*
X176200000Y-66460000I-250000J0D01*
G01*
X175450000Y-66460000D01*
G75*
G02*
X175200000Y-66210000I0J250000D01*
G01*
X175200000Y-64960000D01*
G75*
G02*
X175450000Y-64710000I250000J0D01*
G01*
X176200000Y-64710000D01*
G75*
G02*
X176450000Y-64960000I0J-250000D01*
G01*
G37*
G36*
G01*
X225650000Y-64960000D02*
X225650000Y-66210000D01*
G75*
G02*
X225400000Y-66460000I-250000J0D01*
G01*
X224650000Y-66460000D01*
G75*
G02*
X224400000Y-66210000I0J250000D01*
G01*
X224400000Y-64960000D01*
G75*
G02*
X224650000Y-64710000I250000J0D01*
G01*
X225400000Y-64710000D01*
G75*
G02*
X225650000Y-64960000I0J-250000D01*
G01*
G37*
G36*
G01*
X228450000Y-64960000D02*
X228450000Y-66210000D01*
G75*
G02*
X228200000Y-66460000I-250000J0D01*
G01*
X227450000Y-66460000D01*
G75*
G02*
X227200000Y-66210000I0J250000D01*
G01*
X227200000Y-64960000D01*
G75*
G02*
X227450000Y-64710000I250000J0D01*
G01*
X228200000Y-64710000D01*
G75*
G02*
X228450000Y-64960000I0J-250000D01*
G01*
G37*
G36*
G01*
X173650000Y-62460000D02*
X173650000Y-63710000D01*
G75*
G02*
X173400000Y-63960000I-250000J0D01*
G01*
X172650000Y-63960000D01*
G75*
G02*
X172400000Y-63710000I0J250000D01*
G01*
X172400000Y-62460000D01*
G75*
G02*
X172650000Y-62210000I250000J0D01*
G01*
X173400000Y-62210000D01*
G75*
G02*
X173650000Y-62460000I0J-250000D01*
G01*
G37*
G36*
G01*
X176450000Y-62460000D02*
X176450000Y-63710000D01*
G75*
G02*
X176200000Y-63960000I-250000J0D01*
G01*
X175450000Y-63960000D01*
G75*
G02*
X175200000Y-63710000I0J250000D01*
G01*
X175200000Y-62460000D01*
G75*
G02*
X175450000Y-62210000I250000J0D01*
G01*
X176200000Y-62210000D01*
G75*
G02*
X176450000Y-62460000I0J-250000D01*
G01*
G37*
G36*
G01*
X225650000Y-62460000D02*
X225650000Y-63710000D01*
G75*
G02*
X225400000Y-63960000I-250000J0D01*
G01*
X224650000Y-63960000D01*
G75*
G02*
X224400000Y-63710000I0J250000D01*
G01*
X224400000Y-62460000D01*
G75*
G02*
X224650000Y-62210000I250000J0D01*
G01*
X225400000Y-62210000D01*
G75*
G02*
X225650000Y-62460000I0J-250000D01*
G01*
G37*
G36*
G01*
X228450000Y-62460000D02*
X228450000Y-63710000D01*
G75*
G02*
X228200000Y-63960000I-250000J0D01*
G01*
X227450000Y-63960000D01*
G75*
G02*
X227200000Y-63710000I0J250000D01*
G01*
X227200000Y-62460000D01*
G75*
G02*
X227450000Y-62210000I250000J0D01*
G01*
X228200000Y-62210000D01*
G75*
G02*
X228450000Y-62460000I0J-250000D01*
G01*
G37*
D12*
X163815000Y-120750000D03*
X153655000Y-120750000D03*
D13*
X158735000Y-120750000D03*
D14*
X154925000Y-118210000D03*
X161275000Y-115670000D03*
D12*
X230490000Y-101700000D03*
X220330000Y-101700000D03*
D13*
X225410000Y-101700000D03*
D14*
X221600000Y-99160000D03*
X227950000Y-96620000D03*
D16*
X8135000Y-56310000D03*
X10675000Y-56310000D03*
X13215000Y-56310000D03*
X15755000Y-56310000D03*
X18295000Y-56310000D03*
X20835000Y-56310000D03*
X23375000Y-56310000D03*
X25915000Y-56310000D03*
X28455000Y-56310000D03*
X30995000Y-56310000D03*
X33535000Y-56310000D03*
X36075000Y-56310000D03*
X36075000Y-71550000D03*
X33535000Y-71550000D03*
X30995000Y-71550000D03*
X28455000Y-71550000D03*
X25915000Y-71550000D03*
X23375000Y-71550000D03*
X20835000Y-71550000D03*
X18295000Y-71550000D03*
X15755000Y-71550000D03*
X13215000Y-71550000D03*
X10675000Y-71550000D03*
D17*
X8135000Y-71550000D03*
D12*
X87615000Y-120750000D03*
X77455000Y-120750000D03*
D13*
X82535000Y-120750000D03*
D14*
X78725000Y-118210000D03*
X85075000Y-115670000D03*
D12*
X268590000Y-101700000D03*
X258430000Y-101700000D03*
D13*
X263510000Y-101700000D03*
D14*
X259700000Y-99160000D03*
X266050000Y-96620000D03*
D12*
X259065000Y-120750000D03*
X248905000Y-120750000D03*
D13*
X253985000Y-120750000D03*
D14*
X250175000Y-118210000D03*
X256525000Y-115670000D03*
D12*
X249540000Y-101700000D03*
X239380000Y-101700000D03*
D13*
X244460000Y-101700000D03*
D14*
X240650000Y-99160000D03*
X247000000Y-96620000D03*
D12*
X106665000Y-120750000D03*
X96505000Y-120750000D03*
D13*
X101585000Y-120750000D03*
D14*
X97775000Y-118210000D03*
X104125000Y-115670000D03*
D12*
X39990000Y-101700000D03*
X29830000Y-101700000D03*
D13*
X34910000Y-101700000D03*
D14*
X31100000Y-99160000D03*
X37450000Y-96620000D03*
D12*
X30465000Y-120750000D03*
X20305000Y-120750000D03*
D13*
X25385000Y-120750000D03*
D14*
X21575000Y-118210000D03*
X27925000Y-115670000D03*
D13*
X126324999Y-62135001D03*
X117524999Y-62135001D03*
D18*
X124424999Y-69135001D03*
X121924999Y-69135001D03*
X119424999Y-69135001D03*
D13*
X107274999Y-62135001D03*
X98474999Y-62135001D03*
D18*
X105374999Y-69135001D03*
X102874999Y-69135001D03*
X100374999Y-69135001D03*
D13*
X88224999Y-62135001D03*
X79424999Y-62135001D03*
D18*
X86324999Y-69135001D03*
X83824999Y-69135001D03*
X81324999Y-69135001D03*
D13*
X69174999Y-62135001D03*
X60374999Y-62135001D03*
D18*
X67274999Y-69135001D03*
X64774999Y-69135001D03*
X62274999Y-69135001D03*
M02*
