M48
; DRILL file {KiCad (5.1.10)-1} date 09/29/21 18:40:02
; FORMAT={-:-/ absolute / metric / decimal}
; #@! TF.CreationDate,2021-09-29T18:40:02-04:00
; #@! TF.GenerationSoftware,Kicad,Pcbnew,(5.1.10)-1
; #@! TF.FileFunction,NonPlated,1,2,NPTH
FMAT,2
METRIC
T1C1.700
T2C2.000
T3C4.000
%
G90
G05
T1
X20.305Y-120.75
X29.83Y-101.7
X30.465Y-120.75
X39.355Y-120.75
X39.99Y-101.7
X48.88Y-101.7
X49.515Y-120.75
X58.405Y-120.75
X59.04Y-101.7
X68.565Y-120.75
X77.455Y-120.75
X86.98Y-101.7
X87.615Y-120.75
X96.505Y-120.75
X97.14Y-101.7
X106.03Y-101.7
X106.665Y-120.75
X115.555Y-120.75
X116.19Y-101.7
X125.08Y-101.7
X125.715Y-120.75
X134.605Y-120.75
X135.24Y-101.7
X144.765Y-120.75
X153.655Y-120.75
X163.18Y-101.7
X163.815Y-120.75
X172.705Y-120.75
X173.34Y-101.7
X182.23Y-101.7
X182.865Y-120.75
X191.755Y-120.75
X192.39Y-101.7
X201.915Y-120.75
X210.805Y-120.75
X220.33Y-101.7
X220.965Y-120.75
X229.855Y-120.75
X230.49Y-101.7
X239.38Y-101.7
X240.015Y-120.75
X248.905Y-120.75
X249.54Y-101.7
X258.43Y-101.7
X259.065Y-120.75
X267.955Y-120.75
X268.59Y-101.7
X278.115Y-120.75
T2
X60.375Y-62.135
X69.175Y-62.135
X79.425Y-62.135
X88.225Y-62.135
X98.475Y-62.135
X107.275Y-62.135
X117.525Y-62.135
X126.325Y-62.135
X190.525Y-57.585
X190.525Y-73.585
X242.525Y-57.585
X242.525Y-73.585
T3
X11.43Y-50.8
X11.43Y-125.73
X25.385Y-120.75
X34.91Y-101.7
X44.435Y-120.75
X53.96Y-101.7
X63.485Y-120.75
X82.535Y-120.75
X92.06Y-101.7
X101.585Y-120.75
X111.11Y-101.7
X120.635Y-120.75
X130.16Y-101.7
X139.685Y-120.75
X158.735Y-120.75
X168.26Y-101.7
X177.785Y-120.75
X187.31Y-101.7
X196.835Y-120.75
X215.885Y-120.75
X225.41Y-101.7
X234.935Y-120.75
X244.46Y-101.7
X253.985Y-120.75
X263.51Y-101.7
X273.035Y-120.75
X287.02Y-50.8
X287.02Y-125.73
T0
M30
