G04 #@! TF.GenerationSoftware,KiCad,Pcbnew,(5.1.10)-1*
G04 #@! TF.CreationDate,2021-09-29T18:39:33-04:00*
G04 #@! TF.ProjectId,design,64657369-676e-42e6-9b69-6361645f7063,rev?*
G04 #@! TF.SameCoordinates,Original*
G04 #@! TF.FileFunction,Soldermask,Bot*
G04 #@! TF.FilePolarity,Negative*
%FSLAX46Y46*%
G04 Gerber Fmt 4.6, Leading zero omitted, Abs format (unit mm)*
G04 Created by KiCad (PCBNEW (5.1.10)-1) date 2021-09-29 18:39:33*
%MOMM*%
%LPD*%
G01*
G04 APERTURE LIST*
%ADD10C,1.700000*%
%ADD11C,4.000000*%
%ADD12C,2.200000*%
%ADD13C,2.500000*%
%ADD14C,1.600000*%
%ADD15R,1.600000X1.600000*%
%ADD16C,1.800000*%
G04 APERTURE END LIST*
D10*
X49515000Y-120750000D03*
X39355000Y-120750000D03*
D11*
X44435000Y-120750000D03*
D12*
X40625000Y-118210000D03*
X46975000Y-115670000D03*
D10*
X135240000Y-101700000D03*
X125080000Y-101700000D03*
D11*
X130160000Y-101700000D03*
D12*
X126350000Y-99160000D03*
X132700000Y-96620000D03*
D10*
X125715000Y-120750000D03*
X115555000Y-120750000D03*
D11*
X120635000Y-120750000D03*
D12*
X116825000Y-118210000D03*
X123175000Y-115670000D03*
D10*
X182865000Y-120750000D03*
X172705000Y-120750000D03*
D11*
X177785000Y-120750000D03*
D12*
X173975000Y-118210000D03*
X180325000Y-115670000D03*
D10*
X59040000Y-101700000D03*
X48880000Y-101700000D03*
D11*
X53960000Y-101700000D03*
D12*
X50150000Y-99160000D03*
X56500000Y-96620000D03*
D10*
X220965000Y-120750000D03*
X210805000Y-120750000D03*
D11*
X215885000Y-120750000D03*
D12*
X212075000Y-118210000D03*
X218425000Y-115670000D03*
X237475000Y-115670000D03*
X231125000Y-118210000D03*
D11*
X234935000Y-120750000D03*
D10*
X229855000Y-120750000D03*
X240015000Y-120750000D03*
X201915000Y-120750000D03*
X191755000Y-120750000D03*
D11*
X196835000Y-120750000D03*
D12*
X193025000Y-118210000D03*
X199375000Y-115670000D03*
D10*
X144765000Y-120750000D03*
X134605000Y-120750000D03*
D11*
X139685000Y-120750000D03*
D12*
X135875000Y-118210000D03*
X142225000Y-115670000D03*
D10*
X116190000Y-101700000D03*
X106030000Y-101700000D03*
D11*
X111110000Y-101700000D03*
D12*
X107300000Y-99160000D03*
X113650000Y-96620000D03*
D10*
X97140000Y-101700000D03*
X86980000Y-101700000D03*
D11*
X92060000Y-101700000D03*
D12*
X88250000Y-99160000D03*
X94600000Y-96620000D03*
D11*
X11430000Y-125730000D03*
X287020000Y-125730000D03*
X11430000Y-50800000D03*
X287020000Y-50800000D03*
D13*
X190525000Y-57585000D03*
X190525000Y-73585000D03*
D14*
X198575000Y-70585000D03*
X198575000Y-60585000D03*
X198575000Y-63085000D03*
X198575000Y-68085000D03*
X180275000Y-70585000D03*
X180275000Y-68085000D03*
X180275000Y-60585000D03*
X180275000Y-63085000D03*
X198575000Y-65585000D03*
X180275000Y-65585000D03*
D13*
X242525000Y-57585000D03*
X242525000Y-73585000D03*
D14*
X250575000Y-70585000D03*
X250575000Y-60585000D03*
X250575000Y-63085000D03*
X250575000Y-68085000D03*
X232275000Y-70585000D03*
X232275000Y-68085000D03*
X232275000Y-60585000D03*
X232275000Y-63085000D03*
X250575000Y-65585000D03*
X232275000Y-65585000D03*
D10*
X173340000Y-101700000D03*
X163180000Y-101700000D03*
D11*
X168260000Y-101700000D03*
D12*
X164450000Y-99160000D03*
X170800000Y-96620000D03*
D10*
X278115000Y-120750000D03*
X267955000Y-120750000D03*
D11*
X273035000Y-120750000D03*
D12*
X269225000Y-118210000D03*
X275575000Y-115670000D03*
D10*
X192390000Y-101700000D03*
X182230000Y-101700000D03*
D11*
X187310000Y-101700000D03*
D12*
X183500000Y-99160000D03*
X189850000Y-96620000D03*
D10*
X68565000Y-120750000D03*
X58405000Y-120750000D03*
D11*
X63485000Y-120750000D03*
D12*
X59675000Y-118210000D03*
X66025000Y-115670000D03*
D10*
X163815000Y-120750000D03*
X153655000Y-120750000D03*
D11*
X158735000Y-120750000D03*
D12*
X154925000Y-118210000D03*
X161275000Y-115670000D03*
D10*
X230490000Y-101700000D03*
X220330000Y-101700000D03*
D11*
X225410000Y-101700000D03*
D12*
X221600000Y-99160000D03*
X227950000Y-96620000D03*
D14*
X8135000Y-56310000D03*
X10675000Y-56310000D03*
X13215000Y-56310000D03*
X15755000Y-56310000D03*
X18295000Y-56310000D03*
X20835000Y-56310000D03*
X23375000Y-56310000D03*
X25915000Y-56310000D03*
X28455000Y-56310000D03*
X30995000Y-56310000D03*
X33535000Y-56310000D03*
X36075000Y-56310000D03*
X36075000Y-71550000D03*
X33535000Y-71550000D03*
X30995000Y-71550000D03*
X28455000Y-71550000D03*
X25915000Y-71550000D03*
X23375000Y-71550000D03*
X20835000Y-71550000D03*
X18295000Y-71550000D03*
X15755000Y-71550000D03*
X13215000Y-71550000D03*
X10675000Y-71550000D03*
D15*
X8135000Y-71550000D03*
D10*
X87615000Y-120750000D03*
X77455000Y-120750000D03*
D11*
X82535000Y-120750000D03*
D12*
X78725000Y-118210000D03*
X85075000Y-115670000D03*
D10*
X268590000Y-101700000D03*
X258430000Y-101700000D03*
D11*
X263510000Y-101700000D03*
D12*
X259700000Y-99160000D03*
X266050000Y-96620000D03*
D10*
X259065000Y-120750000D03*
X248905000Y-120750000D03*
D11*
X253985000Y-120750000D03*
D12*
X250175000Y-118210000D03*
X256525000Y-115670000D03*
D10*
X249540000Y-101700000D03*
X239380000Y-101700000D03*
D11*
X244460000Y-101700000D03*
D12*
X240650000Y-99160000D03*
X247000000Y-96620000D03*
D10*
X106665000Y-120750000D03*
X96505000Y-120750000D03*
D11*
X101585000Y-120750000D03*
D12*
X97775000Y-118210000D03*
X104125000Y-115670000D03*
D10*
X39990000Y-101700000D03*
X29830000Y-101700000D03*
D11*
X34910000Y-101700000D03*
D12*
X31100000Y-99160000D03*
X37450000Y-96620000D03*
D10*
X30465000Y-120750000D03*
X20305000Y-120750000D03*
D11*
X25385000Y-120750000D03*
D12*
X21575000Y-118210000D03*
X27925000Y-115670000D03*
D11*
X126324999Y-62135001D03*
X117524999Y-62135001D03*
D16*
X124424999Y-69135001D03*
X121924999Y-69135001D03*
X119424999Y-69135001D03*
D11*
X107274999Y-62135001D03*
X98474999Y-62135001D03*
D16*
X105374999Y-69135001D03*
X102874999Y-69135001D03*
X100374999Y-69135001D03*
D11*
X88224999Y-62135001D03*
X79424999Y-62135001D03*
D16*
X86324999Y-69135001D03*
X83824999Y-69135001D03*
X81324999Y-69135001D03*
D11*
X69174999Y-62135001D03*
X60374999Y-62135001D03*
D16*
X67274999Y-69135001D03*
X64774999Y-69135001D03*
X62274999Y-69135001D03*
M02*
