%FSLAX45Y45*%
G04 Gerber Fmt 4.5, Leading zero omitted, Abs format (unit mm)*
G04 Created by KiCad (PCBNEW (5.1.10)-1) date 2021-09-29 18:40:03*
%MOMM*%
%LPD*%
G01*
G04 APERTURE LIST*
%TA.AperFunction,Profile*%
%ADD10C,0.050000*%
%TD*%
%ADD11C,0.200000*%
%ADD12C,0.300000*%
G04 APERTURE END LIST*
D10*
X29210000Y-5397500D02*
X29210000Y-5461000D01*
X29210000Y-5080000D02*
X29210000Y-5397500D01*
X635000Y-5080000D02*
X635000Y-5461000D01*
X28702000Y-4572000D02*
X1143000Y-4572000D01*
X635000Y-5080000D02*
G75*
G02*
X1143000Y-4572000I508000J0D01*
G01*
X29210000Y-5461000D02*
X29210000Y-5969000D01*
X635000Y-12573000D02*
X635000Y-5461000D01*
X29210000Y-12573000D02*
X29210000Y-5969000D01*
X1143000Y-13081000D02*
X28702000Y-13081000D01*
X28702000Y-4572000D02*
G75*
G02*
X29210000Y-5080000I0J-508000D01*
G01*
X29210000Y-12573000D02*
G75*
G02*
X28702000Y-13081000I-508000J0D01*
G01*
X1143000Y-13081000D02*
G75*
G02*
X635000Y-12573000I0J508000D01*
G01*
D11*
X2095000Y-5775000D02*
X2135000Y-5815000D01*
X2135000Y-5775000D02*
X2095000Y-5815000D01*
X2235000Y-7427500D02*
X2275000Y-7467500D01*
X2275000Y-7427500D02*
X2235000Y-7467500D01*
X2357500Y-5775000D02*
X2397500Y-5815000D01*
X2397500Y-5775000D02*
X2357500Y-5815000D01*
X2490000Y-7412500D02*
X2530000Y-7452500D01*
X2530000Y-7412500D02*
X2490000Y-7452500D01*
X2620000Y-5777500D02*
X2660000Y-5817500D01*
X2660000Y-5777500D02*
X2620000Y-5817500D01*
X2715000Y-7392500D02*
X2755000Y-7432500D01*
X2755000Y-7392500D02*
X2715000Y-7432500D01*
X2870000Y-11807500D02*
X2910000Y-11847500D01*
X2910000Y-11807500D02*
X2870000Y-11847500D01*
X2927500Y-7347500D02*
X2967500Y-7387500D01*
X2967500Y-7347500D02*
X2927500Y-7387500D01*
X2955000Y-5780000D02*
X2995000Y-5820000D01*
X2995000Y-5780000D02*
X2955000Y-5820000D01*
X3222500Y-5772500D02*
X3262500Y-5812500D01*
X3262500Y-5772500D02*
X3222500Y-5812500D01*
X3238500Y-7889000D02*
X3278500Y-7929000D01*
X3278500Y-7889000D02*
X3238500Y-7929000D01*
X3472500Y-5772500D02*
X3512500Y-5812500D01*
X3512500Y-5772500D02*
X3472500Y-5812500D01*
X3905000Y-9910000D02*
X3945000Y-9950000D01*
X3945000Y-9910000D02*
X3905000Y-9950000D01*
X4020000Y-7022500D02*
X4060000Y-7062500D01*
X4060000Y-7022500D02*
X4020000Y-7062500D01*
X4097500Y-6797500D02*
X4137500Y-6837500D01*
X4137500Y-6797500D02*
X4097500Y-6837500D01*
X4297500Y-6747500D02*
X4337500Y-6787500D01*
X4337500Y-6747500D02*
X4297500Y-6787500D01*
X4425000Y-8080000D02*
X4465000Y-8120000D01*
X4465000Y-8080000D02*
X4425000Y-8120000D01*
X4510000Y-6725000D02*
X4550000Y-6765000D01*
X4550000Y-6725000D02*
X4510000Y-6765000D01*
X4712500Y-11802500D02*
X4752500Y-11842500D01*
X4752500Y-11802500D02*
X4712500Y-11842500D01*
X4785000Y-6772500D02*
X4825000Y-6812500D01*
X4825000Y-6772500D02*
X4785000Y-6812500D01*
X4797500Y-7180000D02*
X4837500Y-7220000D01*
X4837500Y-7180000D02*
X4797500Y-7220000D01*
X4945000Y-6722500D02*
X4985000Y-6762500D01*
X4985000Y-6722500D02*
X4945000Y-6762500D01*
X5035000Y-7180000D02*
X5075000Y-7220000D01*
X5075000Y-7180000D02*
X5035000Y-7220000D01*
X5125000Y-6665000D02*
X5165000Y-6705000D01*
X5165000Y-6665000D02*
X5125000Y-6705000D01*
X5277500Y-7180000D02*
X5317500Y-7220000D01*
X5317500Y-7180000D02*
X5277500Y-7220000D01*
X5475000Y-8280000D02*
X5515000Y-8320000D01*
X5515000Y-8280000D02*
X5475000Y-8320000D01*
X5482500Y-7180000D02*
X5522500Y-7220000D01*
X5522500Y-7180000D02*
X5482500Y-7220000D01*
X6330000Y-8480000D02*
X6370000Y-8520000D01*
X6370000Y-8480000D02*
X6330000Y-8520000D01*
X7282500Y-8680000D02*
X7322500Y-8720000D01*
X7322500Y-8680000D02*
X7282500Y-8720000D01*
X8030000Y-7735000D02*
X8070000Y-7775000D01*
X8070000Y-7735000D02*
X8030000Y-7775000D01*
X8580000Y-7317500D02*
X8620000Y-7357500D01*
X8620000Y-7317500D02*
X8580000Y-7357500D01*
X8953500Y-8880000D02*
X8993500Y-8920000D01*
X8993500Y-8880000D02*
X8953500Y-8920000D01*
X9457500Y-9892500D02*
X9497500Y-9932500D01*
X9497500Y-9892500D02*
X9457500Y-9932500D01*
X10140000Y-7880000D02*
X10180000Y-7920000D01*
X10180000Y-7880000D02*
X10140000Y-7920000D01*
X10482500Y-11805000D02*
X10522500Y-11845000D01*
X10522500Y-11805000D02*
X10482500Y-11845000D01*
X10800000Y-7660000D02*
X10840000Y-7700000D01*
X10840000Y-7660000D02*
X10800000Y-7700000D01*
X10862500Y-7297500D02*
X10902500Y-7337500D01*
X10902500Y-7297500D02*
X10862500Y-7337500D01*
X11167500Y-8080000D02*
X11207500Y-8120000D01*
X11207500Y-8080000D02*
X11167500Y-8120000D01*
X11552500Y-9892500D02*
X11592500Y-9932500D01*
X11592500Y-9892500D02*
X11552500Y-9932500D01*
X11752500Y-7500000D02*
X11792500Y-7540000D01*
X11792500Y-7500000D02*
X11752500Y-7540000D01*
X12045000Y-8280000D02*
X12085000Y-8320000D01*
X12085000Y-8280000D02*
X12045000Y-8320000D01*
X12365000Y-11805000D02*
X12405000Y-11845000D01*
X12405000Y-11805000D02*
X12365000Y-11845000D01*
X12742500Y-8480000D02*
X12782500Y-8520000D01*
X12782500Y-8480000D02*
X12742500Y-8520000D01*
X13950000Y-8680000D02*
X13990000Y-8720000D01*
X13990000Y-8680000D02*
X13950000Y-8720000D01*
X14502500Y-7322500D02*
X14542500Y-7362500D01*
X14542500Y-7322500D02*
X14502500Y-7362500D01*
X14560000Y-7617500D02*
X14600000Y-7657500D01*
X14600000Y-7617500D02*
X14560000Y-7657500D01*
X14902500Y-8880000D02*
X14942500Y-8920000D01*
X14942500Y-8880000D02*
X14902500Y-8920000D01*
X16130000Y-11800000D02*
X16170000Y-11840000D01*
X16170000Y-11800000D02*
X16130000Y-11840000D01*
X16147500Y-7712500D02*
X16187500Y-7752500D01*
X16187500Y-7712500D02*
X16147500Y-7752500D01*
X16425000Y-7350000D02*
X16465000Y-7390000D01*
X16465000Y-7350000D02*
X16425000Y-7390000D01*
X16662500Y-7880000D02*
X16702500Y-7920000D01*
X16702500Y-7880000D02*
X16662500Y-7920000D01*
X16712500Y-7407500D02*
X16752500Y-7447500D01*
X16752500Y-7407500D02*
X16712500Y-7447500D01*
X16855000Y-7150000D02*
X16895000Y-7190000D01*
X16895000Y-7150000D02*
X16855000Y-7190000D01*
X17005000Y-6038500D02*
X17045000Y-6078500D01*
X17045000Y-6038500D02*
X17005000Y-6078500D01*
X17017500Y-6538500D02*
X17057500Y-6578500D01*
X17057500Y-6538500D02*
X17017500Y-6578500D01*
X17027500Y-6288500D02*
X17067500Y-6328500D01*
X17067500Y-6288500D02*
X17027500Y-6328500D01*
X17047500Y-6788500D02*
X17087500Y-6828500D01*
X17087500Y-6788500D02*
X17047500Y-6828500D01*
X17095000Y-9900000D02*
X17135000Y-9940000D01*
X17135000Y-9900000D02*
X17095000Y-9940000D01*
X17727500Y-11690000D02*
X17767500Y-11730000D01*
X17767500Y-11690000D02*
X17727500Y-11730000D01*
X17757500Y-6650000D02*
X17797500Y-6690000D01*
X17797500Y-6650000D02*
X17757500Y-6690000D01*
X17760000Y-6150000D02*
X17800000Y-6190000D01*
X17800000Y-6150000D02*
X17760000Y-6190000D01*
X17760000Y-6425000D02*
X17800000Y-6465000D01*
X17800000Y-6425000D02*
X17760000Y-6465000D01*
X17760000Y-8080000D02*
X17800000Y-8120000D01*
X17800000Y-8080000D02*
X17760000Y-8120000D01*
X18950000Y-6997500D02*
X18990000Y-7037500D01*
X18990000Y-6997500D02*
X18950000Y-7037500D01*
X19035000Y-8280000D02*
X19075000Y-8320000D01*
X19075000Y-8280000D02*
X19035000Y-8320000D01*
X19665000Y-8480000D02*
X19705000Y-8520000D01*
X19705000Y-8480000D02*
X19665000Y-8520000D01*
X20080000Y-6162500D02*
X20120000Y-6202500D01*
X20120000Y-6162500D02*
X20080000Y-6202500D01*
X20617500Y-8680000D02*
X20657500Y-8720000D01*
X20657500Y-8680000D02*
X20617500Y-8720000D01*
X20716750Y-7149250D02*
X20756750Y-7189250D01*
X20756750Y-7149250D02*
X20716750Y-7189250D01*
X20720400Y-7360400D02*
X20760400Y-7400400D01*
X20760400Y-7360400D02*
X20720400Y-7400400D01*
X20721750Y-7251750D02*
X20761750Y-7291750D01*
X20761750Y-7251750D02*
X20721750Y-7291750D01*
X20721750Y-7474250D02*
X20761750Y-7514250D01*
X20761750Y-7474250D02*
X20721750Y-7514250D01*
X21077500Y-6788500D02*
X21117500Y-6828500D01*
X21117500Y-6788500D02*
X21077500Y-6828500D01*
X21080000Y-7800000D02*
X21120000Y-7840000D01*
X21120000Y-7800000D02*
X21080000Y-7840000D01*
X21435000Y-6538500D02*
X21475000Y-6578500D01*
X21475000Y-6538500D02*
X21435000Y-6578500D01*
X21794000Y-6288500D02*
X21834000Y-6328500D01*
X21834000Y-6288500D02*
X21794000Y-6328500D01*
X21862500Y-5745000D02*
X21902500Y-5785000D01*
X21902500Y-5745000D02*
X21862500Y-5785000D01*
X22140000Y-7721005D02*
X22180000Y-7761005D01*
X22180000Y-7721005D02*
X22140000Y-7761005D01*
X22157500Y-6038500D02*
X22197500Y-6078500D01*
X22197500Y-6038500D02*
X22157500Y-6078500D01*
X22215000Y-9082500D02*
X22255000Y-9122500D01*
X22255000Y-9082500D02*
X22215000Y-9122500D01*
X22288500Y-8880000D02*
X22328500Y-8920000D01*
X22328500Y-8880000D02*
X22288500Y-8920000D01*
X22767500Y-7510000D02*
X22807500Y-7550000D01*
X22807500Y-7510000D02*
X22767500Y-7550000D01*
X22817500Y-9892500D02*
X22857500Y-9932500D01*
X22857500Y-9892500D02*
X22817500Y-9932500D01*
X22962500Y-6415000D02*
X23002500Y-6455000D01*
X23002500Y-6415000D02*
X22962500Y-6455000D01*
X22972500Y-6172500D02*
X23012500Y-6212500D01*
X23012500Y-6172500D02*
X22972500Y-6212500D01*
X22975000Y-6680000D02*
X23015000Y-6720000D01*
X23015000Y-6680000D02*
X22975000Y-6720000D01*
X23495000Y-7880000D02*
X23535000Y-7920000D01*
X23535000Y-7880000D02*
X23495000Y-7920000D01*
X23762500Y-11812500D02*
X23802500Y-11852500D01*
X23802500Y-11812500D02*
X23762500Y-11852500D01*
X24187500Y-8080000D02*
X24227500Y-8120000D01*
X24227500Y-8080000D02*
X24187500Y-8120000D01*
X24782500Y-9895000D02*
X24822500Y-9935000D01*
X24822500Y-9895000D02*
X24782500Y-9935000D01*
X25345000Y-6545000D02*
X25385000Y-6585000D01*
X25385000Y-6545000D02*
X25345000Y-6585000D01*
X25380000Y-8280000D02*
X25420000Y-8320000D01*
X25420000Y-8280000D02*
X25380000Y-8320000D01*
X25712500Y-11800000D02*
X25752500Y-11840000D01*
X25752500Y-11800000D02*
X25712500Y-11840000D01*
X26092500Y-8480000D02*
X26132500Y-8520000D01*
X26132500Y-8480000D02*
X26092500Y-8520000D01*
X27285000Y-8680000D02*
X27325000Y-8720000D01*
X27325000Y-8680000D02*
X27285000Y-8720000D01*
X28237500Y-8880000D02*
X28277500Y-8920000D01*
X28277500Y-8880000D02*
X28237500Y-8920000D01*
X18072500Y-6058500D02*
G75*
G03*
X18072500Y-6058500I-45000J0D01*
G01*
X18072500Y-6308500D02*
G75*
G03*
X18072500Y-6308500I-45000J0D01*
G01*
X18072500Y-6558500D02*
G75*
G03*
X18072500Y-6558500I-45000J0D01*
G01*
X18072500Y-6808500D02*
G75*
G03*
X18072500Y-6808500I-45000J0D01*
G01*
X18072500Y-7058500D02*
G75*
G03*
X18072500Y-7058500I-45000J0D01*
G01*
X19902500Y-6058500D02*
G75*
G03*
X19902500Y-6058500I-45000J0D01*
G01*
X19902500Y-6308500D02*
G75*
G03*
X19902500Y-6308500I-45000J0D01*
G01*
X19902500Y-6558500D02*
G75*
G03*
X19902500Y-6558500I-45000J0D01*
G01*
X19902500Y-6808500D02*
G75*
G03*
X19902500Y-6808500I-45000J0D01*
G01*
X19902500Y-7058500D02*
G75*
G03*
X19902500Y-7058500I-45000J0D01*
G01*
X23272500Y-6058500D02*
G75*
G03*
X23272500Y-6058500I-45000J0D01*
G01*
X23272500Y-6308500D02*
G75*
G03*
X23272500Y-6308500I-45000J0D01*
G01*
X23272500Y-6558500D02*
G75*
G03*
X23272500Y-6558500I-45000J0D01*
G01*
X23272500Y-6808500D02*
G75*
G03*
X23272500Y-6808500I-45000J0D01*
G01*
X23272500Y-7058500D02*
G75*
G03*
X23272500Y-7058500I-45000J0D01*
G01*
X25102500Y-6058500D02*
G75*
G03*
X25102500Y-6058500I-45000J0D01*
G01*
X25102500Y-6308500D02*
G75*
G03*
X25102500Y-6308500I-45000J0D01*
G01*
X25102500Y-6558500D02*
G75*
G03*
X25102500Y-6558500I-45000J0D01*
G01*
X25102500Y-6808500D02*
G75*
G03*
X25102500Y-6808500I-45000J0D01*
G01*
X25102500Y-7058500D02*
G75*
G03*
X25102500Y-7058500I-45000J0D01*
G01*
X6227500Y-6863500D02*
X6227500Y-6963500D01*
X6177500Y-6913500D02*
X6277500Y-6913500D01*
X6477500Y-6863500D02*
X6477500Y-6963500D01*
X6427500Y-6913500D02*
X6527500Y-6913500D01*
X6727500Y-6863500D02*
X6727500Y-6963500D01*
X6677500Y-6913500D02*
X6777500Y-6913500D01*
X8132500Y-6863500D02*
X8132500Y-6963500D01*
X8082500Y-6913500D02*
X8182500Y-6913500D01*
X8382500Y-6863500D02*
X8382500Y-6963500D01*
X8332500Y-6913500D02*
X8432500Y-6913500D01*
X8632500Y-6863500D02*
X8632500Y-6963500D01*
X8582500Y-6913500D02*
X8682500Y-6913500D01*
X10037500Y-6863500D02*
X10037500Y-6963500D01*
X9987500Y-6913500D02*
X10087500Y-6913500D01*
X10287500Y-6863500D02*
X10287500Y-6963500D01*
X10237500Y-6913500D02*
X10337500Y-6913500D01*
X10537500Y-6863500D02*
X10537500Y-6963500D01*
X10487500Y-6913500D02*
X10587500Y-6913500D01*
X11942500Y-6863500D02*
X11942500Y-6963500D01*
X11892500Y-6913500D02*
X11992500Y-6913500D01*
X12192500Y-6863500D02*
X12192500Y-6963500D01*
X12142500Y-6913500D02*
X12242500Y-6913500D01*
X12442500Y-6863500D02*
X12442500Y-6963500D01*
X12392500Y-6913500D02*
X12492500Y-6913500D01*
X852391Y-5669891D02*
X852391Y-5592109D01*
X774609Y-5592109D01*
X774609Y-5669891D01*
X852391Y-5669891D01*
X852391Y-7193891D02*
X852391Y-7116109D01*
X774609Y-7116109D01*
X774609Y-7193891D01*
X852391Y-7193891D01*
X1106391Y-5669891D02*
X1106391Y-5592109D01*
X1028609Y-5592109D01*
X1028609Y-5669891D01*
X1106391Y-5669891D01*
X1106391Y-7193891D02*
X1106391Y-7116109D01*
X1028609Y-7116109D01*
X1028609Y-7193891D01*
X1106391Y-7193891D01*
X1360391Y-5669891D02*
X1360391Y-5592109D01*
X1282609Y-5592109D01*
X1282609Y-5669891D01*
X1360391Y-5669891D01*
X1360391Y-7193891D02*
X1360391Y-7116109D01*
X1282609Y-7116109D01*
X1282609Y-7193891D01*
X1360391Y-7193891D01*
X1614391Y-5669891D02*
X1614391Y-5592109D01*
X1536609Y-5592109D01*
X1536609Y-5669891D01*
X1614391Y-5669891D01*
X1614391Y-7193891D02*
X1614391Y-7116109D01*
X1536609Y-7116109D01*
X1536609Y-7193891D01*
X1614391Y-7193891D01*
X1868391Y-5669891D02*
X1868391Y-5592109D01*
X1790609Y-5592109D01*
X1790609Y-5669891D01*
X1868391Y-5669891D01*
X1868391Y-7193891D02*
X1868391Y-7116109D01*
X1790609Y-7116109D01*
X1790609Y-7193891D01*
X1868391Y-7193891D01*
X2122391Y-5669891D02*
X2122391Y-5592109D01*
X2044609Y-5592109D01*
X2044609Y-5669891D01*
X2122391Y-5669891D01*
X2122391Y-7193891D02*
X2122391Y-7116109D01*
X2044609Y-7116109D01*
X2044609Y-7193891D01*
X2122391Y-7193891D01*
X2376391Y-5669891D02*
X2376391Y-5592109D01*
X2298609Y-5592109D01*
X2298609Y-5669891D01*
X2376391Y-5669891D01*
X2376391Y-7193891D02*
X2376391Y-7116109D01*
X2298609Y-7116109D01*
X2298609Y-7193891D01*
X2376391Y-7193891D01*
X2630391Y-5669891D02*
X2630391Y-5592109D01*
X2552609Y-5592109D01*
X2552609Y-5669891D01*
X2630391Y-5669891D01*
X2630391Y-7193891D02*
X2630391Y-7116109D01*
X2552609Y-7116109D01*
X2552609Y-7193891D01*
X2630391Y-7193891D01*
X2884391Y-5669891D02*
X2884391Y-5592109D01*
X2806609Y-5592109D01*
X2806609Y-5669891D01*
X2884391Y-5669891D01*
X2884391Y-7193891D02*
X2884391Y-7116109D01*
X2806609Y-7116109D01*
X2806609Y-7193891D01*
X2884391Y-7193891D01*
X3138391Y-5669891D02*
X3138391Y-5592109D01*
X3060609Y-5592109D01*
X3060609Y-5669891D01*
X3138391Y-5669891D01*
X3138391Y-7193891D02*
X3138391Y-7116109D01*
X3060609Y-7116109D01*
X3060609Y-7193891D01*
X3138391Y-7193891D01*
X3392391Y-5669891D02*
X3392391Y-5592109D01*
X3314609Y-5592109D01*
X3314609Y-5669891D01*
X3392391Y-5669891D01*
X3392391Y-7193891D02*
X3392391Y-7116109D01*
X3314609Y-7116109D01*
X3314609Y-7193891D01*
X3392391Y-7193891D01*
X3646391Y-5669891D02*
X3646391Y-5592109D01*
X3568609Y-5592109D01*
X3568609Y-5669891D01*
X3646391Y-5669891D01*
X3646391Y-7193891D02*
X3646391Y-7116109D01*
X3568609Y-7116109D01*
X3568609Y-7193891D01*
X3646391Y-7193891D01*
X2157500Y-11896000D02*
X2232500Y-11821000D01*
X2157500Y-11746000D01*
X2082500Y-11821000D01*
X2157500Y-11896000D01*
X2792500Y-11642000D02*
X2867500Y-11567000D01*
X2792500Y-11492000D01*
X2717500Y-11567000D01*
X2792500Y-11642000D01*
X3110000Y-9991000D02*
X3185000Y-9916000D01*
X3110000Y-9841000D01*
X3035000Y-9916000D01*
X3110000Y-9991000D01*
X3745000Y-9737000D02*
X3820000Y-9662000D01*
X3745000Y-9587000D01*
X3670000Y-9662000D01*
X3745000Y-9737000D01*
X4062500Y-11896000D02*
X4137500Y-11821000D01*
X4062500Y-11746000D01*
X3987500Y-11821000D01*
X4062500Y-11896000D01*
X4697500Y-11642000D02*
X4772500Y-11567000D01*
X4697500Y-11492000D01*
X4622500Y-11567000D01*
X4697500Y-11642000D01*
X5015000Y-9991000D02*
X5090000Y-9916000D01*
X5015000Y-9841000D01*
X4940000Y-9916000D01*
X5015000Y-9991000D01*
X5650000Y-9737000D02*
X5725000Y-9662000D01*
X5650000Y-9587000D01*
X5575000Y-9662000D01*
X5650000Y-9737000D01*
X5967500Y-11896000D02*
X6042500Y-11821000D01*
X5967500Y-11746000D01*
X5892500Y-11821000D01*
X5967500Y-11896000D01*
X6602500Y-11642000D02*
X6677500Y-11567000D01*
X6602500Y-11492000D01*
X6527500Y-11567000D01*
X6602500Y-11642000D01*
X7872500Y-11896000D02*
X7947500Y-11821000D01*
X7872500Y-11746000D01*
X7797500Y-11821000D01*
X7872500Y-11896000D01*
X8507500Y-11642000D02*
X8582500Y-11567000D01*
X8507500Y-11492000D01*
X8432500Y-11567000D01*
X8507500Y-11642000D01*
X8825000Y-9991000D02*
X8900000Y-9916000D01*
X8825000Y-9841000D01*
X8750000Y-9916000D01*
X8825000Y-9991000D01*
X9460000Y-9737000D02*
X9535000Y-9662000D01*
X9460000Y-9587000D01*
X9385000Y-9662000D01*
X9460000Y-9737000D01*
X9777500Y-11896000D02*
X9852500Y-11821000D01*
X9777500Y-11746000D01*
X9702500Y-11821000D01*
X9777500Y-11896000D01*
X10412500Y-11642000D02*
X10487500Y-11567000D01*
X10412500Y-11492000D01*
X10337500Y-11567000D01*
X10412500Y-11642000D01*
X10730000Y-9991000D02*
X10805000Y-9916000D01*
X10730000Y-9841000D01*
X10655000Y-9916000D01*
X10730000Y-9991000D01*
X11365000Y-9737000D02*
X11440000Y-9662000D01*
X11365000Y-9587000D01*
X11290000Y-9662000D01*
X11365000Y-9737000D01*
X11682500Y-11896000D02*
X11757500Y-11821000D01*
X11682500Y-11746000D01*
X11607500Y-11821000D01*
X11682500Y-11896000D01*
X12317500Y-11642000D02*
X12392500Y-11567000D01*
X12317500Y-11492000D01*
X12242500Y-11567000D01*
X12317500Y-11642000D01*
X12635000Y-9991000D02*
X12710000Y-9916000D01*
X12635000Y-9841000D01*
X12560000Y-9916000D01*
X12635000Y-9991000D01*
X13270000Y-9737000D02*
X13345000Y-9662000D01*
X13270000Y-9587000D01*
X13195000Y-9662000D01*
X13270000Y-9737000D01*
X13587500Y-11896000D02*
X13662500Y-11821000D01*
X13587500Y-11746000D01*
X13512500Y-11821000D01*
X13587500Y-11896000D01*
X14222500Y-11642000D02*
X14297500Y-11567000D01*
X14222500Y-11492000D01*
X14147500Y-11567000D01*
X14222500Y-11642000D01*
X15492500Y-11896000D02*
X15567500Y-11821000D01*
X15492500Y-11746000D01*
X15417500Y-11821000D01*
X15492500Y-11896000D01*
X16127500Y-11642000D02*
X16202500Y-11567000D01*
X16127500Y-11492000D01*
X16052500Y-11567000D01*
X16127500Y-11642000D01*
X16445000Y-9991000D02*
X16520000Y-9916000D01*
X16445000Y-9841000D01*
X16370000Y-9916000D01*
X16445000Y-9991000D01*
X17080000Y-9737000D02*
X17155000Y-9662000D01*
X17080000Y-9587000D01*
X17005000Y-9662000D01*
X17080000Y-9737000D01*
X17397500Y-11896000D02*
X17472500Y-11821000D01*
X17397500Y-11746000D01*
X17322500Y-11821000D01*
X17397500Y-11896000D01*
X18032500Y-11642000D02*
X18107500Y-11567000D01*
X18032500Y-11492000D01*
X17957500Y-11567000D01*
X18032500Y-11642000D01*
X18350000Y-9991000D02*
X18425000Y-9916000D01*
X18350000Y-9841000D01*
X18275000Y-9916000D01*
X18350000Y-9991000D01*
X18985000Y-9737000D02*
X19060000Y-9662000D01*
X18985000Y-9587000D01*
X18910000Y-9662000D01*
X18985000Y-9737000D01*
X19302500Y-11896000D02*
X19377500Y-11821000D01*
X19302500Y-11746000D01*
X19227500Y-11821000D01*
X19302500Y-11896000D01*
X19937500Y-11642000D02*
X20012500Y-11567000D01*
X19937500Y-11492000D01*
X19862500Y-11567000D01*
X19937500Y-11642000D01*
X21207500Y-11896000D02*
X21282500Y-11821000D01*
X21207500Y-11746000D01*
X21132500Y-11821000D01*
X21207500Y-11896000D01*
X21842500Y-11642000D02*
X21917500Y-11567000D01*
X21842500Y-11492000D01*
X21767500Y-11567000D01*
X21842500Y-11642000D01*
X22160000Y-9991000D02*
X22235000Y-9916000D01*
X22160000Y-9841000D01*
X22085000Y-9916000D01*
X22160000Y-9991000D01*
X22795000Y-9737000D02*
X22870000Y-9662000D01*
X22795000Y-9587000D01*
X22720000Y-9662000D01*
X22795000Y-9737000D01*
X23112500Y-11896000D02*
X23187500Y-11821000D01*
X23112500Y-11746000D01*
X23037500Y-11821000D01*
X23112500Y-11896000D01*
X23747500Y-11642000D02*
X23822500Y-11567000D01*
X23747500Y-11492000D01*
X23672500Y-11567000D01*
X23747500Y-11642000D01*
X24065000Y-9991000D02*
X24140000Y-9916000D01*
X24065000Y-9841000D01*
X23990000Y-9916000D01*
X24065000Y-9991000D01*
X24700000Y-9737000D02*
X24775000Y-9662000D01*
X24700000Y-9587000D01*
X24625000Y-9662000D01*
X24700000Y-9737000D01*
X25017500Y-11896000D02*
X25092500Y-11821000D01*
X25017500Y-11746000D01*
X24942500Y-11821000D01*
X25017500Y-11896000D01*
X25652500Y-11642000D02*
X25727500Y-11567000D01*
X25652500Y-11492000D01*
X25577500Y-11567000D01*
X25652500Y-11642000D01*
X25970000Y-9991000D02*
X26045000Y-9916000D01*
X25970000Y-9841000D01*
X25895000Y-9916000D01*
X25970000Y-9991000D01*
X26605000Y-9737000D02*
X26680000Y-9662000D01*
X26605000Y-9587000D01*
X26530000Y-9662000D01*
X26605000Y-9737000D01*
X26922500Y-11896000D02*
X26997500Y-11821000D01*
X26922500Y-11746000D01*
X26847500Y-11821000D01*
X26922500Y-11896000D01*
X27557500Y-11642000D02*
X27632500Y-11567000D01*
X27557500Y-11492000D01*
X27482500Y-11567000D01*
X27557500Y-11642000D01*
D12*
X918928Y-13549214D02*
X918928Y-13249214D01*
X990357Y-13249214D01*
X1033214Y-13263500D01*
X1061786Y-13292071D01*
X1076071Y-13320643D01*
X1090357Y-13377786D01*
X1090357Y-13420643D01*
X1076071Y-13477786D01*
X1061786Y-13506357D01*
X1033214Y-13534929D01*
X990357Y-13549214D01*
X918928Y-13549214D01*
X1218928Y-13549214D02*
X1218928Y-13349214D01*
X1218928Y-13406357D02*
X1233214Y-13377786D01*
X1247500Y-13363500D01*
X1276071Y-13349214D01*
X1304643Y-13349214D01*
X1404643Y-13549214D02*
X1404643Y-13349214D01*
X1404643Y-13249214D02*
X1390357Y-13263500D01*
X1404643Y-13277786D01*
X1418928Y-13263500D01*
X1404643Y-13249214D01*
X1404643Y-13277786D01*
X1590357Y-13549214D02*
X1561786Y-13534929D01*
X1547500Y-13506357D01*
X1547500Y-13249214D01*
X1747500Y-13549214D02*
X1718928Y-13534929D01*
X1704643Y-13506357D01*
X1704643Y-13249214D01*
X2090357Y-13549214D02*
X2090357Y-13249214D01*
X2190357Y-13463500D01*
X2290357Y-13249214D01*
X2290357Y-13549214D01*
X2561786Y-13549214D02*
X2561786Y-13392071D01*
X2547500Y-13363500D01*
X2518928Y-13349214D01*
X2461786Y-13349214D01*
X2433214Y-13363500D01*
X2561786Y-13534929D02*
X2533214Y-13549214D01*
X2461786Y-13549214D01*
X2433214Y-13534929D01*
X2418928Y-13506357D01*
X2418928Y-13477786D01*
X2433214Y-13449214D01*
X2461786Y-13434929D01*
X2533214Y-13434929D01*
X2561786Y-13420643D01*
X2704643Y-13349214D02*
X2704643Y-13649214D01*
X2704643Y-13363500D02*
X2733214Y-13349214D01*
X2790357Y-13349214D01*
X2818928Y-13363500D01*
X2833214Y-13377786D01*
X2847500Y-13406357D01*
X2847500Y-13492071D01*
X2833214Y-13520643D01*
X2818928Y-13534929D01*
X2790357Y-13549214D01*
X2733214Y-13549214D01*
X2704643Y-13534929D01*
X2976071Y-13520643D02*
X2990357Y-13534929D01*
X2976071Y-13549214D01*
X2961786Y-13534929D01*
X2976071Y-13520643D01*
X2976071Y-13549214D01*
X2976071Y-13363500D02*
X2990357Y-13377786D01*
X2976071Y-13392071D01*
X2961786Y-13377786D01*
X2976071Y-13363500D01*
X2976071Y-13392071D01*
X592500Y-14023500D02*
X632500Y-14063500D01*
X632500Y-14023500D02*
X592500Y-14063500D01*
X976071Y-13879214D02*
X1004643Y-13879214D01*
X1033214Y-13893500D01*
X1047500Y-13907786D01*
X1061786Y-13936357D01*
X1076071Y-13993500D01*
X1076071Y-14064929D01*
X1061786Y-14122071D01*
X1047500Y-14150643D01*
X1033214Y-14164929D01*
X1004643Y-14179214D01*
X976071Y-14179214D01*
X947500Y-14164929D01*
X933214Y-14150643D01*
X918928Y-14122071D01*
X904643Y-14064929D01*
X904643Y-13993500D01*
X918928Y-13936357D01*
X933214Y-13907786D01*
X947500Y-13893500D01*
X976071Y-13879214D01*
X1204643Y-14150643D02*
X1218928Y-14164929D01*
X1204643Y-14179214D01*
X1190357Y-14164929D01*
X1204643Y-14150643D01*
X1204643Y-14179214D01*
X1476071Y-13979214D02*
X1476071Y-14179214D01*
X1404643Y-13864929D02*
X1333214Y-14079214D01*
X1518928Y-14079214D01*
X1690357Y-13879214D02*
X1718928Y-13879214D01*
X1747500Y-13893500D01*
X1761786Y-13907786D01*
X1776071Y-13936357D01*
X1790357Y-13993500D01*
X1790357Y-14064929D01*
X1776071Y-14122071D01*
X1761786Y-14150643D01*
X1747500Y-14164929D01*
X1718928Y-14179214D01*
X1690357Y-14179214D01*
X1661786Y-14164929D01*
X1647500Y-14150643D01*
X1633214Y-14122071D01*
X1618928Y-14064929D01*
X1618928Y-13993500D01*
X1633214Y-13936357D01*
X1647500Y-13907786D01*
X1661786Y-13893500D01*
X1690357Y-13879214D01*
X1976071Y-13879214D02*
X2004643Y-13879214D01*
X2033214Y-13893500D01*
X2047500Y-13907786D01*
X2061786Y-13936357D01*
X2076071Y-13993500D01*
X2076071Y-14064929D01*
X2061786Y-14122071D01*
X2047500Y-14150643D01*
X2033214Y-14164929D01*
X2004643Y-14179214D01*
X1976071Y-14179214D01*
X1947500Y-14164929D01*
X1933214Y-14150643D01*
X1918928Y-14122071D01*
X1904643Y-14064929D01*
X1904643Y-13993500D01*
X1918928Y-13936357D01*
X1933214Y-13907786D01*
X1947500Y-13893500D01*
X1976071Y-13879214D01*
X2204643Y-14179214D02*
X2204643Y-13979214D01*
X2204643Y-14007786D02*
X2218928Y-13993500D01*
X2247500Y-13979214D01*
X2290357Y-13979214D01*
X2318928Y-13993500D01*
X2333214Y-14022071D01*
X2333214Y-14179214D01*
X2333214Y-14022071D02*
X2347500Y-13993500D01*
X2376071Y-13979214D01*
X2418928Y-13979214D01*
X2447500Y-13993500D01*
X2461786Y-14022071D01*
X2461786Y-14179214D01*
X2604643Y-14179214D02*
X2604643Y-13979214D01*
X2604643Y-14007786D02*
X2618928Y-13993500D01*
X2647500Y-13979214D01*
X2690357Y-13979214D01*
X2718928Y-13993500D01*
X2733214Y-14022071D01*
X2733214Y-14179214D01*
X2733214Y-14022071D02*
X2747500Y-13993500D01*
X2776071Y-13979214D01*
X2818928Y-13979214D01*
X2847500Y-13993500D01*
X2861786Y-14022071D01*
X2861786Y-14179214D01*
X3447500Y-13864929D02*
X3190357Y-14250643D01*
X3833214Y-13879214D02*
X3861786Y-13879214D01*
X3890357Y-13893500D01*
X3904643Y-13907786D01*
X3918928Y-13936357D01*
X3933214Y-13993500D01*
X3933214Y-14064929D01*
X3918928Y-14122071D01*
X3904643Y-14150643D01*
X3890357Y-14164929D01*
X3861786Y-14179214D01*
X3833214Y-14179214D01*
X3804643Y-14164929D01*
X3790357Y-14150643D01*
X3776071Y-14122071D01*
X3761786Y-14064929D01*
X3761786Y-13993500D01*
X3776071Y-13936357D01*
X3790357Y-13907786D01*
X3804643Y-13893500D01*
X3833214Y-13879214D01*
X4061786Y-14150643D02*
X4076071Y-14164929D01*
X4061786Y-14179214D01*
X4047500Y-14164929D01*
X4061786Y-14150643D01*
X4061786Y-14179214D01*
X4261786Y-13879214D02*
X4290357Y-13879214D01*
X4318928Y-13893500D01*
X4333214Y-13907786D01*
X4347500Y-13936357D01*
X4361786Y-13993500D01*
X4361786Y-14064929D01*
X4347500Y-14122071D01*
X4333214Y-14150643D01*
X4318928Y-14164929D01*
X4290357Y-14179214D01*
X4261786Y-14179214D01*
X4233214Y-14164929D01*
X4218928Y-14150643D01*
X4204643Y-14122071D01*
X4190357Y-14064929D01*
X4190357Y-13993500D01*
X4204643Y-13936357D01*
X4218928Y-13907786D01*
X4233214Y-13893500D01*
X4261786Y-13879214D01*
X4647500Y-14179214D02*
X4476071Y-14179214D01*
X4561786Y-14179214D02*
X4561786Y-13879214D01*
X4533214Y-13922071D01*
X4504643Y-13950643D01*
X4476071Y-13964929D01*
X4918928Y-13879214D02*
X4776071Y-13879214D01*
X4761786Y-14022071D01*
X4776071Y-14007786D01*
X4804643Y-13993500D01*
X4876071Y-13993500D01*
X4904643Y-14007786D01*
X4918928Y-14022071D01*
X4933214Y-14050643D01*
X4933214Y-14122071D01*
X4918928Y-14150643D01*
X4904643Y-14164929D01*
X4876071Y-14179214D01*
X4804643Y-14179214D01*
X4776071Y-14164929D01*
X4761786Y-14150643D01*
X5033214Y-13879214D02*
X5233214Y-13879214D01*
X5104643Y-14179214D01*
X5333214Y-13879214D02*
X5333214Y-13936357D01*
X5447500Y-13879214D02*
X5447500Y-13936357D01*
X5890357Y-14293500D02*
X5876071Y-14279214D01*
X5847500Y-14236357D01*
X5833214Y-14207786D01*
X5818928Y-14164929D01*
X5804643Y-14093500D01*
X5804643Y-14036357D01*
X5818928Y-13964929D01*
X5833214Y-13922071D01*
X5847500Y-13893500D01*
X5876071Y-13850643D01*
X5890357Y-13836357D01*
X6018928Y-14179214D02*
X6076071Y-14179214D01*
X6104643Y-14164929D01*
X6118928Y-14150643D01*
X6147500Y-14107786D01*
X6161786Y-14050643D01*
X6161786Y-13936357D01*
X6147500Y-13907786D01*
X6133214Y-13893500D01*
X6104643Y-13879214D01*
X6047500Y-13879214D01*
X6018928Y-13893500D01*
X6004643Y-13907786D01*
X5990357Y-13936357D01*
X5990357Y-14007786D01*
X6004643Y-14036357D01*
X6018928Y-14050643D01*
X6047500Y-14064929D01*
X6104643Y-14064929D01*
X6133214Y-14050643D01*
X6147500Y-14036357D01*
X6161786Y-14007786D01*
X6418928Y-13879214D02*
X6361786Y-13879214D01*
X6333214Y-13893500D01*
X6318928Y-13907786D01*
X6290357Y-13950643D01*
X6276071Y-14007786D01*
X6276071Y-14122071D01*
X6290357Y-14150643D01*
X6304643Y-14164929D01*
X6333214Y-14179214D01*
X6390357Y-14179214D01*
X6418928Y-14164929D01*
X6433214Y-14150643D01*
X6447500Y-14122071D01*
X6447500Y-14050643D01*
X6433214Y-14022071D01*
X6418928Y-14007786D01*
X6390357Y-13993500D01*
X6333214Y-13993500D01*
X6304643Y-14007786D01*
X6290357Y-14022071D01*
X6276071Y-14050643D01*
X6804643Y-14179214D02*
X6804643Y-13879214D01*
X6933214Y-14179214D02*
X6933214Y-14022071D01*
X6918928Y-13993500D01*
X6890357Y-13979214D01*
X6847500Y-13979214D01*
X6818928Y-13993500D01*
X6804643Y-14007786D01*
X7118928Y-14179214D02*
X7090357Y-14164929D01*
X7076071Y-14150643D01*
X7061786Y-14122071D01*
X7061786Y-14036357D01*
X7076071Y-14007786D01*
X7090357Y-13993500D01*
X7118928Y-13979214D01*
X7161786Y-13979214D01*
X7190357Y-13993500D01*
X7204643Y-14007786D01*
X7218928Y-14036357D01*
X7218928Y-14122071D01*
X7204643Y-14150643D01*
X7190357Y-14164929D01*
X7161786Y-14179214D01*
X7118928Y-14179214D01*
X7390357Y-14179214D02*
X7361786Y-14164929D01*
X7347500Y-14136357D01*
X7347500Y-13879214D01*
X7618928Y-14164929D02*
X7590357Y-14179214D01*
X7533214Y-14179214D01*
X7504643Y-14164929D01*
X7490357Y-14136357D01*
X7490357Y-14022071D01*
X7504643Y-13993500D01*
X7533214Y-13979214D01*
X7590357Y-13979214D01*
X7618928Y-13993500D01*
X7633214Y-14022071D01*
X7633214Y-14050643D01*
X7490357Y-14079214D01*
X7747500Y-14164929D02*
X7776071Y-14179214D01*
X7833214Y-14179214D01*
X7861786Y-14164929D01*
X7876071Y-14136357D01*
X7876071Y-14122071D01*
X7861786Y-14093500D01*
X7833214Y-14079214D01*
X7790357Y-14079214D01*
X7761786Y-14064929D01*
X7747500Y-14036357D01*
X7747500Y-14022071D01*
X7761786Y-13993500D01*
X7790357Y-13979214D01*
X7833214Y-13979214D01*
X7861786Y-13993500D01*
X7976071Y-14293500D02*
X7990357Y-14279214D01*
X8018928Y-14236357D01*
X8033214Y-14207786D01*
X8047500Y-14164929D01*
X8061786Y-14093500D01*
X8061786Y-14036357D01*
X8047500Y-13964929D01*
X8033214Y-13922071D01*
X8018928Y-13893500D01*
X7990357Y-13850643D01*
X7976071Y-13836357D01*
X632500Y-14439500D02*
G75*
G03*
X632500Y-14439500I-45000J0D01*
G01*
X976071Y-14275214D02*
X1004643Y-14275214D01*
X1033214Y-14289500D01*
X1047500Y-14303786D01*
X1061786Y-14332357D01*
X1076071Y-14389500D01*
X1076071Y-14460929D01*
X1061786Y-14518071D01*
X1047500Y-14546643D01*
X1033214Y-14560929D01*
X1004643Y-14575214D01*
X976071Y-14575214D01*
X947500Y-14560929D01*
X933214Y-14546643D01*
X918928Y-14518071D01*
X904643Y-14460929D01*
X904643Y-14389500D01*
X918928Y-14332357D01*
X933214Y-14303786D01*
X947500Y-14289500D01*
X976071Y-14275214D01*
X1204643Y-14546643D02*
X1218928Y-14560929D01*
X1204643Y-14575214D01*
X1190357Y-14560929D01*
X1204643Y-14546643D01*
X1204643Y-14575214D01*
X1361786Y-14575214D02*
X1418928Y-14575214D01*
X1447500Y-14560929D01*
X1461786Y-14546643D01*
X1490357Y-14503786D01*
X1504643Y-14446643D01*
X1504643Y-14332357D01*
X1490357Y-14303786D01*
X1476071Y-14289500D01*
X1447500Y-14275214D01*
X1390357Y-14275214D01*
X1361786Y-14289500D01*
X1347500Y-14303786D01*
X1333214Y-14332357D01*
X1333214Y-14403786D01*
X1347500Y-14432357D01*
X1361786Y-14446643D01*
X1390357Y-14460929D01*
X1447500Y-14460929D01*
X1476071Y-14446643D01*
X1490357Y-14432357D01*
X1504643Y-14403786D01*
X1690357Y-14275214D02*
X1718928Y-14275214D01*
X1747500Y-14289500D01*
X1761786Y-14303786D01*
X1776071Y-14332357D01*
X1790357Y-14389500D01*
X1790357Y-14460929D01*
X1776071Y-14518071D01*
X1761786Y-14546643D01*
X1747500Y-14560929D01*
X1718928Y-14575214D01*
X1690357Y-14575214D01*
X1661786Y-14560929D01*
X1647500Y-14546643D01*
X1633214Y-14518071D01*
X1618928Y-14460929D01*
X1618928Y-14389500D01*
X1633214Y-14332357D01*
X1647500Y-14303786D01*
X1661786Y-14289500D01*
X1690357Y-14275214D01*
X1976071Y-14275214D02*
X2004643Y-14275214D01*
X2033214Y-14289500D01*
X2047500Y-14303786D01*
X2061786Y-14332357D01*
X2076071Y-14389500D01*
X2076071Y-14460929D01*
X2061786Y-14518071D01*
X2047500Y-14546643D01*
X2033214Y-14560929D01*
X2004643Y-14575214D01*
X1976071Y-14575214D01*
X1947500Y-14560929D01*
X1933214Y-14546643D01*
X1918928Y-14518071D01*
X1904643Y-14460929D01*
X1904643Y-14389500D01*
X1918928Y-14332357D01*
X1933214Y-14303786D01*
X1947500Y-14289500D01*
X1976071Y-14275214D01*
X2204643Y-14575214D02*
X2204643Y-14375214D01*
X2204643Y-14403786D02*
X2218928Y-14389500D01*
X2247500Y-14375214D01*
X2290357Y-14375214D01*
X2318928Y-14389500D01*
X2333214Y-14418071D01*
X2333214Y-14575214D01*
X2333214Y-14418071D02*
X2347500Y-14389500D01*
X2376071Y-14375214D01*
X2418928Y-14375214D01*
X2447500Y-14389500D01*
X2461786Y-14418071D01*
X2461786Y-14575214D01*
X2604643Y-14575214D02*
X2604643Y-14375214D01*
X2604643Y-14403786D02*
X2618928Y-14389500D01*
X2647500Y-14375214D01*
X2690357Y-14375214D01*
X2718928Y-14389500D01*
X2733214Y-14418071D01*
X2733214Y-14575214D01*
X2733214Y-14418071D02*
X2747500Y-14389500D01*
X2776071Y-14375214D01*
X2818928Y-14375214D01*
X2847500Y-14389500D01*
X2861786Y-14418071D01*
X2861786Y-14575214D01*
X3447500Y-14260929D02*
X3190357Y-14646643D01*
X3833214Y-14275214D02*
X3861786Y-14275214D01*
X3890357Y-14289500D01*
X3904643Y-14303786D01*
X3918928Y-14332357D01*
X3933214Y-14389500D01*
X3933214Y-14460929D01*
X3918928Y-14518071D01*
X3904643Y-14546643D01*
X3890357Y-14560929D01*
X3861786Y-14575214D01*
X3833214Y-14575214D01*
X3804643Y-14560929D01*
X3790357Y-14546643D01*
X3776071Y-14518071D01*
X3761786Y-14460929D01*
X3761786Y-14389500D01*
X3776071Y-14332357D01*
X3790357Y-14303786D01*
X3804643Y-14289500D01*
X3833214Y-14275214D01*
X4061786Y-14546643D02*
X4076071Y-14560929D01*
X4061786Y-14575214D01*
X4047500Y-14560929D01*
X4061786Y-14546643D01*
X4061786Y-14575214D01*
X4261786Y-14275214D02*
X4290357Y-14275214D01*
X4318928Y-14289500D01*
X4333214Y-14303786D01*
X4347500Y-14332357D01*
X4361786Y-14389500D01*
X4361786Y-14460929D01*
X4347500Y-14518071D01*
X4333214Y-14546643D01*
X4318928Y-14560929D01*
X4290357Y-14575214D01*
X4261786Y-14575214D01*
X4233214Y-14560929D01*
X4218928Y-14546643D01*
X4204643Y-14518071D01*
X4190357Y-14460929D01*
X4190357Y-14389500D01*
X4204643Y-14332357D01*
X4218928Y-14303786D01*
X4233214Y-14289500D01*
X4261786Y-14275214D01*
X4461786Y-14275214D02*
X4647500Y-14275214D01*
X4547500Y-14389500D01*
X4590357Y-14389500D01*
X4618928Y-14403786D01*
X4633214Y-14418071D01*
X4647500Y-14446643D01*
X4647500Y-14518071D01*
X4633214Y-14546643D01*
X4618928Y-14560929D01*
X4590357Y-14575214D01*
X4504643Y-14575214D01*
X4476071Y-14560929D01*
X4461786Y-14546643D01*
X4918928Y-14275214D02*
X4776071Y-14275214D01*
X4761786Y-14418071D01*
X4776071Y-14403786D01*
X4804643Y-14389500D01*
X4876071Y-14389500D01*
X4904643Y-14403786D01*
X4918928Y-14418071D01*
X4933214Y-14446643D01*
X4933214Y-14518071D01*
X4918928Y-14546643D01*
X4904643Y-14560929D01*
X4876071Y-14575214D01*
X4804643Y-14575214D01*
X4776071Y-14560929D01*
X4761786Y-14546643D01*
X5190357Y-14375214D02*
X5190357Y-14575214D01*
X5118928Y-14260929D02*
X5047500Y-14475214D01*
X5233214Y-14475214D01*
X5333214Y-14275214D02*
X5333214Y-14332357D01*
X5447500Y-14275214D02*
X5447500Y-14332357D01*
X5890357Y-14689500D02*
X5876071Y-14675214D01*
X5847500Y-14632357D01*
X5833214Y-14603786D01*
X5818928Y-14560929D01*
X5804643Y-14489500D01*
X5804643Y-14432357D01*
X5818928Y-14360929D01*
X5833214Y-14318071D01*
X5847500Y-14289500D01*
X5876071Y-14246643D01*
X5890357Y-14232357D01*
X5990357Y-14303786D02*
X6004643Y-14289500D01*
X6033214Y-14275214D01*
X6104643Y-14275214D01*
X6133214Y-14289500D01*
X6147500Y-14303786D01*
X6161786Y-14332357D01*
X6161786Y-14360929D01*
X6147500Y-14403786D01*
X5976071Y-14575214D01*
X6161786Y-14575214D01*
X6347500Y-14275214D02*
X6376071Y-14275214D01*
X6404643Y-14289500D01*
X6418928Y-14303786D01*
X6433214Y-14332357D01*
X6447500Y-14389500D01*
X6447500Y-14460929D01*
X6433214Y-14518071D01*
X6418928Y-14546643D01*
X6404643Y-14560929D01*
X6376071Y-14575214D01*
X6347500Y-14575214D01*
X6318928Y-14560929D01*
X6304643Y-14546643D01*
X6290357Y-14518071D01*
X6276071Y-14460929D01*
X6276071Y-14389500D01*
X6290357Y-14332357D01*
X6304643Y-14303786D01*
X6318928Y-14289500D01*
X6347500Y-14275214D01*
X6804643Y-14575214D02*
X6804643Y-14275214D01*
X6933214Y-14575214D02*
X6933214Y-14418071D01*
X6918928Y-14389500D01*
X6890357Y-14375214D01*
X6847500Y-14375214D01*
X6818928Y-14389500D01*
X6804643Y-14403786D01*
X7118928Y-14575214D02*
X7090357Y-14560929D01*
X7076071Y-14546643D01*
X7061786Y-14518071D01*
X7061786Y-14432357D01*
X7076071Y-14403786D01*
X7090357Y-14389500D01*
X7118928Y-14375214D01*
X7161786Y-14375214D01*
X7190357Y-14389500D01*
X7204643Y-14403786D01*
X7218928Y-14432357D01*
X7218928Y-14518071D01*
X7204643Y-14546643D01*
X7190357Y-14560929D01*
X7161786Y-14575214D01*
X7118928Y-14575214D01*
X7390357Y-14575214D02*
X7361786Y-14560929D01*
X7347500Y-14532357D01*
X7347500Y-14275214D01*
X7618928Y-14560929D02*
X7590357Y-14575214D01*
X7533214Y-14575214D01*
X7504643Y-14560929D01*
X7490357Y-14532357D01*
X7490357Y-14418071D01*
X7504643Y-14389500D01*
X7533214Y-14375214D01*
X7590357Y-14375214D01*
X7618928Y-14389500D01*
X7633214Y-14418071D01*
X7633214Y-14446643D01*
X7490357Y-14475214D01*
X7747500Y-14560929D02*
X7776071Y-14575214D01*
X7833214Y-14575214D01*
X7861786Y-14560929D01*
X7876071Y-14532357D01*
X7876071Y-14518071D01*
X7861786Y-14489500D01*
X7833214Y-14475214D01*
X7790357Y-14475214D01*
X7761786Y-14460929D01*
X7747500Y-14432357D01*
X7747500Y-14418071D01*
X7761786Y-14389500D01*
X7790357Y-14375214D01*
X7833214Y-14375214D01*
X7861786Y-14389500D01*
X7976071Y-14689500D02*
X7990357Y-14675214D01*
X8018928Y-14632357D01*
X8033214Y-14603786D01*
X8047500Y-14560929D01*
X8061786Y-14489500D01*
X8061786Y-14432357D01*
X8047500Y-14360929D01*
X8033214Y-14318071D01*
X8018928Y-14289500D01*
X7990357Y-14246643D01*
X7976071Y-14232357D01*
X582500Y-14785500D02*
X582500Y-14885500D01*
X532500Y-14835500D02*
X632500Y-14835500D01*
X1076071Y-14971214D02*
X904643Y-14971214D01*
X990357Y-14971214D02*
X990357Y-14671214D01*
X961786Y-14714071D01*
X933214Y-14742643D01*
X904643Y-14756929D01*
X1204643Y-14942643D02*
X1218928Y-14956929D01*
X1204643Y-14971214D01*
X1190357Y-14956929D01*
X1204643Y-14942643D01*
X1204643Y-14971214D01*
X1404643Y-14671214D02*
X1433214Y-14671214D01*
X1461786Y-14685500D01*
X1476071Y-14699786D01*
X1490357Y-14728357D01*
X1504643Y-14785500D01*
X1504643Y-14856929D01*
X1490357Y-14914071D01*
X1476071Y-14942643D01*
X1461786Y-14956929D01*
X1433214Y-14971214D01*
X1404643Y-14971214D01*
X1376071Y-14956929D01*
X1361786Y-14942643D01*
X1347500Y-14914071D01*
X1333214Y-14856929D01*
X1333214Y-14785500D01*
X1347500Y-14728357D01*
X1361786Y-14699786D01*
X1376071Y-14685500D01*
X1404643Y-14671214D01*
X1690357Y-14671214D02*
X1718928Y-14671214D01*
X1747500Y-14685500D01*
X1761786Y-14699786D01*
X1776071Y-14728357D01*
X1790357Y-14785500D01*
X1790357Y-14856929D01*
X1776071Y-14914071D01*
X1761786Y-14942643D01*
X1747500Y-14956929D01*
X1718928Y-14971214D01*
X1690357Y-14971214D01*
X1661786Y-14956929D01*
X1647500Y-14942643D01*
X1633214Y-14914071D01*
X1618928Y-14856929D01*
X1618928Y-14785500D01*
X1633214Y-14728357D01*
X1647500Y-14699786D01*
X1661786Y-14685500D01*
X1690357Y-14671214D01*
X1976071Y-14671214D02*
X2004643Y-14671214D01*
X2033214Y-14685500D01*
X2047500Y-14699786D01*
X2061786Y-14728357D01*
X2076071Y-14785500D01*
X2076071Y-14856929D01*
X2061786Y-14914071D01*
X2047500Y-14942643D01*
X2033214Y-14956929D01*
X2004643Y-14971214D01*
X1976071Y-14971214D01*
X1947500Y-14956929D01*
X1933214Y-14942643D01*
X1918928Y-14914071D01*
X1904643Y-14856929D01*
X1904643Y-14785500D01*
X1918928Y-14728357D01*
X1933214Y-14699786D01*
X1947500Y-14685500D01*
X1976071Y-14671214D01*
X2204643Y-14971214D02*
X2204643Y-14771214D01*
X2204643Y-14799786D02*
X2218928Y-14785500D01*
X2247500Y-14771214D01*
X2290357Y-14771214D01*
X2318928Y-14785500D01*
X2333214Y-14814071D01*
X2333214Y-14971214D01*
X2333214Y-14814071D02*
X2347500Y-14785500D01*
X2376071Y-14771214D01*
X2418928Y-14771214D01*
X2447500Y-14785500D01*
X2461786Y-14814071D01*
X2461786Y-14971214D01*
X2604643Y-14971214D02*
X2604643Y-14771214D01*
X2604643Y-14799786D02*
X2618928Y-14785500D01*
X2647500Y-14771214D01*
X2690357Y-14771214D01*
X2718928Y-14785500D01*
X2733214Y-14814071D01*
X2733214Y-14971214D01*
X2733214Y-14814071D02*
X2747500Y-14785500D01*
X2776071Y-14771214D01*
X2818928Y-14771214D01*
X2847500Y-14785500D01*
X2861786Y-14814071D01*
X2861786Y-14971214D01*
X3447500Y-14656929D02*
X3190357Y-15042643D01*
X3833214Y-14671214D02*
X3861786Y-14671214D01*
X3890357Y-14685500D01*
X3904643Y-14699786D01*
X3918928Y-14728357D01*
X3933214Y-14785500D01*
X3933214Y-14856929D01*
X3918928Y-14914071D01*
X3904643Y-14942643D01*
X3890357Y-14956929D01*
X3861786Y-14971214D01*
X3833214Y-14971214D01*
X3804643Y-14956929D01*
X3790357Y-14942643D01*
X3776071Y-14914071D01*
X3761786Y-14856929D01*
X3761786Y-14785500D01*
X3776071Y-14728357D01*
X3790357Y-14699786D01*
X3804643Y-14685500D01*
X3833214Y-14671214D01*
X4061786Y-14942643D02*
X4076071Y-14956929D01*
X4061786Y-14971214D01*
X4047500Y-14956929D01*
X4061786Y-14942643D01*
X4061786Y-14971214D01*
X4261786Y-14671214D02*
X4290357Y-14671214D01*
X4318928Y-14685500D01*
X4333214Y-14699786D01*
X4347500Y-14728357D01*
X4361786Y-14785500D01*
X4361786Y-14856929D01*
X4347500Y-14914071D01*
X4333214Y-14942643D01*
X4318928Y-14956929D01*
X4290357Y-14971214D01*
X4261786Y-14971214D01*
X4233214Y-14956929D01*
X4218928Y-14942643D01*
X4204643Y-14914071D01*
X4190357Y-14856929D01*
X4190357Y-14785500D01*
X4204643Y-14728357D01*
X4218928Y-14699786D01*
X4233214Y-14685500D01*
X4261786Y-14671214D01*
X4461786Y-14671214D02*
X4647500Y-14671214D01*
X4547500Y-14785500D01*
X4590357Y-14785500D01*
X4618928Y-14799786D01*
X4633214Y-14814071D01*
X4647500Y-14842643D01*
X4647500Y-14914071D01*
X4633214Y-14942643D01*
X4618928Y-14956929D01*
X4590357Y-14971214D01*
X4504643Y-14971214D01*
X4476071Y-14956929D01*
X4461786Y-14942643D01*
X4790357Y-14971214D02*
X4847500Y-14971214D01*
X4876071Y-14956929D01*
X4890357Y-14942643D01*
X4918928Y-14899786D01*
X4933214Y-14842643D01*
X4933214Y-14728357D01*
X4918928Y-14699786D01*
X4904643Y-14685500D01*
X4876071Y-14671214D01*
X4818928Y-14671214D01*
X4790357Y-14685500D01*
X4776071Y-14699786D01*
X4761786Y-14728357D01*
X4761786Y-14799786D01*
X4776071Y-14828357D01*
X4790357Y-14842643D01*
X4818928Y-14856929D01*
X4876071Y-14856929D01*
X4904643Y-14842643D01*
X4918928Y-14828357D01*
X4933214Y-14799786D01*
X5190357Y-14771214D02*
X5190357Y-14971214D01*
X5118928Y-14656929D02*
X5047500Y-14871214D01*
X5233214Y-14871214D01*
X5333214Y-14671214D02*
X5333214Y-14728357D01*
X5447500Y-14671214D02*
X5447500Y-14728357D01*
X5890357Y-15085500D02*
X5876071Y-15071214D01*
X5847500Y-15028357D01*
X5833214Y-14999786D01*
X5818928Y-14956929D01*
X5804643Y-14885500D01*
X5804643Y-14828357D01*
X5818928Y-14756929D01*
X5833214Y-14714071D01*
X5847500Y-14685500D01*
X5876071Y-14642643D01*
X5890357Y-14628357D01*
X6161786Y-14971214D02*
X5990357Y-14971214D01*
X6076071Y-14971214D02*
X6076071Y-14671214D01*
X6047500Y-14714071D01*
X6018928Y-14742643D01*
X5990357Y-14756929D01*
X6276071Y-14699786D02*
X6290357Y-14685500D01*
X6318928Y-14671214D01*
X6390357Y-14671214D01*
X6418928Y-14685500D01*
X6433214Y-14699786D01*
X6447500Y-14728357D01*
X6447500Y-14756929D01*
X6433214Y-14799786D01*
X6261786Y-14971214D01*
X6447500Y-14971214D01*
X6804643Y-14971214D02*
X6804643Y-14671214D01*
X6933214Y-14971214D02*
X6933214Y-14814071D01*
X6918928Y-14785500D01*
X6890357Y-14771214D01*
X6847500Y-14771214D01*
X6818928Y-14785500D01*
X6804643Y-14799786D01*
X7118928Y-14971214D02*
X7090357Y-14956929D01*
X7076071Y-14942643D01*
X7061786Y-14914071D01*
X7061786Y-14828357D01*
X7076071Y-14799786D01*
X7090357Y-14785500D01*
X7118928Y-14771214D01*
X7161786Y-14771214D01*
X7190357Y-14785500D01*
X7204643Y-14799786D01*
X7218928Y-14828357D01*
X7218928Y-14914071D01*
X7204643Y-14942643D01*
X7190357Y-14956929D01*
X7161786Y-14971214D01*
X7118928Y-14971214D01*
X7390357Y-14971214D02*
X7361786Y-14956929D01*
X7347500Y-14928357D01*
X7347500Y-14671214D01*
X7618928Y-14956929D02*
X7590357Y-14971214D01*
X7533214Y-14971214D01*
X7504643Y-14956929D01*
X7490357Y-14928357D01*
X7490357Y-14814071D01*
X7504643Y-14785500D01*
X7533214Y-14771214D01*
X7590357Y-14771214D01*
X7618928Y-14785500D01*
X7633214Y-14814071D01*
X7633214Y-14842643D01*
X7490357Y-14871214D01*
X7747500Y-14956929D02*
X7776071Y-14971214D01*
X7833214Y-14971214D01*
X7861786Y-14956929D01*
X7876071Y-14928357D01*
X7876071Y-14914071D01*
X7861786Y-14885500D01*
X7833214Y-14871214D01*
X7790357Y-14871214D01*
X7761786Y-14856929D01*
X7747500Y-14828357D01*
X7747500Y-14814071D01*
X7761786Y-14785500D01*
X7790357Y-14771214D01*
X7833214Y-14771214D01*
X7861786Y-14785500D01*
X7976071Y-15085500D02*
X7990357Y-15071214D01*
X8018928Y-15028357D01*
X8033214Y-14999786D01*
X8047500Y-14956929D01*
X8061786Y-14885500D01*
X8061786Y-14828357D01*
X8047500Y-14756929D01*
X8033214Y-14714071D01*
X8018928Y-14685500D01*
X7990357Y-14642643D01*
X7976071Y-14628357D01*
X616391Y-15270391D02*
X616391Y-15192609D01*
X538609Y-15192609D01*
X538609Y-15270391D01*
X616391Y-15270391D01*
X1076071Y-15367214D02*
X904643Y-15367214D01*
X990357Y-15367214D02*
X990357Y-15067214D01*
X961786Y-15110071D01*
X933214Y-15138643D01*
X904643Y-15152929D01*
X1204643Y-15338643D02*
X1218928Y-15352929D01*
X1204643Y-15367214D01*
X1190357Y-15352929D01*
X1204643Y-15338643D01*
X1204643Y-15367214D01*
X1504643Y-15367214D02*
X1333214Y-15367214D01*
X1418928Y-15367214D02*
X1418928Y-15067214D01*
X1390357Y-15110071D01*
X1361786Y-15138643D01*
X1333214Y-15152929D01*
X1690357Y-15067214D02*
X1718928Y-15067214D01*
X1747500Y-15081500D01*
X1761786Y-15095786D01*
X1776071Y-15124357D01*
X1790357Y-15181500D01*
X1790357Y-15252929D01*
X1776071Y-15310071D01*
X1761786Y-15338643D01*
X1747500Y-15352929D01*
X1718928Y-15367214D01*
X1690357Y-15367214D01*
X1661786Y-15352929D01*
X1647500Y-15338643D01*
X1633214Y-15310071D01*
X1618928Y-15252929D01*
X1618928Y-15181500D01*
X1633214Y-15124357D01*
X1647500Y-15095786D01*
X1661786Y-15081500D01*
X1690357Y-15067214D01*
X1976071Y-15067214D02*
X2004643Y-15067214D01*
X2033214Y-15081500D01*
X2047500Y-15095786D01*
X2061786Y-15124357D01*
X2076071Y-15181500D01*
X2076071Y-15252929D01*
X2061786Y-15310071D01*
X2047500Y-15338643D01*
X2033214Y-15352929D01*
X2004643Y-15367214D01*
X1976071Y-15367214D01*
X1947500Y-15352929D01*
X1933214Y-15338643D01*
X1918928Y-15310071D01*
X1904643Y-15252929D01*
X1904643Y-15181500D01*
X1918928Y-15124357D01*
X1933214Y-15095786D01*
X1947500Y-15081500D01*
X1976071Y-15067214D01*
X2204643Y-15367214D02*
X2204643Y-15167214D01*
X2204643Y-15195786D02*
X2218928Y-15181500D01*
X2247500Y-15167214D01*
X2290357Y-15167214D01*
X2318928Y-15181500D01*
X2333214Y-15210071D01*
X2333214Y-15367214D01*
X2333214Y-15210071D02*
X2347500Y-15181500D01*
X2376071Y-15167214D01*
X2418928Y-15167214D01*
X2447500Y-15181500D01*
X2461786Y-15210071D01*
X2461786Y-15367214D01*
X2604643Y-15367214D02*
X2604643Y-15167214D01*
X2604643Y-15195786D02*
X2618928Y-15181500D01*
X2647500Y-15167214D01*
X2690357Y-15167214D01*
X2718928Y-15181500D01*
X2733214Y-15210071D01*
X2733214Y-15367214D01*
X2733214Y-15210071D02*
X2747500Y-15181500D01*
X2776071Y-15167214D01*
X2818928Y-15167214D01*
X2847500Y-15181500D01*
X2861786Y-15210071D01*
X2861786Y-15367214D01*
X3447500Y-15052929D02*
X3190357Y-15438643D01*
X3833214Y-15067214D02*
X3861786Y-15067214D01*
X3890357Y-15081500D01*
X3904643Y-15095786D01*
X3918928Y-15124357D01*
X3933214Y-15181500D01*
X3933214Y-15252929D01*
X3918928Y-15310071D01*
X3904643Y-15338643D01*
X3890357Y-15352929D01*
X3861786Y-15367214D01*
X3833214Y-15367214D01*
X3804643Y-15352929D01*
X3790357Y-15338643D01*
X3776071Y-15310071D01*
X3761786Y-15252929D01*
X3761786Y-15181500D01*
X3776071Y-15124357D01*
X3790357Y-15095786D01*
X3804643Y-15081500D01*
X3833214Y-15067214D01*
X4061786Y-15338643D02*
X4076071Y-15352929D01*
X4061786Y-15367214D01*
X4047500Y-15352929D01*
X4061786Y-15338643D01*
X4061786Y-15367214D01*
X4261786Y-15067214D02*
X4290357Y-15067214D01*
X4318928Y-15081500D01*
X4333214Y-15095786D01*
X4347500Y-15124357D01*
X4361786Y-15181500D01*
X4361786Y-15252929D01*
X4347500Y-15310071D01*
X4333214Y-15338643D01*
X4318928Y-15352929D01*
X4290357Y-15367214D01*
X4261786Y-15367214D01*
X4233214Y-15352929D01*
X4218928Y-15338643D01*
X4204643Y-15310071D01*
X4190357Y-15252929D01*
X4190357Y-15181500D01*
X4204643Y-15124357D01*
X4218928Y-15095786D01*
X4233214Y-15081500D01*
X4261786Y-15067214D01*
X4618928Y-15167214D02*
X4618928Y-15367214D01*
X4547500Y-15052929D02*
X4476071Y-15267214D01*
X4661786Y-15267214D01*
X4747500Y-15067214D02*
X4933214Y-15067214D01*
X4833214Y-15181500D01*
X4876071Y-15181500D01*
X4904643Y-15195786D01*
X4918928Y-15210071D01*
X4933214Y-15238643D01*
X4933214Y-15310071D01*
X4918928Y-15338643D01*
X4904643Y-15352929D01*
X4876071Y-15367214D01*
X4790357Y-15367214D01*
X4761786Y-15352929D01*
X4747500Y-15338643D01*
X5033214Y-15067214D02*
X5218928Y-15067214D01*
X5118928Y-15181500D01*
X5161786Y-15181500D01*
X5190357Y-15195786D01*
X5204643Y-15210071D01*
X5218928Y-15238643D01*
X5218928Y-15310071D01*
X5204643Y-15338643D01*
X5190357Y-15352929D01*
X5161786Y-15367214D01*
X5076071Y-15367214D01*
X5047500Y-15352929D01*
X5033214Y-15338643D01*
X5333214Y-15067214D02*
X5333214Y-15124357D01*
X5447500Y-15067214D02*
X5447500Y-15124357D01*
X5890357Y-15481500D02*
X5876071Y-15467214D01*
X5847500Y-15424357D01*
X5833214Y-15395786D01*
X5818928Y-15352929D01*
X5804643Y-15281500D01*
X5804643Y-15224357D01*
X5818928Y-15152929D01*
X5833214Y-15110071D01*
X5847500Y-15081500D01*
X5876071Y-15038643D01*
X5890357Y-15024357D01*
X5990357Y-15095786D02*
X6004643Y-15081500D01*
X6033214Y-15067214D01*
X6104643Y-15067214D01*
X6133214Y-15081500D01*
X6147500Y-15095786D01*
X6161786Y-15124357D01*
X6161786Y-15152929D01*
X6147500Y-15195786D01*
X5976071Y-15367214D01*
X6161786Y-15367214D01*
X6418928Y-15167214D02*
X6418928Y-15367214D01*
X6347500Y-15052929D02*
X6276071Y-15267214D01*
X6461786Y-15267214D01*
X6804643Y-15367214D02*
X6804643Y-15067214D01*
X6933214Y-15367214D02*
X6933214Y-15210071D01*
X6918928Y-15181500D01*
X6890357Y-15167214D01*
X6847500Y-15167214D01*
X6818928Y-15181500D01*
X6804643Y-15195786D01*
X7118928Y-15367214D02*
X7090357Y-15352929D01*
X7076071Y-15338643D01*
X7061786Y-15310071D01*
X7061786Y-15224357D01*
X7076071Y-15195786D01*
X7090357Y-15181500D01*
X7118928Y-15167214D01*
X7161786Y-15167214D01*
X7190357Y-15181500D01*
X7204643Y-15195786D01*
X7218928Y-15224357D01*
X7218928Y-15310071D01*
X7204643Y-15338643D01*
X7190357Y-15352929D01*
X7161786Y-15367214D01*
X7118928Y-15367214D01*
X7390357Y-15367214D02*
X7361786Y-15352929D01*
X7347500Y-15324357D01*
X7347500Y-15067214D01*
X7618928Y-15352929D02*
X7590357Y-15367214D01*
X7533214Y-15367214D01*
X7504643Y-15352929D01*
X7490357Y-15324357D01*
X7490357Y-15210071D01*
X7504643Y-15181500D01*
X7533214Y-15167214D01*
X7590357Y-15167214D01*
X7618928Y-15181500D01*
X7633214Y-15210071D01*
X7633214Y-15238643D01*
X7490357Y-15267214D01*
X7747500Y-15352929D02*
X7776071Y-15367214D01*
X7833214Y-15367214D01*
X7861786Y-15352929D01*
X7876071Y-15324357D01*
X7876071Y-15310071D01*
X7861786Y-15281500D01*
X7833214Y-15267214D01*
X7790357Y-15267214D01*
X7761786Y-15252929D01*
X7747500Y-15224357D01*
X7747500Y-15210071D01*
X7761786Y-15181500D01*
X7790357Y-15167214D01*
X7833214Y-15167214D01*
X7861786Y-15181500D01*
X7976071Y-15481500D02*
X7990357Y-15467214D01*
X8018928Y-15424357D01*
X8033214Y-15395786D01*
X8047500Y-15352929D01*
X8061786Y-15281500D01*
X8061786Y-15224357D01*
X8047500Y-15152929D01*
X8033214Y-15110071D01*
X8018928Y-15081500D01*
X7990357Y-15038643D01*
X7976071Y-15024357D01*
X557500Y-15702500D02*
X632500Y-15627500D01*
X557500Y-15552500D01*
X482500Y-15627500D01*
X557500Y-15702500D01*
X1076071Y-15763214D02*
X904643Y-15763214D01*
X990357Y-15763214D02*
X990357Y-15463214D01*
X961786Y-15506071D01*
X933214Y-15534643D01*
X904643Y-15548929D01*
X1204643Y-15734643D02*
X1218928Y-15748929D01*
X1204643Y-15763214D01*
X1190357Y-15748929D01*
X1204643Y-15734643D01*
X1204643Y-15763214D01*
X1490357Y-15463214D02*
X1347500Y-15463214D01*
X1333214Y-15606071D01*
X1347500Y-15591786D01*
X1376071Y-15577500D01*
X1447500Y-15577500D01*
X1476071Y-15591786D01*
X1490357Y-15606071D01*
X1504643Y-15634643D01*
X1504643Y-15706071D01*
X1490357Y-15734643D01*
X1476071Y-15748929D01*
X1447500Y-15763214D01*
X1376071Y-15763214D01*
X1347500Y-15748929D01*
X1333214Y-15734643D01*
X1690357Y-15463214D02*
X1718928Y-15463214D01*
X1747500Y-15477500D01*
X1761786Y-15491786D01*
X1776071Y-15520357D01*
X1790357Y-15577500D01*
X1790357Y-15648929D01*
X1776071Y-15706071D01*
X1761786Y-15734643D01*
X1747500Y-15748929D01*
X1718928Y-15763214D01*
X1690357Y-15763214D01*
X1661786Y-15748929D01*
X1647500Y-15734643D01*
X1633214Y-15706071D01*
X1618928Y-15648929D01*
X1618928Y-15577500D01*
X1633214Y-15520357D01*
X1647500Y-15491786D01*
X1661786Y-15477500D01*
X1690357Y-15463214D01*
X1976071Y-15463214D02*
X2004643Y-15463214D01*
X2033214Y-15477500D01*
X2047500Y-15491786D01*
X2061786Y-15520357D01*
X2076071Y-15577500D01*
X2076071Y-15648929D01*
X2061786Y-15706071D01*
X2047500Y-15734643D01*
X2033214Y-15748929D01*
X2004643Y-15763214D01*
X1976071Y-15763214D01*
X1947500Y-15748929D01*
X1933214Y-15734643D01*
X1918928Y-15706071D01*
X1904643Y-15648929D01*
X1904643Y-15577500D01*
X1918928Y-15520357D01*
X1933214Y-15491786D01*
X1947500Y-15477500D01*
X1976071Y-15463214D01*
X2204643Y-15763214D02*
X2204643Y-15563214D01*
X2204643Y-15591786D02*
X2218928Y-15577500D01*
X2247500Y-15563214D01*
X2290357Y-15563214D01*
X2318928Y-15577500D01*
X2333214Y-15606071D01*
X2333214Y-15763214D01*
X2333214Y-15606071D02*
X2347500Y-15577500D01*
X2376071Y-15563214D01*
X2418928Y-15563214D01*
X2447500Y-15577500D01*
X2461786Y-15606071D01*
X2461786Y-15763214D01*
X2604643Y-15763214D02*
X2604643Y-15563214D01*
X2604643Y-15591786D02*
X2618928Y-15577500D01*
X2647500Y-15563214D01*
X2690357Y-15563214D01*
X2718928Y-15577500D01*
X2733214Y-15606071D01*
X2733214Y-15763214D01*
X2733214Y-15606071D02*
X2747500Y-15577500D01*
X2776071Y-15563214D01*
X2818928Y-15563214D01*
X2847500Y-15577500D01*
X2861786Y-15606071D01*
X2861786Y-15763214D01*
X3447500Y-15448929D02*
X3190357Y-15834643D01*
X3833214Y-15463214D02*
X3861786Y-15463214D01*
X3890357Y-15477500D01*
X3904643Y-15491786D01*
X3918928Y-15520357D01*
X3933214Y-15577500D01*
X3933214Y-15648929D01*
X3918928Y-15706071D01*
X3904643Y-15734643D01*
X3890357Y-15748929D01*
X3861786Y-15763214D01*
X3833214Y-15763214D01*
X3804643Y-15748929D01*
X3790357Y-15734643D01*
X3776071Y-15706071D01*
X3761786Y-15648929D01*
X3761786Y-15577500D01*
X3776071Y-15520357D01*
X3790357Y-15491786D01*
X3804643Y-15477500D01*
X3833214Y-15463214D01*
X4061786Y-15734643D02*
X4076071Y-15748929D01*
X4061786Y-15763214D01*
X4047500Y-15748929D01*
X4061786Y-15734643D01*
X4061786Y-15763214D01*
X4261786Y-15463214D02*
X4290357Y-15463214D01*
X4318928Y-15477500D01*
X4333214Y-15491786D01*
X4347500Y-15520357D01*
X4361786Y-15577500D01*
X4361786Y-15648929D01*
X4347500Y-15706071D01*
X4333214Y-15734643D01*
X4318928Y-15748929D01*
X4290357Y-15763214D01*
X4261786Y-15763214D01*
X4233214Y-15748929D01*
X4218928Y-15734643D01*
X4204643Y-15706071D01*
X4190357Y-15648929D01*
X4190357Y-15577500D01*
X4204643Y-15520357D01*
X4218928Y-15491786D01*
X4233214Y-15477500D01*
X4261786Y-15463214D01*
X4633214Y-15463214D02*
X4490357Y-15463214D01*
X4476071Y-15606071D01*
X4490357Y-15591786D01*
X4518928Y-15577500D01*
X4590357Y-15577500D01*
X4618928Y-15591786D01*
X4633214Y-15606071D01*
X4647500Y-15634643D01*
X4647500Y-15706071D01*
X4633214Y-15734643D01*
X4618928Y-15748929D01*
X4590357Y-15763214D01*
X4518928Y-15763214D01*
X4490357Y-15748929D01*
X4476071Y-15734643D01*
X4790357Y-15763214D02*
X4847500Y-15763214D01*
X4876071Y-15748929D01*
X4890357Y-15734643D01*
X4918928Y-15691786D01*
X4933214Y-15634643D01*
X4933214Y-15520357D01*
X4918928Y-15491786D01*
X4904643Y-15477500D01*
X4876071Y-15463214D01*
X4818928Y-15463214D01*
X4790357Y-15477500D01*
X4776071Y-15491786D01*
X4761786Y-15520357D01*
X4761786Y-15591786D01*
X4776071Y-15620357D01*
X4790357Y-15634643D01*
X4818928Y-15648929D01*
X4876071Y-15648929D01*
X4904643Y-15634643D01*
X4918928Y-15620357D01*
X4933214Y-15591786D01*
X5218928Y-15763214D02*
X5047500Y-15763214D01*
X5133214Y-15763214D02*
X5133214Y-15463214D01*
X5104643Y-15506071D01*
X5076071Y-15534643D01*
X5047500Y-15548929D01*
X5333214Y-15463214D02*
X5333214Y-15520357D01*
X5447500Y-15463214D02*
X5447500Y-15520357D01*
X5890357Y-15877500D02*
X5876071Y-15863214D01*
X5847500Y-15820357D01*
X5833214Y-15791786D01*
X5818928Y-15748929D01*
X5804643Y-15677500D01*
X5804643Y-15620357D01*
X5818928Y-15548929D01*
X5833214Y-15506071D01*
X5847500Y-15477500D01*
X5876071Y-15434643D01*
X5890357Y-15420357D01*
X6133214Y-15563214D02*
X6133214Y-15763214D01*
X6061786Y-15448929D02*
X5990357Y-15663214D01*
X6176071Y-15663214D01*
X6333214Y-15591786D02*
X6304643Y-15577500D01*
X6290357Y-15563214D01*
X6276071Y-15534643D01*
X6276071Y-15520357D01*
X6290357Y-15491786D01*
X6304643Y-15477500D01*
X6333214Y-15463214D01*
X6390357Y-15463214D01*
X6418928Y-15477500D01*
X6433214Y-15491786D01*
X6447500Y-15520357D01*
X6447500Y-15534643D01*
X6433214Y-15563214D01*
X6418928Y-15577500D01*
X6390357Y-15591786D01*
X6333214Y-15591786D01*
X6304643Y-15606071D01*
X6290357Y-15620357D01*
X6276071Y-15648929D01*
X6276071Y-15706071D01*
X6290357Y-15734643D01*
X6304643Y-15748929D01*
X6333214Y-15763214D01*
X6390357Y-15763214D01*
X6418928Y-15748929D01*
X6433214Y-15734643D01*
X6447500Y-15706071D01*
X6447500Y-15648929D01*
X6433214Y-15620357D01*
X6418928Y-15606071D01*
X6390357Y-15591786D01*
X6804643Y-15763214D02*
X6804643Y-15463214D01*
X6933214Y-15763214D02*
X6933214Y-15606071D01*
X6918928Y-15577500D01*
X6890357Y-15563214D01*
X6847500Y-15563214D01*
X6818928Y-15577500D01*
X6804643Y-15591786D01*
X7118928Y-15763214D02*
X7090357Y-15748929D01*
X7076071Y-15734643D01*
X7061786Y-15706071D01*
X7061786Y-15620357D01*
X7076071Y-15591786D01*
X7090357Y-15577500D01*
X7118928Y-15563214D01*
X7161786Y-15563214D01*
X7190357Y-15577500D01*
X7204643Y-15591786D01*
X7218928Y-15620357D01*
X7218928Y-15706071D01*
X7204643Y-15734643D01*
X7190357Y-15748929D01*
X7161786Y-15763214D01*
X7118928Y-15763214D01*
X7390357Y-15763214D02*
X7361786Y-15748929D01*
X7347500Y-15720357D01*
X7347500Y-15463214D01*
X7618928Y-15748929D02*
X7590357Y-15763214D01*
X7533214Y-15763214D01*
X7504643Y-15748929D01*
X7490357Y-15720357D01*
X7490357Y-15606071D01*
X7504643Y-15577500D01*
X7533214Y-15563214D01*
X7590357Y-15563214D01*
X7618928Y-15577500D01*
X7633214Y-15606071D01*
X7633214Y-15634643D01*
X7490357Y-15663214D01*
X7747500Y-15748929D02*
X7776071Y-15763214D01*
X7833214Y-15763214D01*
X7861786Y-15748929D01*
X7876071Y-15720357D01*
X7876071Y-15706071D01*
X7861786Y-15677500D01*
X7833214Y-15663214D01*
X7790357Y-15663214D01*
X7761786Y-15648929D01*
X7747500Y-15620357D01*
X7747500Y-15606071D01*
X7761786Y-15577500D01*
X7790357Y-15563214D01*
X7833214Y-15563214D01*
X7861786Y-15577500D01*
X7976071Y-15877500D02*
X7990357Y-15863214D01*
X8018928Y-15820357D01*
X8033214Y-15791786D01*
X8047500Y-15748929D01*
X8061786Y-15677500D01*
X8061786Y-15620357D01*
X8047500Y-15548929D01*
X8033214Y-15506071D01*
X8018928Y-15477500D01*
X7990357Y-15434643D01*
X7976071Y-15420357D01*
M02*
