M48
; DRILL file {KiCad (5.1.10)-1} date 09/29/21 18:40:02
; FORMAT={-:-/ absolute / metric / decimal}
; #@! TF.CreationDate,2021-09-29T18:40:02-04:00
; #@! TF.GenerationSoftware,Kicad,Pcbnew,(5.1.10)-1
; #@! TF.FileFunction,Plated,1,2,PTH
FMAT,2
METRIC
T1C0.400
T2C0.900
T3C1.000
T4C1.100
T5C1.500
%
G90
G05
T1
X21.15Y-57.95
X22.55Y-74.475
X23.775Y-57.95
X25.1Y-74.325
X26.4Y-57.975
X27.35Y-74.125
X28.9Y-118.275
X29.475Y-73.675
X29.75Y-58.0
X32.425Y-57.925
X32.585Y-79.09
X34.925Y-57.925
X39.25Y-99.3
X40.4Y-70.425
X41.175Y-68.175
X43.175Y-67.675
X44.45Y-81.0
X45.3Y-67.45
X47.325Y-118.225
X48.05Y-67.925
X48.175Y-72.0
X49.65Y-67.425
X50.55Y-72.0
X51.45Y-66.85
X52.975Y-72.0
X54.95Y-83.0
X55.025Y-72.0
X63.5Y-85.0
X73.025Y-87.0
X80.5Y-77.55
X86.0Y-73.375
X89.735Y-89.0
X94.775Y-99.125
X101.6Y-79.0
X105.025Y-118.25
X108.2Y-76.8
X108.825Y-73.175
X111.875Y-81.0
X115.725Y-99.125
X117.725Y-75.2
X120.65Y-83.0
X123.85Y-118.25
X127.625Y-85.0
X139.7Y-87.0
X145.225Y-73.425
X145.8Y-76.375
X149.225Y-89.0
X161.5Y-118.2
X161.675Y-77.325
X164.45Y-73.7
X166.825Y-79.0
X167.325Y-74.275
X168.75Y-71.7
X170.25Y-60.585
X170.375Y-65.585
X170.475Y-63.085
X170.675Y-68.085
X171.15Y-99.2
X177.475Y-117.1
X177.775Y-66.7
X177.8Y-61.7
X177.8Y-64.45
X177.8Y-81.0
X189.7Y-70.175
X190.55Y-83.0
X196.85Y-85.0
X201.0Y-61.825
X206.375Y-87.0
X207.367Y-71.692
X207.404Y-73.804
X207.417Y-72.718
X207.417Y-74.942
X210.975Y-68.085
X211.0Y-78.2
X214.55Y-65.585
X218.14Y-63.085
X218.825Y-57.65
X221.6Y-77.41
X221.775Y-60.585
X222.35Y-91.025
X223.085Y-89.0
X227.875Y-75.3
X228.375Y-99.125
X229.825Y-64.35
X229.925Y-61.925
X229.95Y-67.0
X235.15Y-79.0
X237.825Y-118.325
X242.075Y-81.0
X248.025Y-99.15
X253.65Y-65.65
X254.0Y-83.0
X257.325Y-118.2
X261.125Y-85.0
X273.05Y-87.0
X282.575Y-89.0
T2
X180.275Y-60.585
X180.275Y-63.085
X180.275Y-65.585
X180.275Y-68.085
X180.275Y-70.585
X198.575Y-60.585
X198.575Y-63.085
X198.575Y-65.585
X198.575Y-68.085
X198.575Y-70.585
X232.275Y-60.585
X232.275Y-63.085
X232.275Y-65.585
X232.275Y-68.085
X232.275Y-70.585
X250.575Y-60.585
X250.575Y-63.085
X250.575Y-65.585
X250.575Y-68.085
X250.575Y-70.585
T3
X62.275Y-69.135
X64.775Y-69.135
X67.275Y-69.135
X81.325Y-69.135
X83.825Y-69.135
X86.325Y-69.135
X100.375Y-69.135
X102.875Y-69.135
X105.375Y-69.135
X119.425Y-69.135
X121.925Y-69.135
X124.425Y-69.135
T4
X8.135Y-56.31
X8.135Y-71.55
X10.675Y-56.31
X10.675Y-71.55
X13.215Y-56.31
X13.215Y-71.55
X15.755Y-56.31
X15.755Y-71.55
X18.295Y-56.31
X18.295Y-71.55
X20.835Y-56.31
X20.835Y-71.55
X23.375Y-56.31
X23.375Y-71.55
X25.915Y-56.31
X25.915Y-71.55
X28.455Y-56.31
X28.455Y-71.55
X30.995Y-56.31
X30.995Y-71.55
X33.535Y-56.31
X33.535Y-71.55
X36.075Y-56.31
X36.075Y-71.55
T5
X21.575Y-118.21
X27.925Y-115.67
X31.1Y-99.16
X37.45Y-96.62
X40.625Y-118.21
X46.975Y-115.67
X50.15Y-99.16
X56.5Y-96.62
X59.675Y-118.21
X66.025Y-115.67
X78.725Y-118.21
X85.075Y-115.67
X88.25Y-99.16
X94.6Y-96.62
X97.775Y-118.21
X104.125Y-115.67
X107.3Y-99.16
X113.65Y-96.62
X116.825Y-118.21
X123.175Y-115.67
X126.35Y-99.16
X132.7Y-96.62
X135.875Y-118.21
X142.225Y-115.67
X154.925Y-118.21
X161.275Y-115.67
X164.45Y-99.16
X170.8Y-96.62
X173.975Y-118.21
X180.325Y-115.67
X183.5Y-99.16
X189.85Y-96.62
X193.025Y-118.21
X199.375Y-115.67
X212.075Y-118.21
X218.425Y-115.67
X221.6Y-99.16
X227.95Y-96.62
X231.125Y-118.21
X237.475Y-115.67
X240.65Y-99.16
X247.0Y-96.62
X250.175Y-118.21
X256.525Y-115.67
X259.7Y-99.16
X266.05Y-96.62
X269.225Y-118.21
X275.575Y-115.67
T0
M30
