G04 #@! TF.GenerationSoftware,KiCad,Pcbnew,(5.1.10)-1*
G04 #@! TF.CreationDate,2021-09-29T18:39:33-04:00*
G04 #@! TF.ProjectId,design,64657369-676e-42e6-9b69-6361645f7063,rev?*
G04 #@! TF.SameCoordinates,Original*
G04 #@! TF.FileFunction,Legend,Top*
G04 #@! TF.FilePolarity,Positive*
%FSLAX46Y46*%
G04 Gerber Fmt 4.6, Leading zero omitted, Abs format (unit mm)*
G04 Created by KiCad (PCBNEW (5.1.10)-1) date 2021-09-29 18:39:33*
%MOMM*%
%LPD*%
G01*
G04 APERTURE LIST*
%ADD10C,0.150000*%
%ADD11C,0.120000*%
%ADD12C,0.200000*%
%ADD13C,0.250000*%
%ADD14C,0.350000*%
%ADD15C,1.700000*%
%ADD16C,4.000000*%
%ADD17C,2.200000*%
%ADD18C,2.500000*%
%ADD19C,1.600000*%
%ADD20R,1.600000X1.600000*%
%ADD21C,1.800000*%
G04 APERTURE END LIST*
D10*
X184620238Y-77964761D02*
X183667857Y-77964761D01*
X183667857Y-75964761D01*
X186048809Y-77869523D02*
X185858333Y-77964761D01*
X185477380Y-77964761D01*
X185286904Y-77869523D01*
X185191666Y-77679047D01*
X185191666Y-76917142D01*
X185286904Y-76726666D01*
X185477380Y-76631428D01*
X185858333Y-76631428D01*
X186048809Y-76726666D01*
X186144047Y-76917142D01*
X186144047Y-77107619D01*
X185191666Y-77298095D01*
X186715476Y-76631428D02*
X187477380Y-76631428D01*
X187001190Y-77964761D02*
X187001190Y-76250476D01*
X187096428Y-76060000D01*
X187286904Y-75964761D01*
X187477380Y-75964761D01*
X187858333Y-76631428D02*
X188620238Y-76631428D01*
X188144047Y-75964761D02*
X188144047Y-77679047D01*
X188239285Y-77869523D01*
X188429761Y-77964761D01*
X188620238Y-77964761D01*
X190810714Y-77964761D02*
X190810714Y-75964761D01*
X190810714Y-76917142D02*
X191953571Y-76917142D01*
X191953571Y-77964761D02*
X191953571Y-75964761D01*
X193763095Y-77964761D02*
X193763095Y-76917142D01*
X193667857Y-76726666D01*
X193477380Y-76631428D01*
X193096428Y-76631428D01*
X192905952Y-76726666D01*
X193763095Y-77869523D02*
X193572619Y-77964761D01*
X193096428Y-77964761D01*
X192905952Y-77869523D01*
X192810714Y-77679047D01*
X192810714Y-77488571D01*
X192905952Y-77298095D01*
X193096428Y-77202857D01*
X193572619Y-77202857D01*
X193763095Y-77107619D01*
X194715476Y-76631428D02*
X194715476Y-77964761D01*
X194715476Y-76821904D02*
X194810714Y-76726666D01*
X195001190Y-76631428D01*
X195286904Y-76631428D01*
X195477380Y-76726666D01*
X195572619Y-76917142D01*
X195572619Y-77964761D01*
X197382142Y-77964761D02*
X197382142Y-75964761D01*
X197382142Y-77869523D02*
X197191666Y-77964761D01*
X196810714Y-77964761D01*
X196620238Y-77869523D01*
X196525000Y-77774285D01*
X196429761Y-77583809D01*
X196429761Y-77012380D01*
X196525000Y-76821904D01*
X196620238Y-76726666D01*
X196810714Y-76631428D01*
X197191666Y-76631428D01*
X197382142Y-76726666D01*
X13886904Y-76114761D02*
X13886904Y-74114761D01*
X14648809Y-74114761D01*
X14839285Y-74210000D01*
X14934523Y-74305238D01*
X15029761Y-74495714D01*
X15029761Y-74781428D01*
X14934523Y-74971904D01*
X14839285Y-75067142D01*
X14648809Y-75162380D01*
X13886904Y-75162380D01*
X17029761Y-76114761D02*
X16363095Y-75162380D01*
X15886904Y-76114761D02*
X15886904Y-74114761D01*
X16648809Y-74114761D01*
X16839285Y-74210000D01*
X16934523Y-74305238D01*
X17029761Y-74495714D01*
X17029761Y-74781428D01*
X16934523Y-74971904D01*
X16839285Y-75067142D01*
X16648809Y-75162380D01*
X15886904Y-75162380D01*
X18267857Y-74114761D02*
X18648809Y-74114761D01*
X18839285Y-74210000D01*
X19029761Y-74400476D01*
X19125000Y-74781428D01*
X19125000Y-75448095D01*
X19029761Y-75829047D01*
X18839285Y-76019523D01*
X18648809Y-76114761D01*
X18267857Y-76114761D01*
X18077380Y-76019523D01*
X17886904Y-75829047D01*
X17791666Y-75448095D01*
X17791666Y-74781428D01*
X17886904Y-74400476D01*
X18077380Y-74210000D01*
X18267857Y-74114761D01*
X19982142Y-76114761D02*
X19982142Y-74114761D01*
X20648809Y-75543333D01*
X21315476Y-74114761D01*
X21315476Y-76114761D01*
X22267857Y-76114761D02*
X22267857Y-74114761D01*
X24363095Y-75924285D02*
X24267857Y-76019523D01*
X23982142Y-76114761D01*
X23791666Y-76114761D01*
X23505952Y-76019523D01*
X23315476Y-75829047D01*
X23220238Y-75638571D01*
X23125000Y-75257619D01*
X23125000Y-74971904D01*
X23220238Y-74590952D01*
X23315476Y-74400476D01*
X23505952Y-74210000D01*
X23791666Y-74114761D01*
X23982142Y-74114761D01*
X24267857Y-74210000D01*
X24363095Y-74305238D01*
X26363095Y-76114761D02*
X25696428Y-75162380D01*
X25220238Y-76114761D02*
X25220238Y-74114761D01*
X25982142Y-74114761D01*
X26172619Y-74210000D01*
X26267857Y-74305238D01*
X26363095Y-74495714D01*
X26363095Y-74781428D01*
X26267857Y-74971904D01*
X26172619Y-75067142D01*
X25982142Y-75162380D01*
X25220238Y-75162380D01*
X27601190Y-74114761D02*
X27982142Y-74114761D01*
X28172619Y-74210000D01*
X28363095Y-74400476D01*
X28458333Y-74781428D01*
X28458333Y-75448095D01*
X28363095Y-75829047D01*
X28172619Y-76019523D01*
X27982142Y-76114761D01*
X27601190Y-76114761D01*
X27410714Y-76019523D01*
X27220238Y-75829047D01*
X27125000Y-75448095D01*
X27125000Y-74781428D01*
X27220238Y-74400476D01*
X27410714Y-74210000D01*
X27601190Y-74114761D01*
X235763095Y-77989761D02*
X235096428Y-77037380D01*
X234620238Y-77989761D02*
X234620238Y-75989761D01*
X235382142Y-75989761D01*
X235572619Y-76085000D01*
X235667857Y-76180238D01*
X235763095Y-76370714D01*
X235763095Y-76656428D01*
X235667857Y-76846904D01*
X235572619Y-76942142D01*
X235382142Y-77037380D01*
X234620238Y-77037380D01*
X236620238Y-77989761D02*
X236620238Y-76656428D01*
X236620238Y-75989761D02*
X236525000Y-76085000D01*
X236620238Y-76180238D01*
X236715476Y-76085000D01*
X236620238Y-75989761D01*
X236620238Y-76180238D01*
X238429761Y-76656428D02*
X238429761Y-78275476D01*
X238334523Y-78465952D01*
X238239285Y-78561190D01*
X238048809Y-78656428D01*
X237763095Y-78656428D01*
X237572619Y-78561190D01*
X238429761Y-77894523D02*
X238239285Y-77989761D01*
X237858333Y-77989761D01*
X237667857Y-77894523D01*
X237572619Y-77799285D01*
X237477380Y-77608809D01*
X237477380Y-77037380D01*
X237572619Y-76846904D01*
X237667857Y-76751666D01*
X237858333Y-76656428D01*
X238239285Y-76656428D01*
X238429761Y-76751666D01*
X239382142Y-77989761D02*
X239382142Y-75989761D01*
X240239285Y-77989761D02*
X240239285Y-76942142D01*
X240144047Y-76751666D01*
X239953571Y-76656428D01*
X239667857Y-76656428D01*
X239477380Y-76751666D01*
X239382142Y-76846904D01*
X240905952Y-76656428D02*
X241667857Y-76656428D01*
X241191666Y-75989761D02*
X241191666Y-77704047D01*
X241286904Y-77894523D01*
X241477380Y-77989761D01*
X241667857Y-77989761D01*
X243858333Y-77989761D02*
X243858333Y-75989761D01*
X243858333Y-76942142D02*
X245001190Y-76942142D01*
X245001190Y-77989761D02*
X245001190Y-75989761D01*
X246810714Y-77989761D02*
X246810714Y-76942142D01*
X246715476Y-76751666D01*
X246525000Y-76656428D01*
X246144047Y-76656428D01*
X245953571Y-76751666D01*
X246810714Y-77894523D02*
X246620238Y-77989761D01*
X246144047Y-77989761D01*
X245953571Y-77894523D01*
X245858333Y-77704047D01*
X245858333Y-77513571D01*
X245953571Y-77323095D01*
X246144047Y-77227857D01*
X246620238Y-77227857D01*
X246810714Y-77132619D01*
X247763095Y-76656428D02*
X247763095Y-77989761D01*
X247763095Y-76846904D02*
X247858333Y-76751666D01*
X248048809Y-76656428D01*
X248334523Y-76656428D01*
X248525000Y-76751666D01*
X248620238Y-76942142D01*
X248620238Y-77989761D01*
X250429761Y-77989761D02*
X250429761Y-75989761D01*
X250429761Y-77894523D02*
X250239285Y-77989761D01*
X249858333Y-77989761D01*
X249667857Y-77894523D01*
X249572619Y-77799285D01*
X249477380Y-77608809D01*
X249477380Y-77037380D01*
X249572619Y-76846904D01*
X249667857Y-76751666D01*
X249858333Y-76656428D01*
X250239285Y-76656428D01*
X250429761Y-76751666D01*
X115292857Y-71056428D02*
X115292857Y-73056428D01*
X115292857Y-71151666D02*
X115483333Y-71056428D01*
X115864285Y-71056428D01*
X116054761Y-71151666D01*
X116150000Y-71246904D01*
X116245238Y-71437380D01*
X116245238Y-72008809D01*
X116150000Y-72199285D01*
X116054761Y-72294523D01*
X115864285Y-72389761D01*
X115483333Y-72389761D01*
X115292857Y-72294523D01*
X117388095Y-72389761D02*
X117197619Y-72294523D01*
X117102380Y-72199285D01*
X117007142Y-72008809D01*
X117007142Y-71437380D01*
X117102380Y-71246904D01*
X117197619Y-71151666D01*
X117388095Y-71056428D01*
X117673809Y-71056428D01*
X117864285Y-71151666D01*
X117959523Y-71246904D01*
X118054761Y-71437380D01*
X118054761Y-72008809D01*
X117959523Y-72199285D01*
X117864285Y-72294523D01*
X117673809Y-72389761D01*
X117388095Y-72389761D01*
X118626190Y-71056428D02*
X119388095Y-71056428D01*
X118911904Y-70389761D02*
X118911904Y-72104047D01*
X119007142Y-72294523D01*
X119197619Y-72389761D01*
X119388095Y-72389761D01*
X119864285Y-70389761D02*
X121102380Y-70389761D01*
X120435714Y-71151666D01*
X120721428Y-71151666D01*
X120911904Y-71246904D01*
X121007142Y-71342142D01*
X121102380Y-71532619D01*
X121102380Y-72008809D01*
X121007142Y-72199285D01*
X120911904Y-72294523D01*
X120721428Y-72389761D01*
X120150000Y-72389761D01*
X119959523Y-72294523D01*
X119864285Y-72199285D01*
X96267857Y-71056428D02*
X96267857Y-73056428D01*
X96267857Y-71151666D02*
X96458333Y-71056428D01*
X96839285Y-71056428D01*
X97029761Y-71151666D01*
X97125000Y-71246904D01*
X97220238Y-71437380D01*
X97220238Y-72008809D01*
X97125000Y-72199285D01*
X97029761Y-72294523D01*
X96839285Y-72389761D01*
X96458333Y-72389761D01*
X96267857Y-72294523D01*
X98363095Y-72389761D02*
X98172619Y-72294523D01*
X98077380Y-72199285D01*
X97982142Y-72008809D01*
X97982142Y-71437380D01*
X98077380Y-71246904D01*
X98172619Y-71151666D01*
X98363095Y-71056428D01*
X98648809Y-71056428D01*
X98839285Y-71151666D01*
X98934523Y-71246904D01*
X99029761Y-71437380D01*
X99029761Y-72008809D01*
X98934523Y-72199285D01*
X98839285Y-72294523D01*
X98648809Y-72389761D01*
X98363095Y-72389761D01*
X99601190Y-71056428D02*
X100363095Y-71056428D01*
X99886904Y-70389761D02*
X99886904Y-72104047D01*
X99982142Y-72294523D01*
X100172619Y-72389761D01*
X100363095Y-72389761D01*
X100934523Y-70580238D02*
X101029761Y-70485000D01*
X101220238Y-70389761D01*
X101696428Y-70389761D01*
X101886904Y-70485000D01*
X101982142Y-70580238D01*
X102077380Y-70770714D01*
X102077380Y-70961190D01*
X101982142Y-71246904D01*
X100839285Y-72389761D01*
X102077380Y-72389761D01*
X77167857Y-71056428D02*
X77167857Y-73056428D01*
X77167857Y-71151666D02*
X77358333Y-71056428D01*
X77739285Y-71056428D01*
X77929761Y-71151666D01*
X78025000Y-71246904D01*
X78120238Y-71437380D01*
X78120238Y-72008809D01*
X78025000Y-72199285D01*
X77929761Y-72294523D01*
X77739285Y-72389761D01*
X77358333Y-72389761D01*
X77167857Y-72294523D01*
X79263095Y-72389761D02*
X79072619Y-72294523D01*
X78977380Y-72199285D01*
X78882142Y-72008809D01*
X78882142Y-71437380D01*
X78977380Y-71246904D01*
X79072619Y-71151666D01*
X79263095Y-71056428D01*
X79548809Y-71056428D01*
X79739285Y-71151666D01*
X79834523Y-71246904D01*
X79929761Y-71437380D01*
X79929761Y-72008809D01*
X79834523Y-72199285D01*
X79739285Y-72294523D01*
X79548809Y-72389761D01*
X79263095Y-72389761D01*
X80501190Y-71056428D02*
X81263095Y-71056428D01*
X80786904Y-70389761D02*
X80786904Y-72104047D01*
X80882142Y-72294523D01*
X81072619Y-72389761D01*
X81263095Y-72389761D01*
X82977380Y-72389761D02*
X81834523Y-72389761D01*
X82405952Y-72389761D02*
X82405952Y-70389761D01*
X82215476Y-70675476D01*
X82025000Y-70865952D01*
X81834523Y-70961190D01*
X58167857Y-71056428D02*
X58167857Y-73056428D01*
X58167857Y-71151666D02*
X58358333Y-71056428D01*
X58739285Y-71056428D01*
X58929761Y-71151666D01*
X59025000Y-71246904D01*
X59120238Y-71437380D01*
X59120238Y-72008809D01*
X59025000Y-72199285D01*
X58929761Y-72294523D01*
X58739285Y-72389761D01*
X58358333Y-72389761D01*
X58167857Y-72294523D01*
X60263095Y-72389761D02*
X60072619Y-72294523D01*
X59977380Y-72199285D01*
X59882142Y-72008809D01*
X59882142Y-71437380D01*
X59977380Y-71246904D01*
X60072619Y-71151666D01*
X60263095Y-71056428D01*
X60548809Y-71056428D01*
X60739285Y-71151666D01*
X60834523Y-71246904D01*
X60929761Y-71437380D01*
X60929761Y-72008809D01*
X60834523Y-72199285D01*
X60739285Y-72294523D01*
X60548809Y-72389761D01*
X60263095Y-72389761D01*
X61501190Y-71056428D02*
X62263095Y-71056428D01*
X61786904Y-70389761D02*
X61786904Y-72104047D01*
X61882142Y-72294523D01*
X62072619Y-72389761D01*
X62263095Y-72389761D01*
X63310714Y-70389761D02*
X63501190Y-70389761D01*
X63691666Y-70485000D01*
X63786904Y-70580238D01*
X63882142Y-70770714D01*
X63977380Y-71151666D01*
X63977380Y-71627857D01*
X63882142Y-72008809D01*
X63786904Y-72199285D01*
X63691666Y-72294523D01*
X63501190Y-72389761D01*
X63310714Y-72389761D01*
X63120238Y-72294523D01*
X63025000Y-72199285D01*
X62929761Y-72008809D01*
X62834523Y-71627857D01*
X62834523Y-71151666D01*
X62929761Y-70770714D01*
X63025000Y-70580238D01*
X63120238Y-70485000D01*
X63310714Y-70389761D01*
D11*
X236085000Y-98905000D02*
X236085000Y-95020000D01*
X233815000Y-98905000D02*
X236085000Y-98905000D01*
X233815000Y-95020000D02*
X233815000Y-98905000D01*
X37450000Y-127735000D02*
X37450000Y-113765000D01*
X51420000Y-127735000D02*
X37450000Y-127735000D01*
X51420000Y-113765000D02*
X51420000Y-127735000D01*
X37450000Y-113765000D02*
X51420000Y-113765000D01*
X123175000Y-108685000D02*
X123175000Y-94715000D01*
X137145000Y-108685000D02*
X123175000Y-108685000D01*
X137145000Y-94715000D02*
X137145000Y-108685000D01*
X123175000Y-94715000D02*
X137145000Y-94715000D01*
X113650000Y-127735000D02*
X113650000Y-113765000D01*
X127620000Y-127735000D02*
X113650000Y-127735000D01*
X127620000Y-113765000D02*
X127620000Y-127735000D01*
X113650000Y-113765000D02*
X127620000Y-113765000D01*
X109990000Y-114070000D02*
X109990000Y-117955000D01*
X109990000Y-117955000D02*
X112260000Y-117955000D01*
X112260000Y-117955000D02*
X112260000Y-114070000D01*
X205240000Y-114070000D02*
X205240000Y-117955000D01*
X205240000Y-117955000D02*
X207510000Y-117955000D01*
X207510000Y-117955000D02*
X207510000Y-114070000D01*
X170800000Y-113765000D02*
X184770000Y-113765000D01*
X184770000Y-113765000D02*
X184770000Y-127735000D01*
X184770000Y-127735000D02*
X170800000Y-127735000D01*
X170800000Y-127735000D02*
X170800000Y-113765000D01*
X46975000Y-108685000D02*
X46975000Y-94715000D01*
X60945000Y-108685000D02*
X46975000Y-108685000D01*
X60945000Y-94715000D02*
X60945000Y-108685000D01*
X46975000Y-94715000D02*
X60945000Y-94715000D01*
X208900000Y-127735000D02*
X208900000Y-113765000D01*
X222870000Y-127735000D02*
X208900000Y-127735000D01*
X222870000Y-113765000D02*
X222870000Y-127735000D01*
X208900000Y-113765000D02*
X222870000Y-113765000D01*
X227950000Y-127735000D02*
X227950000Y-113765000D01*
X241920000Y-127735000D02*
X227950000Y-127735000D01*
X241920000Y-113765000D02*
X241920000Y-127735000D01*
X227950000Y-113765000D02*
X241920000Y-113765000D01*
X189850000Y-127735000D02*
X189850000Y-113765000D01*
X203820000Y-127735000D02*
X189850000Y-127735000D01*
X203820000Y-113765000D02*
X203820000Y-127735000D01*
X189850000Y-113765000D02*
X203820000Y-113765000D01*
X132700000Y-127735000D02*
X132700000Y-113765000D01*
X146670000Y-127735000D02*
X132700000Y-127735000D01*
X146670000Y-113765000D02*
X146670000Y-127735000D01*
X132700000Y-113765000D02*
X146670000Y-113765000D01*
X104125000Y-108685000D02*
X104125000Y-94715000D01*
X118095000Y-108685000D02*
X104125000Y-108685000D01*
X118095000Y-94715000D02*
X118095000Y-108685000D01*
X104125000Y-94715000D02*
X118095000Y-94715000D01*
X85075000Y-108685000D02*
X85075000Y-94715000D01*
X99045000Y-108685000D02*
X85075000Y-108685000D01*
X99045000Y-94715000D02*
X99045000Y-108685000D01*
X85075000Y-94715000D02*
X99045000Y-94715000D01*
X206025000Y-59450000D02*
X202140000Y-59450000D01*
X202140000Y-59450000D02*
X202140000Y-61720000D01*
X202140000Y-61720000D02*
X206025000Y-61720000D01*
X206025000Y-61950000D02*
X202140000Y-61950000D01*
X202140000Y-61950000D02*
X202140000Y-64220000D01*
X202140000Y-64220000D02*
X206025000Y-64220000D01*
D12*
X199925000Y-73685000D02*
X199925000Y-57485000D01*
X181425000Y-73685000D02*
X199925000Y-73685000D01*
X181425000Y-57485000D02*
X181425000Y-73685000D01*
X199925000Y-57485000D02*
X181425000Y-57485000D01*
X251925000Y-73685000D02*
X251925000Y-57485000D01*
X233425000Y-73685000D02*
X251925000Y-73685000D01*
X233425000Y-57485000D02*
X233425000Y-73685000D01*
X251925000Y-57485000D02*
X233425000Y-57485000D01*
D11*
X161275000Y-94715000D02*
X175245000Y-94715000D01*
X175245000Y-94715000D02*
X175245000Y-108685000D01*
X175245000Y-108685000D02*
X161275000Y-108685000D01*
X161275000Y-108685000D02*
X161275000Y-94715000D01*
X266050000Y-127735000D02*
X266050000Y-113765000D01*
X280020000Y-127735000D02*
X266050000Y-127735000D01*
X280020000Y-113765000D02*
X280020000Y-127735000D01*
X266050000Y-113765000D02*
X280020000Y-113765000D01*
X180325000Y-108685000D02*
X180325000Y-94715000D01*
X194295000Y-108685000D02*
X180325000Y-108685000D01*
X194295000Y-94715000D02*
X194295000Y-108685000D01*
X180325000Y-94715000D02*
X194295000Y-94715000D01*
X62365000Y-95020000D02*
X62365000Y-98905000D01*
X62365000Y-98905000D02*
X64635000Y-98905000D01*
X64635000Y-98905000D02*
X64635000Y-95020000D01*
X56500000Y-127735000D02*
X56500000Y-113765000D01*
X70470000Y-127735000D02*
X56500000Y-127735000D01*
X70470000Y-113765000D02*
X70470000Y-127735000D01*
X56500000Y-113765000D02*
X70470000Y-113765000D01*
X43315000Y-95020000D02*
X43315000Y-98905000D01*
X43315000Y-98905000D02*
X45585000Y-98905000D01*
X45585000Y-98905000D02*
X45585000Y-95020000D01*
X281440000Y-114070000D02*
X281440000Y-117955000D01*
X281440000Y-117955000D02*
X283710000Y-117955000D01*
X283710000Y-117955000D02*
X283710000Y-114070000D01*
X224290000Y-114070000D02*
X224290000Y-117955000D01*
X224290000Y-117955000D02*
X226560000Y-117955000D01*
X226560000Y-117955000D02*
X226560000Y-114070000D01*
X148090000Y-114070000D02*
X148090000Y-117955000D01*
X148090000Y-117955000D02*
X150360000Y-117955000D01*
X150360000Y-117955000D02*
X150360000Y-114070000D01*
X90940000Y-114070000D02*
X90940000Y-117955000D01*
X90940000Y-117955000D02*
X93210000Y-117955000D01*
X93210000Y-117955000D02*
X93210000Y-114070000D01*
X271915000Y-95020000D02*
X271915000Y-98905000D01*
X271915000Y-98905000D02*
X274185000Y-98905000D01*
X274185000Y-98905000D02*
X274185000Y-95020000D01*
X138565000Y-95020000D02*
X138565000Y-98905000D01*
X138565000Y-98905000D02*
X140835000Y-98905000D01*
X140835000Y-98905000D02*
X140835000Y-95020000D01*
X71890000Y-114070000D02*
X71890000Y-117955000D01*
X71890000Y-117955000D02*
X74160000Y-117955000D01*
X74160000Y-117955000D02*
X74160000Y-114070000D01*
X262390000Y-114070000D02*
X262390000Y-117955000D01*
X262390000Y-117955000D02*
X264660000Y-117955000D01*
X264660000Y-117955000D02*
X264660000Y-114070000D01*
X195715000Y-95020000D02*
X195715000Y-98905000D01*
X195715000Y-98905000D02*
X197985000Y-98905000D01*
X197985000Y-98905000D02*
X197985000Y-95020000D01*
X129040000Y-114070000D02*
X129040000Y-117955000D01*
X129040000Y-117955000D02*
X131310000Y-117955000D01*
X131310000Y-117955000D02*
X131310000Y-114070000D01*
X252865000Y-95020000D02*
X252865000Y-98905000D01*
X252865000Y-98905000D02*
X255135000Y-98905000D01*
X255135000Y-98905000D02*
X255135000Y-95020000D01*
X186190000Y-114070000D02*
X186190000Y-117955000D01*
X186190000Y-117955000D02*
X188460000Y-117955000D01*
X188460000Y-117955000D02*
X188460000Y-114070000D01*
X119515000Y-95020000D02*
X119515000Y-98905000D01*
X119515000Y-98905000D02*
X121785000Y-98905000D01*
X121785000Y-98905000D02*
X121785000Y-95020000D01*
X52840000Y-114070000D02*
X52840000Y-117955000D01*
X52840000Y-117955000D02*
X55110000Y-117955000D01*
X55110000Y-117955000D02*
X55110000Y-114070000D01*
X243340000Y-114070000D02*
X243340000Y-117955000D01*
X243340000Y-117955000D02*
X245610000Y-117955000D01*
X245610000Y-117955000D02*
X245610000Y-114070000D01*
X176665000Y-95020000D02*
X176665000Y-98905000D01*
X176665000Y-98905000D02*
X178935000Y-98905000D01*
X178935000Y-98905000D02*
X178935000Y-95020000D01*
X167140000Y-114070000D02*
X167140000Y-117955000D01*
X167140000Y-117955000D02*
X169410000Y-117955000D01*
X169410000Y-117955000D02*
X169410000Y-114070000D01*
X100465000Y-95020000D02*
X100465000Y-98905000D01*
X100465000Y-98905000D02*
X102735000Y-98905000D01*
X102735000Y-98905000D02*
X102735000Y-95020000D01*
X33790000Y-114070000D02*
X33790000Y-117955000D01*
X33790000Y-117955000D02*
X36060000Y-117955000D01*
X36060000Y-117955000D02*
X36060000Y-114070000D01*
X172825000Y-61720000D02*
X176710000Y-61720000D01*
X176710000Y-61720000D02*
X176710000Y-59450000D01*
X176710000Y-59450000D02*
X172825000Y-59450000D01*
X258025000Y-61950000D02*
X254140000Y-61950000D01*
X254140000Y-61950000D02*
X254140000Y-64220000D01*
X254140000Y-64220000D02*
X258025000Y-64220000D01*
X258025000Y-59450000D02*
X254140000Y-59450000D01*
X254140000Y-59450000D02*
X254140000Y-61720000D01*
X254140000Y-61720000D02*
X258025000Y-61720000D01*
X224825000Y-61720000D02*
X228710000Y-61720000D01*
X228710000Y-61720000D02*
X228710000Y-59450000D01*
X228710000Y-59450000D02*
X224825000Y-59450000D01*
X172825000Y-69220000D02*
X176710000Y-69220000D01*
X176710000Y-69220000D02*
X176710000Y-66950000D01*
X176710000Y-66950000D02*
X172825000Y-66950000D01*
X224825000Y-69220000D02*
X228710000Y-69220000D01*
X228710000Y-69220000D02*
X228710000Y-66950000D01*
X228710000Y-66950000D02*
X224825000Y-66950000D01*
X172825000Y-66720000D02*
X176710000Y-66720000D01*
X176710000Y-66720000D02*
X176710000Y-64450000D01*
X176710000Y-64450000D02*
X172825000Y-64450000D01*
X224825000Y-66720000D02*
X228710000Y-66720000D01*
X228710000Y-66720000D02*
X228710000Y-64450000D01*
X228710000Y-64450000D02*
X224825000Y-64450000D01*
X172825000Y-64220000D02*
X176710000Y-64220000D01*
X176710000Y-64220000D02*
X176710000Y-61950000D01*
X176710000Y-61950000D02*
X172825000Y-61950000D01*
X224825000Y-64220000D02*
X228710000Y-64220000D01*
X228710000Y-64220000D02*
X228710000Y-61950000D01*
X228710000Y-61950000D02*
X224825000Y-61950000D01*
X151750000Y-113765000D02*
X165720000Y-113765000D01*
X165720000Y-113765000D02*
X165720000Y-127735000D01*
X165720000Y-127735000D02*
X151750000Y-127735000D01*
X151750000Y-127735000D02*
X151750000Y-113765000D01*
X218425000Y-94715000D02*
X232395000Y-94715000D01*
X232395000Y-94715000D02*
X232395000Y-108685000D01*
X232395000Y-108685000D02*
X218425000Y-108685000D01*
X218425000Y-108685000D02*
X218425000Y-94715000D01*
D10*
X37345000Y-55040000D02*
X37345000Y-72820000D01*
X6865000Y-55040000D02*
X37345000Y-55040000D01*
X6865000Y-60120000D02*
X6865000Y-55040000D01*
X4325000Y-60120000D02*
X6865000Y-60120000D01*
X4325000Y-67740000D02*
X4325000Y-60120000D01*
X6865000Y-67740000D02*
X4325000Y-67740000D01*
X6865000Y-72820000D02*
X6865000Y-67740000D01*
X6865000Y-72820000D02*
X37345000Y-72820000D01*
D11*
X75550000Y-127735000D02*
X75550000Y-113765000D01*
X89520000Y-127735000D02*
X75550000Y-127735000D01*
X89520000Y-113765000D02*
X89520000Y-127735000D01*
X75550000Y-113765000D02*
X89520000Y-113765000D01*
X256525000Y-108685000D02*
X256525000Y-94715000D01*
X270495000Y-108685000D02*
X256525000Y-108685000D01*
X270495000Y-94715000D02*
X270495000Y-108685000D01*
X256525000Y-94715000D02*
X270495000Y-94715000D01*
X247000000Y-127735000D02*
X247000000Y-113765000D01*
X260970000Y-127735000D02*
X247000000Y-127735000D01*
X260970000Y-113765000D02*
X260970000Y-127735000D01*
X247000000Y-113765000D02*
X260970000Y-113765000D01*
X237475000Y-108685000D02*
X237475000Y-94715000D01*
X251445000Y-108685000D02*
X237475000Y-108685000D01*
X251445000Y-94715000D02*
X251445000Y-108685000D01*
X237475000Y-94715000D02*
X251445000Y-94715000D01*
X94600000Y-127735000D02*
X94600000Y-113765000D01*
X108570000Y-127735000D02*
X94600000Y-127735000D01*
X108570000Y-113765000D02*
X108570000Y-127735000D01*
X94600000Y-113765000D02*
X108570000Y-113765000D01*
X27925000Y-108685000D02*
X27925000Y-94715000D01*
X41895000Y-108685000D02*
X27925000Y-108685000D01*
X41895000Y-94715000D02*
X41895000Y-108685000D01*
X27925000Y-94715000D02*
X41895000Y-94715000D01*
X18400000Y-127735000D02*
X18400000Y-113765000D01*
X32370000Y-127735000D02*
X18400000Y-127735000D01*
X32370000Y-113765000D02*
X32370000Y-127735000D01*
X18400000Y-113765000D02*
X32370000Y-113765000D01*
X116954999Y-56015001D02*
X126894999Y-56015001D01*
X125294999Y-68255001D02*
X126894999Y-68255001D01*
X122795999Y-68255001D02*
X123554999Y-68255001D01*
X120295999Y-68255001D02*
X121054999Y-68255001D01*
X116954999Y-68255001D02*
X118553999Y-68255001D01*
X126894999Y-59880001D02*
X126894999Y-56015001D01*
X126894999Y-68255001D02*
X126894999Y-64390001D01*
X116954999Y-59880001D02*
X116954999Y-56015001D01*
X116954999Y-68255001D02*
X116954999Y-64390001D01*
X97904999Y-56015001D02*
X107844999Y-56015001D01*
X106244999Y-68255001D02*
X107844999Y-68255001D01*
X103745999Y-68255001D02*
X104504999Y-68255001D01*
X101245999Y-68255001D02*
X102004999Y-68255001D01*
X97904999Y-68255001D02*
X99503999Y-68255001D01*
X107844999Y-59880001D02*
X107844999Y-56015001D01*
X107844999Y-68255001D02*
X107844999Y-64390001D01*
X97904999Y-59880001D02*
X97904999Y-56015001D01*
X97904999Y-68255001D02*
X97904999Y-64390001D01*
X78854999Y-56015001D02*
X88794999Y-56015001D01*
X87194999Y-68255001D02*
X88794999Y-68255001D01*
X84695999Y-68255001D02*
X85454999Y-68255001D01*
X82195999Y-68255001D02*
X82954999Y-68255001D01*
X78854999Y-68255001D02*
X80453999Y-68255001D01*
X88794999Y-59880001D02*
X88794999Y-56015001D01*
X88794999Y-68255001D02*
X88794999Y-64390001D01*
X78854999Y-59880001D02*
X78854999Y-56015001D01*
X78854999Y-68255001D02*
X78854999Y-64390001D01*
X59804999Y-56015001D02*
X69744999Y-56015001D01*
X68144999Y-68255001D02*
X69744999Y-68255001D01*
X65645999Y-68255001D02*
X66404999Y-68255001D01*
X63145999Y-68255001D02*
X63904999Y-68255001D01*
X59804999Y-68255001D02*
X61403999Y-68255001D01*
X69744999Y-59880001D02*
X69744999Y-56015001D01*
X69744999Y-68255001D02*
X69744999Y-64390001D01*
X59804999Y-59880001D02*
X59804999Y-56015001D01*
X59804999Y-68255001D02*
X59804999Y-64390001D01*
D10*
X233582380Y-97834285D02*
X232582380Y-97834285D01*
X232582380Y-97596190D01*
X232630000Y-97453333D01*
X232725238Y-97358095D01*
X232820476Y-97310476D01*
X233010952Y-97262857D01*
X233153809Y-97262857D01*
X233344285Y-97310476D01*
X233439523Y-97358095D01*
X233534761Y-97453333D01*
X233582380Y-97596190D01*
X233582380Y-97834285D01*
X233582380Y-96310476D02*
X233582380Y-96881904D01*
X233582380Y-96596190D02*
X232582380Y-96596190D01*
X232725238Y-96691428D01*
X232820476Y-96786666D01*
X232868095Y-96881904D01*
X232582380Y-95453333D02*
X232582380Y-95643809D01*
X232630000Y-95739047D01*
X232677619Y-95786666D01*
X232820476Y-95881904D01*
X233010952Y-95929523D01*
X233391904Y-95929523D01*
X233487142Y-95881904D01*
X233534761Y-95834285D01*
X233582380Y-95739047D01*
X233582380Y-95548571D01*
X233534761Y-95453333D01*
X233487142Y-95405714D01*
X233391904Y-95358095D01*
X233153809Y-95358095D01*
X233058571Y-95405714D01*
X233010952Y-95453333D01*
X232963333Y-95548571D01*
X232963333Y-95739047D01*
X233010952Y-95834285D01*
X233058571Y-95881904D01*
X233153809Y-95929523D01*
X42625476Y-113280761D02*
X42768333Y-113328380D01*
X43006428Y-113328380D01*
X43101666Y-113280761D01*
X43149285Y-113233142D01*
X43196904Y-113137904D01*
X43196904Y-113042666D01*
X43149285Y-112947428D01*
X43101666Y-112899809D01*
X43006428Y-112852190D01*
X42815952Y-112804571D01*
X42720714Y-112756952D01*
X42673095Y-112709333D01*
X42625476Y-112614095D01*
X42625476Y-112518857D01*
X42673095Y-112423619D01*
X42720714Y-112376000D01*
X42815952Y-112328380D01*
X43054047Y-112328380D01*
X43196904Y-112376000D01*
X43530238Y-112328380D02*
X43768333Y-113328380D01*
X43958809Y-112614095D01*
X44149285Y-113328380D01*
X44387380Y-112328380D01*
X45292142Y-113328380D02*
X44720714Y-113328380D01*
X45006428Y-113328380D02*
X45006428Y-112328380D01*
X44911190Y-112471238D01*
X44815952Y-112566476D01*
X44720714Y-112614095D01*
X46244523Y-113328380D02*
X45673095Y-113328380D01*
X45958809Y-113328380D02*
X45958809Y-112328380D01*
X45863571Y-112471238D01*
X45768333Y-112566476D01*
X45673095Y-112614095D01*
X128350476Y-94230761D02*
X128493333Y-94278380D01*
X128731428Y-94278380D01*
X128826666Y-94230761D01*
X128874285Y-94183142D01*
X128921904Y-94087904D01*
X128921904Y-93992666D01*
X128874285Y-93897428D01*
X128826666Y-93849809D01*
X128731428Y-93802190D01*
X128540952Y-93754571D01*
X128445714Y-93706952D01*
X128398095Y-93659333D01*
X128350476Y-93564095D01*
X128350476Y-93468857D01*
X128398095Y-93373619D01*
X128445714Y-93326000D01*
X128540952Y-93278380D01*
X128779047Y-93278380D01*
X128921904Y-93326000D01*
X129255238Y-93278380D02*
X129493333Y-94278380D01*
X129683809Y-93564095D01*
X129874285Y-94278380D01*
X130112380Y-93278380D01*
X130445714Y-93373619D02*
X130493333Y-93326000D01*
X130588571Y-93278380D01*
X130826666Y-93278380D01*
X130921904Y-93326000D01*
X130969523Y-93373619D01*
X131017142Y-93468857D01*
X131017142Y-93564095D01*
X130969523Y-93706952D01*
X130398095Y-94278380D01*
X131017142Y-94278380D01*
X131350476Y-93278380D02*
X131969523Y-93278380D01*
X131636190Y-93659333D01*
X131779047Y-93659333D01*
X131874285Y-93706952D01*
X131921904Y-93754571D01*
X131969523Y-93849809D01*
X131969523Y-94087904D01*
X131921904Y-94183142D01*
X131874285Y-94230761D01*
X131779047Y-94278380D01*
X131493333Y-94278380D01*
X131398095Y-94230761D01*
X131350476Y-94183142D01*
X118825476Y-113280761D02*
X118968333Y-113328380D01*
X119206428Y-113328380D01*
X119301666Y-113280761D01*
X119349285Y-113233142D01*
X119396904Y-113137904D01*
X119396904Y-113042666D01*
X119349285Y-112947428D01*
X119301666Y-112899809D01*
X119206428Y-112852190D01*
X119015952Y-112804571D01*
X118920714Y-112756952D01*
X118873095Y-112709333D01*
X118825476Y-112614095D01*
X118825476Y-112518857D01*
X118873095Y-112423619D01*
X118920714Y-112376000D01*
X119015952Y-112328380D01*
X119254047Y-112328380D01*
X119396904Y-112376000D01*
X119730238Y-112328380D02*
X119968333Y-113328380D01*
X120158809Y-112614095D01*
X120349285Y-113328380D01*
X120587380Y-112328380D01*
X121492142Y-113328380D02*
X120920714Y-113328380D01*
X121206428Y-113328380D02*
X121206428Y-112328380D01*
X121111190Y-112471238D01*
X121015952Y-112566476D01*
X120920714Y-112614095D01*
X122063571Y-112756952D02*
X121968333Y-112709333D01*
X121920714Y-112661714D01*
X121873095Y-112566476D01*
X121873095Y-112518857D01*
X121920714Y-112423619D01*
X121968333Y-112376000D01*
X122063571Y-112328380D01*
X122254047Y-112328380D01*
X122349285Y-112376000D01*
X122396904Y-112423619D01*
X122444523Y-112518857D01*
X122444523Y-112566476D01*
X122396904Y-112661714D01*
X122349285Y-112709333D01*
X122254047Y-112756952D01*
X122063571Y-112756952D01*
X121968333Y-112804571D01*
X121920714Y-112852190D01*
X121873095Y-112947428D01*
X121873095Y-113137904D01*
X121920714Y-113233142D01*
X121968333Y-113280761D01*
X122063571Y-113328380D01*
X122254047Y-113328380D01*
X122349285Y-113280761D01*
X122396904Y-113233142D01*
X122444523Y-113137904D01*
X122444523Y-112947428D01*
X122396904Y-112852190D01*
X122349285Y-112804571D01*
X122254047Y-112756952D01*
X109757380Y-116884285D02*
X108757380Y-116884285D01*
X108757380Y-116646190D01*
X108805000Y-116503333D01*
X108900238Y-116408095D01*
X108995476Y-116360476D01*
X109185952Y-116312857D01*
X109328809Y-116312857D01*
X109519285Y-116360476D01*
X109614523Y-116408095D01*
X109709761Y-116503333D01*
X109757380Y-116646190D01*
X109757380Y-116884285D01*
X109757380Y-115360476D02*
X109757380Y-115931904D01*
X109757380Y-115646190D02*
X108757380Y-115646190D01*
X108900238Y-115741428D01*
X108995476Y-115836666D01*
X109043095Y-115931904D01*
X109185952Y-114789047D02*
X109138333Y-114884285D01*
X109090714Y-114931904D01*
X108995476Y-114979523D01*
X108947857Y-114979523D01*
X108852619Y-114931904D01*
X108805000Y-114884285D01*
X108757380Y-114789047D01*
X108757380Y-114598571D01*
X108805000Y-114503333D01*
X108852619Y-114455714D01*
X108947857Y-114408095D01*
X108995476Y-114408095D01*
X109090714Y-114455714D01*
X109138333Y-114503333D01*
X109185952Y-114598571D01*
X109185952Y-114789047D01*
X109233571Y-114884285D01*
X109281190Y-114931904D01*
X109376428Y-114979523D01*
X109566904Y-114979523D01*
X109662142Y-114931904D01*
X109709761Y-114884285D01*
X109757380Y-114789047D01*
X109757380Y-114598571D01*
X109709761Y-114503333D01*
X109662142Y-114455714D01*
X109566904Y-114408095D01*
X109376428Y-114408095D01*
X109281190Y-114455714D01*
X109233571Y-114503333D01*
X109185952Y-114598571D01*
X205007380Y-116884285D02*
X204007380Y-116884285D01*
X204007380Y-116646190D01*
X204055000Y-116503333D01*
X204150238Y-116408095D01*
X204245476Y-116360476D01*
X204435952Y-116312857D01*
X204578809Y-116312857D01*
X204769285Y-116360476D01*
X204864523Y-116408095D01*
X204959761Y-116503333D01*
X205007380Y-116646190D01*
X205007380Y-116884285D01*
X204007380Y-115979523D02*
X204007380Y-115360476D01*
X204388333Y-115693809D01*
X204388333Y-115550952D01*
X204435952Y-115455714D01*
X204483571Y-115408095D01*
X204578809Y-115360476D01*
X204816904Y-115360476D01*
X204912142Y-115408095D01*
X204959761Y-115455714D01*
X205007380Y-115550952D01*
X205007380Y-115836666D01*
X204959761Y-115931904D01*
X204912142Y-115979523D01*
X205007380Y-114408095D02*
X205007380Y-114979523D01*
X205007380Y-114693809D02*
X204007380Y-114693809D01*
X204150238Y-114789047D01*
X204245476Y-114884285D01*
X204293095Y-114979523D01*
X175975476Y-113280761D02*
X176118333Y-113328380D01*
X176356428Y-113328380D01*
X176451666Y-113280761D01*
X176499285Y-113233142D01*
X176546904Y-113137904D01*
X176546904Y-113042666D01*
X176499285Y-112947428D01*
X176451666Y-112899809D01*
X176356428Y-112852190D01*
X176165952Y-112804571D01*
X176070714Y-112756952D01*
X176023095Y-112709333D01*
X175975476Y-112614095D01*
X175975476Y-112518857D01*
X176023095Y-112423619D01*
X176070714Y-112376000D01*
X176165952Y-112328380D01*
X176404047Y-112328380D01*
X176546904Y-112376000D01*
X176880238Y-112328380D02*
X177118333Y-113328380D01*
X177308809Y-112614095D01*
X177499285Y-113328380D01*
X177737380Y-112328380D01*
X178642142Y-113328380D02*
X178070714Y-113328380D01*
X178356428Y-113328380D02*
X178356428Y-112328380D01*
X178261190Y-112471238D01*
X178165952Y-112566476D01*
X178070714Y-112614095D01*
X178975476Y-112328380D02*
X179594523Y-112328380D01*
X179261190Y-112709333D01*
X179404047Y-112709333D01*
X179499285Y-112756952D01*
X179546904Y-112804571D01*
X179594523Y-112899809D01*
X179594523Y-113137904D01*
X179546904Y-113233142D01*
X179499285Y-113280761D01*
X179404047Y-113328380D01*
X179118333Y-113328380D01*
X179023095Y-113280761D01*
X178975476Y-113233142D01*
X52150476Y-94230761D02*
X52293333Y-94278380D01*
X52531428Y-94278380D01*
X52626666Y-94230761D01*
X52674285Y-94183142D01*
X52721904Y-94087904D01*
X52721904Y-93992666D01*
X52674285Y-93897428D01*
X52626666Y-93849809D01*
X52531428Y-93802190D01*
X52340952Y-93754571D01*
X52245714Y-93706952D01*
X52198095Y-93659333D01*
X52150476Y-93564095D01*
X52150476Y-93468857D01*
X52198095Y-93373619D01*
X52245714Y-93326000D01*
X52340952Y-93278380D01*
X52579047Y-93278380D01*
X52721904Y-93326000D01*
X53055238Y-93278380D02*
X53293333Y-94278380D01*
X53483809Y-93564095D01*
X53674285Y-94278380D01*
X53912380Y-93278380D01*
X54817142Y-94278380D02*
X54245714Y-94278380D01*
X54531428Y-94278380D02*
X54531428Y-93278380D01*
X54436190Y-93421238D01*
X54340952Y-93516476D01*
X54245714Y-93564095D01*
X55674285Y-93278380D02*
X55483809Y-93278380D01*
X55388571Y-93326000D01*
X55340952Y-93373619D01*
X55245714Y-93516476D01*
X55198095Y-93706952D01*
X55198095Y-94087904D01*
X55245714Y-94183142D01*
X55293333Y-94230761D01*
X55388571Y-94278380D01*
X55579047Y-94278380D01*
X55674285Y-94230761D01*
X55721904Y-94183142D01*
X55769523Y-94087904D01*
X55769523Y-93849809D01*
X55721904Y-93754571D01*
X55674285Y-93706952D01*
X55579047Y-93659333D01*
X55388571Y-93659333D01*
X55293333Y-93706952D01*
X55245714Y-93754571D01*
X55198095Y-93849809D01*
X214075476Y-113280761D02*
X214218333Y-113328380D01*
X214456428Y-113328380D01*
X214551666Y-113280761D01*
X214599285Y-113233142D01*
X214646904Y-113137904D01*
X214646904Y-113042666D01*
X214599285Y-112947428D01*
X214551666Y-112899809D01*
X214456428Y-112852190D01*
X214265952Y-112804571D01*
X214170714Y-112756952D01*
X214123095Y-112709333D01*
X214075476Y-112614095D01*
X214075476Y-112518857D01*
X214123095Y-112423619D01*
X214170714Y-112376000D01*
X214265952Y-112328380D01*
X214504047Y-112328380D01*
X214646904Y-112376000D01*
X214980238Y-112328380D02*
X215218333Y-113328380D01*
X215408809Y-112614095D01*
X215599285Y-113328380D01*
X215837380Y-112328380D01*
X216170714Y-112423619D02*
X216218333Y-112376000D01*
X216313571Y-112328380D01*
X216551666Y-112328380D01*
X216646904Y-112376000D01*
X216694523Y-112423619D01*
X216742142Y-112518857D01*
X216742142Y-112614095D01*
X216694523Y-112756952D01*
X216123095Y-113328380D01*
X216742142Y-113328380D01*
X217599285Y-112328380D02*
X217408809Y-112328380D01*
X217313571Y-112376000D01*
X217265952Y-112423619D01*
X217170714Y-112566476D01*
X217123095Y-112756952D01*
X217123095Y-113137904D01*
X217170714Y-113233142D01*
X217218333Y-113280761D01*
X217313571Y-113328380D01*
X217504047Y-113328380D01*
X217599285Y-113280761D01*
X217646904Y-113233142D01*
X217694523Y-113137904D01*
X217694523Y-112899809D01*
X217646904Y-112804571D01*
X217599285Y-112756952D01*
X217504047Y-112709333D01*
X217313571Y-112709333D01*
X217218333Y-112756952D01*
X217170714Y-112804571D01*
X217123095Y-112899809D01*
X233601666Y-113280761D02*
X233744523Y-113328380D01*
X233982619Y-113328380D01*
X234077857Y-113280761D01*
X234125476Y-113233142D01*
X234173095Y-113137904D01*
X234173095Y-113042666D01*
X234125476Y-112947428D01*
X234077857Y-112899809D01*
X233982619Y-112852190D01*
X233792142Y-112804571D01*
X233696904Y-112756952D01*
X233649285Y-112709333D01*
X233601666Y-112614095D01*
X233601666Y-112518857D01*
X233649285Y-112423619D01*
X233696904Y-112376000D01*
X233792142Y-112328380D01*
X234030238Y-112328380D01*
X234173095Y-112376000D01*
X234506428Y-112328380D02*
X234744523Y-113328380D01*
X234935000Y-112614095D01*
X235125476Y-113328380D01*
X235363571Y-112328380D01*
X235792142Y-113328380D02*
X235982619Y-113328380D01*
X236077857Y-113280761D01*
X236125476Y-113233142D01*
X236220714Y-113090285D01*
X236268333Y-112899809D01*
X236268333Y-112518857D01*
X236220714Y-112423619D01*
X236173095Y-112376000D01*
X236077857Y-112328380D01*
X235887380Y-112328380D01*
X235792142Y-112376000D01*
X235744523Y-112423619D01*
X235696904Y-112518857D01*
X235696904Y-112756952D01*
X235744523Y-112852190D01*
X235792142Y-112899809D01*
X235887380Y-112947428D01*
X236077857Y-112947428D01*
X236173095Y-112899809D01*
X236220714Y-112852190D01*
X236268333Y-112756952D01*
X195025476Y-113280761D02*
X195168333Y-113328380D01*
X195406428Y-113328380D01*
X195501666Y-113280761D01*
X195549285Y-113233142D01*
X195596904Y-113137904D01*
X195596904Y-113042666D01*
X195549285Y-112947428D01*
X195501666Y-112899809D01*
X195406428Y-112852190D01*
X195215952Y-112804571D01*
X195120714Y-112756952D01*
X195073095Y-112709333D01*
X195025476Y-112614095D01*
X195025476Y-112518857D01*
X195073095Y-112423619D01*
X195120714Y-112376000D01*
X195215952Y-112328380D01*
X195454047Y-112328380D01*
X195596904Y-112376000D01*
X195930238Y-112328380D02*
X196168333Y-113328380D01*
X196358809Y-112614095D01*
X196549285Y-113328380D01*
X196787380Y-112328380D01*
X197120714Y-112423619D02*
X197168333Y-112376000D01*
X197263571Y-112328380D01*
X197501666Y-112328380D01*
X197596904Y-112376000D01*
X197644523Y-112423619D01*
X197692142Y-112518857D01*
X197692142Y-112614095D01*
X197644523Y-112756952D01*
X197073095Y-113328380D01*
X197692142Y-113328380D01*
X198073095Y-112423619D02*
X198120714Y-112376000D01*
X198215952Y-112328380D01*
X198454047Y-112328380D01*
X198549285Y-112376000D01*
X198596904Y-112423619D01*
X198644523Y-112518857D01*
X198644523Y-112614095D01*
X198596904Y-112756952D01*
X198025476Y-113328380D01*
X198644523Y-113328380D01*
X137875476Y-113280761D02*
X138018333Y-113328380D01*
X138256428Y-113328380D01*
X138351666Y-113280761D01*
X138399285Y-113233142D01*
X138446904Y-113137904D01*
X138446904Y-113042666D01*
X138399285Y-112947428D01*
X138351666Y-112899809D01*
X138256428Y-112852190D01*
X138065952Y-112804571D01*
X137970714Y-112756952D01*
X137923095Y-112709333D01*
X137875476Y-112614095D01*
X137875476Y-112518857D01*
X137923095Y-112423619D01*
X137970714Y-112376000D01*
X138065952Y-112328380D01*
X138304047Y-112328380D01*
X138446904Y-112376000D01*
X138780238Y-112328380D02*
X139018333Y-113328380D01*
X139208809Y-112614095D01*
X139399285Y-113328380D01*
X139637380Y-112328380D01*
X139970714Y-112423619D02*
X140018333Y-112376000D01*
X140113571Y-112328380D01*
X140351666Y-112328380D01*
X140446904Y-112376000D01*
X140494523Y-112423619D01*
X140542142Y-112518857D01*
X140542142Y-112614095D01*
X140494523Y-112756952D01*
X139923095Y-113328380D01*
X140542142Y-113328380D01*
X140875476Y-112328380D02*
X141542142Y-112328380D01*
X141113571Y-113328380D01*
X109300476Y-94230761D02*
X109443333Y-94278380D01*
X109681428Y-94278380D01*
X109776666Y-94230761D01*
X109824285Y-94183142D01*
X109871904Y-94087904D01*
X109871904Y-93992666D01*
X109824285Y-93897428D01*
X109776666Y-93849809D01*
X109681428Y-93802190D01*
X109490952Y-93754571D01*
X109395714Y-93706952D01*
X109348095Y-93659333D01*
X109300476Y-93564095D01*
X109300476Y-93468857D01*
X109348095Y-93373619D01*
X109395714Y-93326000D01*
X109490952Y-93278380D01*
X109729047Y-93278380D01*
X109871904Y-93326000D01*
X110205238Y-93278380D02*
X110443333Y-94278380D01*
X110633809Y-93564095D01*
X110824285Y-94278380D01*
X111062380Y-93278380D01*
X111967142Y-94278380D02*
X111395714Y-94278380D01*
X111681428Y-94278380D02*
X111681428Y-93278380D01*
X111586190Y-93421238D01*
X111490952Y-93516476D01*
X111395714Y-93564095D01*
X112348095Y-93373619D02*
X112395714Y-93326000D01*
X112490952Y-93278380D01*
X112729047Y-93278380D01*
X112824285Y-93326000D01*
X112871904Y-93373619D01*
X112919523Y-93468857D01*
X112919523Y-93564095D01*
X112871904Y-93706952D01*
X112300476Y-94278380D01*
X112919523Y-94278380D01*
X90726666Y-94230761D02*
X90869523Y-94278380D01*
X91107619Y-94278380D01*
X91202857Y-94230761D01*
X91250476Y-94183142D01*
X91298095Y-94087904D01*
X91298095Y-93992666D01*
X91250476Y-93897428D01*
X91202857Y-93849809D01*
X91107619Y-93802190D01*
X90917142Y-93754571D01*
X90821904Y-93706952D01*
X90774285Y-93659333D01*
X90726666Y-93564095D01*
X90726666Y-93468857D01*
X90774285Y-93373619D01*
X90821904Y-93326000D01*
X90917142Y-93278380D01*
X91155238Y-93278380D01*
X91298095Y-93326000D01*
X91631428Y-93278380D02*
X91869523Y-94278380D01*
X92060000Y-93564095D01*
X92250476Y-94278380D01*
X92488571Y-93278380D01*
X92774285Y-93278380D02*
X93393333Y-93278380D01*
X93060000Y-93659333D01*
X93202857Y-93659333D01*
X93298095Y-93706952D01*
X93345714Y-93754571D01*
X93393333Y-93849809D01*
X93393333Y-94087904D01*
X93345714Y-94183142D01*
X93298095Y-94230761D01*
X93202857Y-94278380D01*
X92917142Y-94278380D01*
X92821904Y-94230761D01*
X92774285Y-94183142D01*
X10668095Y-121102380D02*
X10668095Y-120102380D01*
X10668095Y-120578571D02*
X11239523Y-120578571D01*
X11239523Y-121102380D02*
X11239523Y-120102380D01*
X12144285Y-120435714D02*
X12144285Y-121102380D01*
X11906190Y-120054761D02*
X11668095Y-120769047D01*
X12287142Y-120769047D01*
X286258095Y-121102380D02*
X286258095Y-120102380D01*
X286258095Y-120578571D02*
X286829523Y-120578571D01*
X286829523Y-121102380D02*
X286829523Y-120102380D01*
X287210476Y-120102380D02*
X287829523Y-120102380D01*
X287496190Y-120483333D01*
X287639047Y-120483333D01*
X287734285Y-120530952D01*
X287781904Y-120578571D01*
X287829523Y-120673809D01*
X287829523Y-120911904D01*
X287781904Y-121007142D01*
X287734285Y-121054761D01*
X287639047Y-121102380D01*
X287353333Y-121102380D01*
X287258095Y-121054761D01*
X287210476Y-121007142D01*
X15748095Y-51252380D02*
X15748095Y-50252380D01*
X15748095Y-50728571D02*
X16319523Y-50728571D01*
X16319523Y-51252380D02*
X16319523Y-50252380D01*
X16748095Y-50347619D02*
X16795714Y-50300000D01*
X16890952Y-50252380D01*
X17129047Y-50252380D01*
X17224285Y-50300000D01*
X17271904Y-50347619D01*
X17319523Y-50442857D01*
X17319523Y-50538095D01*
X17271904Y-50680952D01*
X16700476Y-51252380D01*
X17319523Y-51252380D01*
X281178095Y-51252380D02*
X281178095Y-50252380D01*
X281178095Y-50728571D02*
X281749523Y-50728571D01*
X281749523Y-51252380D02*
X281749523Y-50252380D01*
X282749523Y-51252380D02*
X282178095Y-51252380D01*
X282463809Y-51252380D02*
X282463809Y-50252380D01*
X282368571Y-50395238D01*
X282273333Y-50490476D01*
X282178095Y-50538095D01*
X207210714Y-61037380D02*
X207210714Y-60037380D01*
X207448809Y-60037380D01*
X207591666Y-60085000D01*
X207686904Y-60180238D01*
X207734523Y-60275476D01*
X207782142Y-60465952D01*
X207782142Y-60608809D01*
X207734523Y-60799285D01*
X207686904Y-60894523D01*
X207591666Y-60989761D01*
X207448809Y-61037380D01*
X207210714Y-61037380D01*
X208734523Y-61037380D02*
X208163095Y-61037380D01*
X208448809Y-61037380D02*
X208448809Y-60037380D01*
X208353571Y-60180238D01*
X208258333Y-60275476D01*
X208163095Y-60323095D01*
X209353571Y-60037380D02*
X209448809Y-60037380D01*
X209544047Y-60085000D01*
X209591666Y-60132619D01*
X209639285Y-60227857D01*
X209686904Y-60418333D01*
X209686904Y-60656428D01*
X209639285Y-60846904D01*
X209591666Y-60942142D01*
X209544047Y-60989761D01*
X209448809Y-61037380D01*
X209353571Y-61037380D01*
X209258333Y-60989761D01*
X209210714Y-60942142D01*
X209163095Y-60846904D01*
X209115476Y-60656428D01*
X209115476Y-60418333D01*
X209163095Y-60227857D01*
X209210714Y-60132619D01*
X209258333Y-60085000D01*
X209353571Y-60037380D01*
X207686904Y-63537380D02*
X207686904Y-62537380D01*
X207925000Y-62537380D01*
X208067857Y-62585000D01*
X208163095Y-62680238D01*
X208210714Y-62775476D01*
X208258333Y-62965952D01*
X208258333Y-63108809D01*
X208210714Y-63299285D01*
X208163095Y-63394523D01*
X208067857Y-63489761D01*
X207925000Y-63537380D01*
X207686904Y-63537380D01*
X208829761Y-62965952D02*
X208734523Y-62918333D01*
X208686904Y-62870714D01*
X208639285Y-62775476D01*
X208639285Y-62727857D01*
X208686904Y-62632619D01*
X208734523Y-62585000D01*
X208829761Y-62537380D01*
X209020238Y-62537380D01*
X209115476Y-62585000D01*
X209163095Y-62632619D01*
X209210714Y-62727857D01*
X209210714Y-62775476D01*
X209163095Y-62870714D01*
X209115476Y-62918333D01*
X209020238Y-62965952D01*
X208829761Y-62965952D01*
X208734523Y-63013571D01*
X208686904Y-63061190D01*
X208639285Y-63156428D01*
X208639285Y-63346904D01*
X208686904Y-63442142D01*
X208734523Y-63489761D01*
X208829761Y-63537380D01*
X209020238Y-63537380D01*
X209115476Y-63489761D01*
X209163095Y-63442142D01*
X209210714Y-63346904D01*
X209210714Y-63156428D01*
X209163095Y-63061190D01*
X209115476Y-63013571D01*
X209020238Y-62965952D01*
X201229761Y-67394523D02*
X201277380Y-67251666D01*
X201277380Y-67013571D01*
X201229761Y-66918333D01*
X201182142Y-66870714D01*
X201086904Y-66823095D01*
X200991666Y-66823095D01*
X200896428Y-66870714D01*
X200848809Y-66918333D01*
X200801190Y-67013571D01*
X200753571Y-67204047D01*
X200705952Y-67299285D01*
X200658333Y-67346904D01*
X200563095Y-67394523D01*
X200467857Y-67394523D01*
X200372619Y-67346904D01*
X200325000Y-67299285D01*
X200277380Y-67204047D01*
X200277380Y-66965952D01*
X200325000Y-66823095D01*
X200277380Y-66489761D02*
X201277380Y-66251666D01*
X200563095Y-66061190D01*
X201277380Y-65870714D01*
X200277380Y-65632619D01*
X201277380Y-64727857D02*
X201277380Y-65299285D01*
X201277380Y-65013571D02*
X200277380Y-65013571D01*
X200420238Y-65108809D01*
X200515476Y-65204047D01*
X200563095Y-65299285D01*
X200277380Y-64108809D02*
X200277380Y-64013571D01*
X200325000Y-63918333D01*
X200372619Y-63870714D01*
X200467857Y-63823095D01*
X200658333Y-63775476D01*
X200896428Y-63775476D01*
X201086904Y-63823095D01*
X201182142Y-63870714D01*
X201229761Y-63918333D01*
X201277380Y-64013571D01*
X201277380Y-64108809D01*
X201229761Y-64204047D01*
X201182142Y-64251666D01*
X201086904Y-64299285D01*
X200896428Y-64346904D01*
X200658333Y-64346904D01*
X200467857Y-64299285D01*
X200372619Y-64251666D01*
X200325000Y-64204047D01*
X200277380Y-64108809D01*
X253229761Y-66918333D02*
X253277380Y-66775476D01*
X253277380Y-66537380D01*
X253229761Y-66442142D01*
X253182142Y-66394523D01*
X253086904Y-66346904D01*
X252991666Y-66346904D01*
X252896428Y-66394523D01*
X252848809Y-66442142D01*
X252801190Y-66537380D01*
X252753571Y-66727857D01*
X252705952Y-66823095D01*
X252658333Y-66870714D01*
X252563095Y-66918333D01*
X252467857Y-66918333D01*
X252372619Y-66870714D01*
X252325000Y-66823095D01*
X252277380Y-66727857D01*
X252277380Y-66489761D01*
X252325000Y-66346904D01*
X252277380Y-66013571D02*
X253277380Y-65775476D01*
X252563095Y-65585000D01*
X253277380Y-65394523D01*
X252277380Y-65156428D01*
X253277380Y-64251666D02*
X253277380Y-64823095D01*
X253277380Y-64537380D02*
X252277380Y-64537380D01*
X252420238Y-64632619D01*
X252515476Y-64727857D01*
X252563095Y-64823095D01*
X166926666Y-94230761D02*
X167069523Y-94278380D01*
X167307619Y-94278380D01*
X167402857Y-94230761D01*
X167450476Y-94183142D01*
X167498095Y-94087904D01*
X167498095Y-93992666D01*
X167450476Y-93897428D01*
X167402857Y-93849809D01*
X167307619Y-93802190D01*
X167117142Y-93754571D01*
X167021904Y-93706952D01*
X166974285Y-93659333D01*
X166926666Y-93564095D01*
X166926666Y-93468857D01*
X166974285Y-93373619D01*
X167021904Y-93326000D01*
X167117142Y-93278380D01*
X167355238Y-93278380D01*
X167498095Y-93326000D01*
X167831428Y-93278380D02*
X168069523Y-94278380D01*
X168260000Y-93564095D01*
X168450476Y-94278380D01*
X168688571Y-93278380D01*
X169212380Y-93706952D02*
X169117142Y-93659333D01*
X169069523Y-93611714D01*
X169021904Y-93516476D01*
X169021904Y-93468857D01*
X169069523Y-93373619D01*
X169117142Y-93326000D01*
X169212380Y-93278380D01*
X169402857Y-93278380D01*
X169498095Y-93326000D01*
X169545714Y-93373619D01*
X169593333Y-93468857D01*
X169593333Y-93516476D01*
X169545714Y-93611714D01*
X169498095Y-93659333D01*
X169402857Y-93706952D01*
X169212380Y-93706952D01*
X169117142Y-93754571D01*
X169069523Y-93802190D01*
X169021904Y-93897428D01*
X169021904Y-94087904D01*
X169069523Y-94183142D01*
X169117142Y-94230761D01*
X169212380Y-94278380D01*
X169402857Y-94278380D01*
X169498095Y-94230761D01*
X169545714Y-94183142D01*
X169593333Y-94087904D01*
X169593333Y-93897428D01*
X169545714Y-93802190D01*
X169498095Y-93754571D01*
X169402857Y-93706952D01*
X271225476Y-113280761D02*
X271368333Y-113328380D01*
X271606428Y-113328380D01*
X271701666Y-113280761D01*
X271749285Y-113233142D01*
X271796904Y-113137904D01*
X271796904Y-113042666D01*
X271749285Y-112947428D01*
X271701666Y-112899809D01*
X271606428Y-112852190D01*
X271415952Y-112804571D01*
X271320714Y-112756952D01*
X271273095Y-112709333D01*
X271225476Y-112614095D01*
X271225476Y-112518857D01*
X271273095Y-112423619D01*
X271320714Y-112376000D01*
X271415952Y-112328380D01*
X271654047Y-112328380D01*
X271796904Y-112376000D01*
X272130238Y-112328380D02*
X272368333Y-113328380D01*
X272558809Y-112614095D01*
X272749285Y-113328380D01*
X272987380Y-112328380D01*
X273320714Y-112423619D02*
X273368333Y-112376000D01*
X273463571Y-112328380D01*
X273701666Y-112328380D01*
X273796904Y-112376000D01*
X273844523Y-112423619D01*
X273892142Y-112518857D01*
X273892142Y-112614095D01*
X273844523Y-112756952D01*
X273273095Y-113328380D01*
X273892142Y-113328380D01*
X274463571Y-112756952D02*
X274368333Y-112709333D01*
X274320714Y-112661714D01*
X274273095Y-112566476D01*
X274273095Y-112518857D01*
X274320714Y-112423619D01*
X274368333Y-112376000D01*
X274463571Y-112328380D01*
X274654047Y-112328380D01*
X274749285Y-112376000D01*
X274796904Y-112423619D01*
X274844523Y-112518857D01*
X274844523Y-112566476D01*
X274796904Y-112661714D01*
X274749285Y-112709333D01*
X274654047Y-112756952D01*
X274463571Y-112756952D01*
X274368333Y-112804571D01*
X274320714Y-112852190D01*
X274273095Y-112947428D01*
X274273095Y-113137904D01*
X274320714Y-113233142D01*
X274368333Y-113280761D01*
X274463571Y-113328380D01*
X274654047Y-113328380D01*
X274749285Y-113280761D01*
X274796904Y-113233142D01*
X274844523Y-113137904D01*
X274844523Y-112947428D01*
X274796904Y-112852190D01*
X274749285Y-112804571D01*
X274654047Y-112756952D01*
X185500476Y-94230761D02*
X185643333Y-94278380D01*
X185881428Y-94278380D01*
X185976666Y-94230761D01*
X186024285Y-94183142D01*
X186071904Y-94087904D01*
X186071904Y-93992666D01*
X186024285Y-93897428D01*
X185976666Y-93849809D01*
X185881428Y-93802190D01*
X185690952Y-93754571D01*
X185595714Y-93706952D01*
X185548095Y-93659333D01*
X185500476Y-93564095D01*
X185500476Y-93468857D01*
X185548095Y-93373619D01*
X185595714Y-93326000D01*
X185690952Y-93278380D01*
X185929047Y-93278380D01*
X186071904Y-93326000D01*
X186405238Y-93278380D02*
X186643333Y-94278380D01*
X186833809Y-93564095D01*
X187024285Y-94278380D01*
X187262380Y-93278380D01*
X188167142Y-94278380D02*
X187595714Y-94278380D01*
X187881428Y-94278380D02*
X187881428Y-93278380D01*
X187786190Y-93421238D01*
X187690952Y-93516476D01*
X187595714Y-93564095D01*
X188500476Y-93278380D02*
X189167142Y-93278380D01*
X188738571Y-94278380D01*
X62132380Y-97834285D02*
X61132380Y-97834285D01*
X61132380Y-97596190D01*
X61180000Y-97453333D01*
X61275238Y-97358095D01*
X61370476Y-97310476D01*
X61560952Y-97262857D01*
X61703809Y-97262857D01*
X61894285Y-97310476D01*
X61989523Y-97358095D01*
X62084761Y-97453333D01*
X62132380Y-97596190D01*
X62132380Y-97834285D01*
X61227619Y-96881904D02*
X61180000Y-96834285D01*
X61132380Y-96739047D01*
X61132380Y-96500952D01*
X61180000Y-96405714D01*
X61227619Y-96358095D01*
X61322857Y-96310476D01*
X61418095Y-96310476D01*
X61560952Y-96358095D01*
X62132380Y-96929523D01*
X62132380Y-96310476D01*
X61132380Y-95405714D02*
X61132380Y-95881904D01*
X61608571Y-95929523D01*
X61560952Y-95881904D01*
X61513333Y-95786666D01*
X61513333Y-95548571D01*
X61560952Y-95453333D01*
X61608571Y-95405714D01*
X61703809Y-95358095D01*
X61941904Y-95358095D01*
X62037142Y-95405714D01*
X62084761Y-95453333D01*
X62132380Y-95548571D01*
X62132380Y-95786666D01*
X62084761Y-95881904D01*
X62037142Y-95929523D01*
X61675476Y-113280761D02*
X61818333Y-113328380D01*
X62056428Y-113328380D01*
X62151666Y-113280761D01*
X62199285Y-113233142D01*
X62246904Y-113137904D01*
X62246904Y-113042666D01*
X62199285Y-112947428D01*
X62151666Y-112899809D01*
X62056428Y-112852190D01*
X61865952Y-112804571D01*
X61770714Y-112756952D01*
X61723095Y-112709333D01*
X61675476Y-112614095D01*
X61675476Y-112518857D01*
X61723095Y-112423619D01*
X61770714Y-112376000D01*
X61865952Y-112328380D01*
X62104047Y-112328380D01*
X62246904Y-112376000D01*
X62580238Y-112328380D02*
X62818333Y-113328380D01*
X63008809Y-112614095D01*
X63199285Y-113328380D01*
X63437380Y-112328380D01*
X63770714Y-112423619D02*
X63818333Y-112376000D01*
X63913571Y-112328380D01*
X64151666Y-112328380D01*
X64246904Y-112376000D01*
X64294523Y-112423619D01*
X64342142Y-112518857D01*
X64342142Y-112614095D01*
X64294523Y-112756952D01*
X63723095Y-113328380D01*
X64342142Y-113328380D01*
X65294523Y-113328380D02*
X64723095Y-113328380D01*
X65008809Y-113328380D02*
X65008809Y-112328380D01*
X64913571Y-112471238D01*
X64818333Y-112566476D01*
X64723095Y-112614095D01*
X43082380Y-97834285D02*
X42082380Y-97834285D01*
X42082380Y-97596190D01*
X42130000Y-97453333D01*
X42225238Y-97358095D01*
X42320476Y-97310476D01*
X42510952Y-97262857D01*
X42653809Y-97262857D01*
X42844285Y-97310476D01*
X42939523Y-97358095D01*
X43034761Y-97453333D01*
X43082380Y-97596190D01*
X43082380Y-97834285D01*
X43082380Y-96310476D02*
X43082380Y-96881904D01*
X43082380Y-96596190D02*
X42082380Y-96596190D01*
X42225238Y-96691428D01*
X42320476Y-96786666D01*
X42368095Y-96881904D01*
X42082380Y-95977142D02*
X42082380Y-95310476D01*
X43082380Y-95739047D01*
X281207380Y-116884285D02*
X280207380Y-116884285D01*
X280207380Y-116646190D01*
X280255000Y-116503333D01*
X280350238Y-116408095D01*
X280445476Y-116360476D01*
X280635952Y-116312857D01*
X280778809Y-116312857D01*
X280969285Y-116360476D01*
X281064523Y-116408095D01*
X281159761Y-116503333D01*
X281207380Y-116646190D01*
X281207380Y-116884285D01*
X280207380Y-115979523D02*
X280207380Y-115360476D01*
X280588333Y-115693809D01*
X280588333Y-115550952D01*
X280635952Y-115455714D01*
X280683571Y-115408095D01*
X280778809Y-115360476D01*
X281016904Y-115360476D01*
X281112142Y-115408095D01*
X281159761Y-115455714D01*
X281207380Y-115550952D01*
X281207380Y-115836666D01*
X281159761Y-115931904D01*
X281112142Y-115979523D01*
X280207380Y-114503333D02*
X280207380Y-114693809D01*
X280255000Y-114789047D01*
X280302619Y-114836666D01*
X280445476Y-114931904D01*
X280635952Y-114979523D01*
X281016904Y-114979523D01*
X281112142Y-114931904D01*
X281159761Y-114884285D01*
X281207380Y-114789047D01*
X281207380Y-114598571D01*
X281159761Y-114503333D01*
X281112142Y-114455714D01*
X281016904Y-114408095D01*
X280778809Y-114408095D01*
X280683571Y-114455714D01*
X280635952Y-114503333D01*
X280588333Y-114598571D01*
X280588333Y-114789047D01*
X280635952Y-114884285D01*
X280683571Y-114931904D01*
X280778809Y-114979523D01*
X224057380Y-116884285D02*
X223057380Y-116884285D01*
X223057380Y-116646190D01*
X223105000Y-116503333D01*
X223200238Y-116408095D01*
X223295476Y-116360476D01*
X223485952Y-116312857D01*
X223628809Y-116312857D01*
X223819285Y-116360476D01*
X223914523Y-116408095D01*
X224009761Y-116503333D01*
X224057380Y-116646190D01*
X224057380Y-116884285D01*
X223057380Y-115979523D02*
X223057380Y-115360476D01*
X223438333Y-115693809D01*
X223438333Y-115550952D01*
X223485952Y-115455714D01*
X223533571Y-115408095D01*
X223628809Y-115360476D01*
X223866904Y-115360476D01*
X223962142Y-115408095D01*
X224009761Y-115455714D01*
X224057380Y-115550952D01*
X224057380Y-115836666D01*
X224009761Y-115931904D01*
X223962142Y-115979523D01*
X223057380Y-114455714D02*
X223057380Y-114931904D01*
X223533571Y-114979523D01*
X223485952Y-114931904D01*
X223438333Y-114836666D01*
X223438333Y-114598571D01*
X223485952Y-114503333D01*
X223533571Y-114455714D01*
X223628809Y-114408095D01*
X223866904Y-114408095D01*
X223962142Y-114455714D01*
X224009761Y-114503333D01*
X224057380Y-114598571D01*
X224057380Y-114836666D01*
X224009761Y-114931904D01*
X223962142Y-114979523D01*
X147857380Y-116884285D02*
X146857380Y-116884285D01*
X146857380Y-116646190D01*
X146905000Y-116503333D01*
X147000238Y-116408095D01*
X147095476Y-116360476D01*
X147285952Y-116312857D01*
X147428809Y-116312857D01*
X147619285Y-116360476D01*
X147714523Y-116408095D01*
X147809761Y-116503333D01*
X147857380Y-116646190D01*
X147857380Y-116884285D01*
X146857380Y-115979523D02*
X146857380Y-115360476D01*
X147238333Y-115693809D01*
X147238333Y-115550952D01*
X147285952Y-115455714D01*
X147333571Y-115408095D01*
X147428809Y-115360476D01*
X147666904Y-115360476D01*
X147762142Y-115408095D01*
X147809761Y-115455714D01*
X147857380Y-115550952D01*
X147857380Y-115836666D01*
X147809761Y-115931904D01*
X147762142Y-115979523D01*
X147190714Y-114503333D02*
X147857380Y-114503333D01*
X146809761Y-114741428D02*
X147524047Y-114979523D01*
X147524047Y-114360476D01*
X90707380Y-116884285D02*
X89707380Y-116884285D01*
X89707380Y-116646190D01*
X89755000Y-116503333D01*
X89850238Y-116408095D01*
X89945476Y-116360476D01*
X90135952Y-116312857D01*
X90278809Y-116312857D01*
X90469285Y-116360476D01*
X90564523Y-116408095D01*
X90659761Y-116503333D01*
X90707380Y-116646190D01*
X90707380Y-116884285D01*
X89707380Y-115979523D02*
X89707380Y-115360476D01*
X90088333Y-115693809D01*
X90088333Y-115550952D01*
X90135952Y-115455714D01*
X90183571Y-115408095D01*
X90278809Y-115360476D01*
X90516904Y-115360476D01*
X90612142Y-115408095D01*
X90659761Y-115455714D01*
X90707380Y-115550952D01*
X90707380Y-115836666D01*
X90659761Y-115931904D01*
X90612142Y-115979523D01*
X89707380Y-115027142D02*
X89707380Y-114408095D01*
X90088333Y-114741428D01*
X90088333Y-114598571D01*
X90135952Y-114503333D01*
X90183571Y-114455714D01*
X90278809Y-114408095D01*
X90516904Y-114408095D01*
X90612142Y-114455714D01*
X90659761Y-114503333D01*
X90707380Y-114598571D01*
X90707380Y-114884285D01*
X90659761Y-114979523D01*
X90612142Y-115027142D01*
X271682380Y-97834285D02*
X270682380Y-97834285D01*
X270682380Y-97596190D01*
X270730000Y-97453333D01*
X270825238Y-97358095D01*
X270920476Y-97310476D01*
X271110952Y-97262857D01*
X271253809Y-97262857D01*
X271444285Y-97310476D01*
X271539523Y-97358095D01*
X271634761Y-97453333D01*
X271682380Y-97596190D01*
X271682380Y-97834285D01*
X270682380Y-96929523D02*
X270682380Y-96310476D01*
X271063333Y-96643809D01*
X271063333Y-96500952D01*
X271110952Y-96405714D01*
X271158571Y-96358095D01*
X271253809Y-96310476D01*
X271491904Y-96310476D01*
X271587142Y-96358095D01*
X271634761Y-96405714D01*
X271682380Y-96500952D01*
X271682380Y-96786666D01*
X271634761Y-96881904D01*
X271587142Y-96929523D01*
X270777619Y-95929523D02*
X270730000Y-95881904D01*
X270682380Y-95786666D01*
X270682380Y-95548571D01*
X270730000Y-95453333D01*
X270777619Y-95405714D01*
X270872857Y-95358095D01*
X270968095Y-95358095D01*
X271110952Y-95405714D01*
X271682380Y-95977142D01*
X271682380Y-95358095D01*
X138332380Y-97834285D02*
X137332380Y-97834285D01*
X137332380Y-97596190D01*
X137380000Y-97453333D01*
X137475238Y-97358095D01*
X137570476Y-97310476D01*
X137760952Y-97262857D01*
X137903809Y-97262857D01*
X138094285Y-97310476D01*
X138189523Y-97358095D01*
X138284761Y-97453333D01*
X138332380Y-97596190D01*
X138332380Y-97834285D01*
X137332380Y-96929523D02*
X137332380Y-96310476D01*
X137713333Y-96643809D01*
X137713333Y-96500952D01*
X137760952Y-96405714D01*
X137808571Y-96358095D01*
X137903809Y-96310476D01*
X138141904Y-96310476D01*
X138237142Y-96358095D01*
X138284761Y-96405714D01*
X138332380Y-96500952D01*
X138332380Y-96786666D01*
X138284761Y-96881904D01*
X138237142Y-96929523D01*
X137332380Y-95691428D02*
X137332380Y-95596190D01*
X137380000Y-95500952D01*
X137427619Y-95453333D01*
X137522857Y-95405714D01*
X137713333Y-95358095D01*
X137951428Y-95358095D01*
X138141904Y-95405714D01*
X138237142Y-95453333D01*
X138284761Y-95500952D01*
X138332380Y-95596190D01*
X138332380Y-95691428D01*
X138284761Y-95786666D01*
X138237142Y-95834285D01*
X138141904Y-95881904D01*
X137951428Y-95929523D01*
X137713333Y-95929523D01*
X137522857Y-95881904D01*
X137427619Y-95834285D01*
X137380000Y-95786666D01*
X137332380Y-95691428D01*
X71657380Y-116884285D02*
X70657380Y-116884285D01*
X70657380Y-116646190D01*
X70705000Y-116503333D01*
X70800238Y-116408095D01*
X70895476Y-116360476D01*
X71085952Y-116312857D01*
X71228809Y-116312857D01*
X71419285Y-116360476D01*
X71514523Y-116408095D01*
X71609761Y-116503333D01*
X71657380Y-116646190D01*
X71657380Y-116884285D01*
X70752619Y-115931904D02*
X70705000Y-115884285D01*
X70657380Y-115789047D01*
X70657380Y-115550952D01*
X70705000Y-115455714D01*
X70752619Y-115408095D01*
X70847857Y-115360476D01*
X70943095Y-115360476D01*
X71085952Y-115408095D01*
X71657380Y-115979523D01*
X71657380Y-115360476D01*
X71657380Y-114884285D02*
X71657380Y-114693809D01*
X71609761Y-114598571D01*
X71562142Y-114550952D01*
X71419285Y-114455714D01*
X71228809Y-114408095D01*
X70847857Y-114408095D01*
X70752619Y-114455714D01*
X70705000Y-114503333D01*
X70657380Y-114598571D01*
X70657380Y-114789047D01*
X70705000Y-114884285D01*
X70752619Y-114931904D01*
X70847857Y-114979523D01*
X71085952Y-114979523D01*
X71181190Y-114931904D01*
X71228809Y-114884285D01*
X71276428Y-114789047D01*
X71276428Y-114598571D01*
X71228809Y-114503333D01*
X71181190Y-114455714D01*
X71085952Y-114408095D01*
X262157380Y-116884285D02*
X261157380Y-116884285D01*
X261157380Y-116646190D01*
X261205000Y-116503333D01*
X261300238Y-116408095D01*
X261395476Y-116360476D01*
X261585952Y-116312857D01*
X261728809Y-116312857D01*
X261919285Y-116360476D01*
X262014523Y-116408095D01*
X262109761Y-116503333D01*
X262157380Y-116646190D01*
X262157380Y-116884285D01*
X261252619Y-115931904D02*
X261205000Y-115884285D01*
X261157380Y-115789047D01*
X261157380Y-115550952D01*
X261205000Y-115455714D01*
X261252619Y-115408095D01*
X261347857Y-115360476D01*
X261443095Y-115360476D01*
X261585952Y-115408095D01*
X262157380Y-115979523D01*
X262157380Y-115360476D01*
X261585952Y-114789047D02*
X261538333Y-114884285D01*
X261490714Y-114931904D01*
X261395476Y-114979523D01*
X261347857Y-114979523D01*
X261252619Y-114931904D01*
X261205000Y-114884285D01*
X261157380Y-114789047D01*
X261157380Y-114598571D01*
X261205000Y-114503333D01*
X261252619Y-114455714D01*
X261347857Y-114408095D01*
X261395476Y-114408095D01*
X261490714Y-114455714D01*
X261538333Y-114503333D01*
X261585952Y-114598571D01*
X261585952Y-114789047D01*
X261633571Y-114884285D01*
X261681190Y-114931904D01*
X261776428Y-114979523D01*
X261966904Y-114979523D01*
X262062142Y-114931904D01*
X262109761Y-114884285D01*
X262157380Y-114789047D01*
X262157380Y-114598571D01*
X262109761Y-114503333D01*
X262062142Y-114455714D01*
X261966904Y-114408095D01*
X261776428Y-114408095D01*
X261681190Y-114455714D01*
X261633571Y-114503333D01*
X261585952Y-114598571D01*
X195482380Y-97834285D02*
X194482380Y-97834285D01*
X194482380Y-97596190D01*
X194530000Y-97453333D01*
X194625238Y-97358095D01*
X194720476Y-97310476D01*
X194910952Y-97262857D01*
X195053809Y-97262857D01*
X195244285Y-97310476D01*
X195339523Y-97358095D01*
X195434761Y-97453333D01*
X195482380Y-97596190D01*
X195482380Y-97834285D01*
X194577619Y-96881904D02*
X194530000Y-96834285D01*
X194482380Y-96739047D01*
X194482380Y-96500952D01*
X194530000Y-96405714D01*
X194577619Y-96358095D01*
X194672857Y-96310476D01*
X194768095Y-96310476D01*
X194910952Y-96358095D01*
X195482380Y-96929523D01*
X195482380Y-96310476D01*
X194482380Y-95977142D02*
X194482380Y-95310476D01*
X195482380Y-95739047D01*
X128807380Y-116884285D02*
X127807380Y-116884285D01*
X127807380Y-116646190D01*
X127855000Y-116503333D01*
X127950238Y-116408095D01*
X128045476Y-116360476D01*
X128235952Y-116312857D01*
X128378809Y-116312857D01*
X128569285Y-116360476D01*
X128664523Y-116408095D01*
X128759761Y-116503333D01*
X128807380Y-116646190D01*
X128807380Y-116884285D01*
X127902619Y-115931904D02*
X127855000Y-115884285D01*
X127807380Y-115789047D01*
X127807380Y-115550952D01*
X127855000Y-115455714D01*
X127902619Y-115408095D01*
X127997857Y-115360476D01*
X128093095Y-115360476D01*
X128235952Y-115408095D01*
X128807380Y-115979523D01*
X128807380Y-115360476D01*
X127807380Y-114503333D02*
X127807380Y-114693809D01*
X127855000Y-114789047D01*
X127902619Y-114836666D01*
X128045476Y-114931904D01*
X128235952Y-114979523D01*
X128616904Y-114979523D01*
X128712142Y-114931904D01*
X128759761Y-114884285D01*
X128807380Y-114789047D01*
X128807380Y-114598571D01*
X128759761Y-114503333D01*
X128712142Y-114455714D01*
X128616904Y-114408095D01*
X128378809Y-114408095D01*
X128283571Y-114455714D01*
X128235952Y-114503333D01*
X128188333Y-114598571D01*
X128188333Y-114789047D01*
X128235952Y-114884285D01*
X128283571Y-114931904D01*
X128378809Y-114979523D01*
X252632380Y-97834285D02*
X251632380Y-97834285D01*
X251632380Y-97596190D01*
X251680000Y-97453333D01*
X251775238Y-97358095D01*
X251870476Y-97310476D01*
X252060952Y-97262857D01*
X252203809Y-97262857D01*
X252394285Y-97310476D01*
X252489523Y-97358095D01*
X252584761Y-97453333D01*
X252632380Y-97596190D01*
X252632380Y-97834285D01*
X251727619Y-96881904D02*
X251680000Y-96834285D01*
X251632380Y-96739047D01*
X251632380Y-96500952D01*
X251680000Y-96405714D01*
X251727619Y-96358095D01*
X251822857Y-96310476D01*
X251918095Y-96310476D01*
X252060952Y-96358095D01*
X252632380Y-96929523D01*
X252632380Y-96310476D01*
X251965714Y-95453333D02*
X252632380Y-95453333D01*
X251584761Y-95691428D02*
X252299047Y-95929523D01*
X252299047Y-95310476D01*
X185957380Y-116884285D02*
X184957380Y-116884285D01*
X184957380Y-116646190D01*
X185005000Y-116503333D01*
X185100238Y-116408095D01*
X185195476Y-116360476D01*
X185385952Y-116312857D01*
X185528809Y-116312857D01*
X185719285Y-116360476D01*
X185814523Y-116408095D01*
X185909761Y-116503333D01*
X185957380Y-116646190D01*
X185957380Y-116884285D01*
X185052619Y-115931904D02*
X185005000Y-115884285D01*
X184957380Y-115789047D01*
X184957380Y-115550952D01*
X185005000Y-115455714D01*
X185052619Y-115408095D01*
X185147857Y-115360476D01*
X185243095Y-115360476D01*
X185385952Y-115408095D01*
X185957380Y-115979523D01*
X185957380Y-115360476D01*
X184957380Y-115027142D02*
X184957380Y-114408095D01*
X185338333Y-114741428D01*
X185338333Y-114598571D01*
X185385952Y-114503333D01*
X185433571Y-114455714D01*
X185528809Y-114408095D01*
X185766904Y-114408095D01*
X185862142Y-114455714D01*
X185909761Y-114503333D01*
X185957380Y-114598571D01*
X185957380Y-114884285D01*
X185909761Y-114979523D01*
X185862142Y-115027142D01*
X119282380Y-97834285D02*
X118282380Y-97834285D01*
X118282380Y-97596190D01*
X118330000Y-97453333D01*
X118425238Y-97358095D01*
X118520476Y-97310476D01*
X118710952Y-97262857D01*
X118853809Y-97262857D01*
X119044285Y-97310476D01*
X119139523Y-97358095D01*
X119234761Y-97453333D01*
X119282380Y-97596190D01*
X119282380Y-97834285D01*
X118377619Y-96881904D02*
X118330000Y-96834285D01*
X118282380Y-96739047D01*
X118282380Y-96500952D01*
X118330000Y-96405714D01*
X118377619Y-96358095D01*
X118472857Y-96310476D01*
X118568095Y-96310476D01*
X118710952Y-96358095D01*
X119282380Y-96929523D01*
X119282380Y-96310476D01*
X118377619Y-95929523D02*
X118330000Y-95881904D01*
X118282380Y-95786666D01*
X118282380Y-95548571D01*
X118330000Y-95453333D01*
X118377619Y-95405714D01*
X118472857Y-95358095D01*
X118568095Y-95358095D01*
X118710952Y-95405714D01*
X119282380Y-95977142D01*
X119282380Y-95358095D01*
X52607380Y-116884285D02*
X51607380Y-116884285D01*
X51607380Y-116646190D01*
X51655000Y-116503333D01*
X51750238Y-116408095D01*
X51845476Y-116360476D01*
X52035952Y-116312857D01*
X52178809Y-116312857D01*
X52369285Y-116360476D01*
X52464523Y-116408095D01*
X52559761Y-116503333D01*
X52607380Y-116646190D01*
X52607380Y-116884285D01*
X51702619Y-115931904D02*
X51655000Y-115884285D01*
X51607380Y-115789047D01*
X51607380Y-115550952D01*
X51655000Y-115455714D01*
X51702619Y-115408095D01*
X51797857Y-115360476D01*
X51893095Y-115360476D01*
X52035952Y-115408095D01*
X52607380Y-115979523D01*
X52607380Y-115360476D01*
X52607380Y-114408095D02*
X52607380Y-114979523D01*
X52607380Y-114693809D02*
X51607380Y-114693809D01*
X51750238Y-114789047D01*
X51845476Y-114884285D01*
X51893095Y-114979523D01*
X243107380Y-116884285D02*
X242107380Y-116884285D01*
X242107380Y-116646190D01*
X242155000Y-116503333D01*
X242250238Y-116408095D01*
X242345476Y-116360476D01*
X242535952Y-116312857D01*
X242678809Y-116312857D01*
X242869285Y-116360476D01*
X242964523Y-116408095D01*
X243059761Y-116503333D01*
X243107380Y-116646190D01*
X243107380Y-116884285D01*
X242202619Y-115931904D02*
X242155000Y-115884285D01*
X242107380Y-115789047D01*
X242107380Y-115550952D01*
X242155000Y-115455714D01*
X242202619Y-115408095D01*
X242297857Y-115360476D01*
X242393095Y-115360476D01*
X242535952Y-115408095D01*
X243107380Y-115979523D01*
X243107380Y-115360476D01*
X242107380Y-114741428D02*
X242107380Y-114646190D01*
X242155000Y-114550952D01*
X242202619Y-114503333D01*
X242297857Y-114455714D01*
X242488333Y-114408095D01*
X242726428Y-114408095D01*
X242916904Y-114455714D01*
X243012142Y-114503333D01*
X243059761Y-114550952D01*
X243107380Y-114646190D01*
X243107380Y-114741428D01*
X243059761Y-114836666D01*
X243012142Y-114884285D01*
X242916904Y-114931904D01*
X242726428Y-114979523D01*
X242488333Y-114979523D01*
X242297857Y-114931904D01*
X242202619Y-114884285D01*
X242155000Y-114836666D01*
X242107380Y-114741428D01*
X176432380Y-97834285D02*
X175432380Y-97834285D01*
X175432380Y-97596190D01*
X175480000Y-97453333D01*
X175575238Y-97358095D01*
X175670476Y-97310476D01*
X175860952Y-97262857D01*
X176003809Y-97262857D01*
X176194285Y-97310476D01*
X176289523Y-97358095D01*
X176384761Y-97453333D01*
X176432380Y-97596190D01*
X176432380Y-97834285D01*
X176432380Y-96310476D02*
X176432380Y-96881904D01*
X176432380Y-96596190D02*
X175432380Y-96596190D01*
X175575238Y-96691428D01*
X175670476Y-96786666D01*
X175718095Y-96881904D01*
X176432380Y-95834285D02*
X176432380Y-95643809D01*
X176384761Y-95548571D01*
X176337142Y-95500952D01*
X176194285Y-95405714D01*
X176003809Y-95358095D01*
X175622857Y-95358095D01*
X175527619Y-95405714D01*
X175480000Y-95453333D01*
X175432380Y-95548571D01*
X175432380Y-95739047D01*
X175480000Y-95834285D01*
X175527619Y-95881904D01*
X175622857Y-95929523D01*
X175860952Y-95929523D01*
X175956190Y-95881904D01*
X176003809Y-95834285D01*
X176051428Y-95739047D01*
X176051428Y-95548571D01*
X176003809Y-95453333D01*
X175956190Y-95405714D01*
X175860952Y-95358095D01*
X166907380Y-116884285D02*
X165907380Y-116884285D01*
X165907380Y-116646190D01*
X165955000Y-116503333D01*
X166050238Y-116408095D01*
X166145476Y-116360476D01*
X166335952Y-116312857D01*
X166478809Y-116312857D01*
X166669285Y-116360476D01*
X166764523Y-116408095D01*
X166859761Y-116503333D01*
X166907380Y-116646190D01*
X166907380Y-116884285D01*
X166907380Y-115360476D02*
X166907380Y-115931904D01*
X166907380Y-115646190D02*
X165907380Y-115646190D01*
X166050238Y-115741428D01*
X166145476Y-115836666D01*
X166193095Y-115931904D01*
X165907380Y-114455714D02*
X165907380Y-114931904D01*
X166383571Y-114979523D01*
X166335952Y-114931904D01*
X166288333Y-114836666D01*
X166288333Y-114598571D01*
X166335952Y-114503333D01*
X166383571Y-114455714D01*
X166478809Y-114408095D01*
X166716904Y-114408095D01*
X166812142Y-114455714D01*
X166859761Y-114503333D01*
X166907380Y-114598571D01*
X166907380Y-114836666D01*
X166859761Y-114931904D01*
X166812142Y-114979523D01*
X100232380Y-97834285D02*
X99232380Y-97834285D01*
X99232380Y-97596190D01*
X99280000Y-97453333D01*
X99375238Y-97358095D01*
X99470476Y-97310476D01*
X99660952Y-97262857D01*
X99803809Y-97262857D01*
X99994285Y-97310476D01*
X100089523Y-97358095D01*
X100184761Y-97453333D01*
X100232380Y-97596190D01*
X100232380Y-97834285D01*
X100232380Y-96310476D02*
X100232380Y-96881904D01*
X100232380Y-96596190D02*
X99232380Y-96596190D01*
X99375238Y-96691428D01*
X99470476Y-96786666D01*
X99518095Y-96881904D01*
X99565714Y-95453333D02*
X100232380Y-95453333D01*
X99184761Y-95691428D02*
X99899047Y-95929523D01*
X99899047Y-95310476D01*
X33557380Y-116884285D02*
X32557380Y-116884285D01*
X32557380Y-116646190D01*
X32605000Y-116503333D01*
X32700238Y-116408095D01*
X32795476Y-116360476D01*
X32985952Y-116312857D01*
X33128809Y-116312857D01*
X33319285Y-116360476D01*
X33414523Y-116408095D01*
X33509761Y-116503333D01*
X33557380Y-116646190D01*
X33557380Y-116884285D01*
X33557380Y-115360476D02*
X33557380Y-115931904D01*
X33557380Y-115646190D02*
X32557380Y-115646190D01*
X32700238Y-115741428D01*
X32795476Y-115836666D01*
X32843095Y-115931904D01*
X32557380Y-115027142D02*
X32557380Y-114408095D01*
X32938333Y-114741428D01*
X32938333Y-114598571D01*
X32985952Y-114503333D01*
X33033571Y-114455714D01*
X33128809Y-114408095D01*
X33366904Y-114408095D01*
X33462142Y-114455714D01*
X33509761Y-114503333D01*
X33557380Y-114598571D01*
X33557380Y-114884285D01*
X33509761Y-114979523D01*
X33462142Y-115027142D01*
X169210714Y-61037380D02*
X169210714Y-60037380D01*
X169448809Y-60037380D01*
X169591666Y-60085000D01*
X169686904Y-60180238D01*
X169734523Y-60275476D01*
X169782142Y-60465952D01*
X169782142Y-60608809D01*
X169734523Y-60799285D01*
X169686904Y-60894523D01*
X169591666Y-60989761D01*
X169448809Y-61037380D01*
X169210714Y-61037380D01*
X170734523Y-61037380D02*
X170163095Y-61037380D01*
X170448809Y-61037380D02*
X170448809Y-60037380D01*
X170353571Y-60180238D01*
X170258333Y-60275476D01*
X170163095Y-60323095D01*
X171115476Y-60132619D02*
X171163095Y-60085000D01*
X171258333Y-60037380D01*
X171496428Y-60037380D01*
X171591666Y-60085000D01*
X171639285Y-60132619D01*
X171686904Y-60227857D01*
X171686904Y-60323095D01*
X171639285Y-60465952D01*
X171067857Y-61037380D01*
X171686904Y-61037380D01*
X259210714Y-62857380D02*
X259210714Y-61857380D01*
X259448809Y-61857380D01*
X259591666Y-61905000D01*
X259686904Y-62000238D01*
X259734523Y-62095476D01*
X259782142Y-62285952D01*
X259782142Y-62428809D01*
X259734523Y-62619285D01*
X259686904Y-62714523D01*
X259591666Y-62809761D01*
X259448809Y-62857380D01*
X259210714Y-62857380D01*
X260734523Y-62857380D02*
X260163095Y-62857380D01*
X260448809Y-62857380D02*
X260448809Y-61857380D01*
X260353571Y-62000238D01*
X260258333Y-62095476D01*
X260163095Y-62143095D01*
X261686904Y-62857380D02*
X261115476Y-62857380D01*
X261401190Y-62857380D02*
X261401190Y-61857380D01*
X261305952Y-62000238D01*
X261210714Y-62095476D01*
X261115476Y-62143095D01*
X259686904Y-61037380D02*
X259686904Y-60037380D01*
X259925000Y-60037380D01*
X260067857Y-60085000D01*
X260163095Y-60180238D01*
X260210714Y-60275476D01*
X260258333Y-60465952D01*
X260258333Y-60608809D01*
X260210714Y-60799285D01*
X260163095Y-60894523D01*
X260067857Y-60989761D01*
X259925000Y-61037380D01*
X259686904Y-61037380D01*
X260734523Y-61037380D02*
X260925000Y-61037380D01*
X261020238Y-60989761D01*
X261067857Y-60942142D01*
X261163095Y-60799285D01*
X261210714Y-60608809D01*
X261210714Y-60227857D01*
X261163095Y-60132619D01*
X261115476Y-60085000D01*
X261020238Y-60037380D01*
X260829761Y-60037380D01*
X260734523Y-60085000D01*
X260686904Y-60132619D01*
X260639285Y-60227857D01*
X260639285Y-60465952D01*
X260686904Y-60561190D01*
X260734523Y-60608809D01*
X260829761Y-60656428D01*
X261020238Y-60656428D01*
X261115476Y-60608809D01*
X261163095Y-60561190D01*
X261210714Y-60465952D01*
X221686904Y-61037380D02*
X221686904Y-60037380D01*
X221925000Y-60037380D01*
X222067857Y-60085000D01*
X222163095Y-60180238D01*
X222210714Y-60275476D01*
X222258333Y-60465952D01*
X222258333Y-60608809D01*
X222210714Y-60799285D01*
X222163095Y-60894523D01*
X222067857Y-60989761D01*
X221925000Y-61037380D01*
X221686904Y-61037380D01*
X222591666Y-60037380D02*
X223258333Y-60037380D01*
X222829761Y-61037380D01*
X169686904Y-68537380D02*
X169686904Y-67537380D01*
X169925000Y-67537380D01*
X170067857Y-67585000D01*
X170163095Y-67680238D01*
X170210714Y-67775476D01*
X170258333Y-67965952D01*
X170258333Y-68108809D01*
X170210714Y-68299285D01*
X170163095Y-68394523D01*
X170067857Y-68489761D01*
X169925000Y-68537380D01*
X169686904Y-68537380D01*
X171115476Y-67537380D02*
X170925000Y-67537380D01*
X170829761Y-67585000D01*
X170782142Y-67632619D01*
X170686904Y-67775476D01*
X170639285Y-67965952D01*
X170639285Y-68346904D01*
X170686904Y-68442142D01*
X170734523Y-68489761D01*
X170829761Y-68537380D01*
X171020238Y-68537380D01*
X171115476Y-68489761D01*
X171163095Y-68442142D01*
X171210714Y-68346904D01*
X171210714Y-68108809D01*
X171163095Y-68013571D01*
X171115476Y-67965952D01*
X171020238Y-67918333D01*
X170829761Y-67918333D01*
X170734523Y-67965952D01*
X170686904Y-68013571D01*
X170639285Y-68108809D01*
X221611904Y-68387380D02*
X221611904Y-67387380D01*
X221850000Y-67387380D01*
X221992857Y-67435000D01*
X222088095Y-67530238D01*
X222135714Y-67625476D01*
X222183333Y-67815952D01*
X222183333Y-67958809D01*
X222135714Y-68149285D01*
X222088095Y-68244523D01*
X221992857Y-68339761D01*
X221850000Y-68387380D01*
X221611904Y-68387380D01*
X223088095Y-67387380D02*
X222611904Y-67387380D01*
X222564285Y-67863571D01*
X222611904Y-67815952D01*
X222707142Y-67768333D01*
X222945238Y-67768333D01*
X223040476Y-67815952D01*
X223088095Y-67863571D01*
X223135714Y-67958809D01*
X223135714Y-68196904D01*
X223088095Y-68292142D01*
X223040476Y-68339761D01*
X222945238Y-68387380D01*
X222707142Y-68387380D01*
X222611904Y-68339761D01*
X222564285Y-68292142D01*
X169686904Y-66037380D02*
X169686904Y-65037380D01*
X169925000Y-65037380D01*
X170067857Y-65085000D01*
X170163095Y-65180238D01*
X170210714Y-65275476D01*
X170258333Y-65465952D01*
X170258333Y-65608809D01*
X170210714Y-65799285D01*
X170163095Y-65894523D01*
X170067857Y-65989761D01*
X169925000Y-66037380D01*
X169686904Y-66037380D01*
X171115476Y-65370714D02*
X171115476Y-66037380D01*
X170877380Y-64989761D02*
X170639285Y-65704047D01*
X171258333Y-65704047D01*
X221686904Y-66037380D02*
X221686904Y-65037380D01*
X221925000Y-65037380D01*
X222067857Y-65085000D01*
X222163095Y-65180238D01*
X222210714Y-65275476D01*
X222258333Y-65465952D01*
X222258333Y-65608809D01*
X222210714Y-65799285D01*
X222163095Y-65894523D01*
X222067857Y-65989761D01*
X221925000Y-66037380D01*
X221686904Y-66037380D01*
X222591666Y-65037380D02*
X223210714Y-65037380D01*
X222877380Y-65418333D01*
X223020238Y-65418333D01*
X223115476Y-65465952D01*
X223163095Y-65513571D01*
X223210714Y-65608809D01*
X223210714Y-65846904D01*
X223163095Y-65942142D01*
X223115476Y-65989761D01*
X223020238Y-66037380D01*
X222734523Y-66037380D01*
X222639285Y-65989761D01*
X222591666Y-65942142D01*
X169686904Y-63537380D02*
X169686904Y-62537380D01*
X169925000Y-62537380D01*
X170067857Y-62585000D01*
X170163095Y-62680238D01*
X170210714Y-62775476D01*
X170258333Y-62965952D01*
X170258333Y-63108809D01*
X170210714Y-63299285D01*
X170163095Y-63394523D01*
X170067857Y-63489761D01*
X169925000Y-63537380D01*
X169686904Y-63537380D01*
X170639285Y-62632619D02*
X170686904Y-62585000D01*
X170782142Y-62537380D01*
X171020238Y-62537380D01*
X171115476Y-62585000D01*
X171163095Y-62632619D01*
X171210714Y-62727857D01*
X171210714Y-62823095D01*
X171163095Y-62965952D01*
X170591666Y-63537380D01*
X171210714Y-63537380D01*
X221686904Y-63537380D02*
X221686904Y-62537380D01*
X221925000Y-62537380D01*
X222067857Y-62585000D01*
X222163095Y-62680238D01*
X222210714Y-62775476D01*
X222258333Y-62965952D01*
X222258333Y-63108809D01*
X222210714Y-63299285D01*
X222163095Y-63394523D01*
X222067857Y-63489761D01*
X221925000Y-63537380D01*
X221686904Y-63537380D01*
X223210714Y-63537380D02*
X222639285Y-63537380D01*
X222925000Y-63537380D02*
X222925000Y-62537380D01*
X222829761Y-62680238D01*
X222734523Y-62775476D01*
X222639285Y-62823095D01*
X157401666Y-113280761D02*
X157544523Y-113328380D01*
X157782619Y-113328380D01*
X157877857Y-113280761D01*
X157925476Y-113233142D01*
X157973095Y-113137904D01*
X157973095Y-113042666D01*
X157925476Y-112947428D01*
X157877857Y-112899809D01*
X157782619Y-112852190D01*
X157592142Y-112804571D01*
X157496904Y-112756952D01*
X157449285Y-112709333D01*
X157401666Y-112614095D01*
X157401666Y-112518857D01*
X157449285Y-112423619D01*
X157496904Y-112376000D01*
X157592142Y-112328380D01*
X157830238Y-112328380D01*
X157973095Y-112376000D01*
X158306428Y-112328380D02*
X158544523Y-113328380D01*
X158735000Y-112614095D01*
X158925476Y-113328380D01*
X159163571Y-112328380D01*
X159973095Y-112661714D02*
X159973095Y-113328380D01*
X159735000Y-112280761D02*
X159496904Y-112995047D01*
X160115952Y-112995047D01*
X224076666Y-94230761D02*
X224219523Y-94278380D01*
X224457619Y-94278380D01*
X224552857Y-94230761D01*
X224600476Y-94183142D01*
X224648095Y-94087904D01*
X224648095Y-93992666D01*
X224600476Y-93897428D01*
X224552857Y-93849809D01*
X224457619Y-93802190D01*
X224267142Y-93754571D01*
X224171904Y-93706952D01*
X224124285Y-93659333D01*
X224076666Y-93564095D01*
X224076666Y-93468857D01*
X224124285Y-93373619D01*
X224171904Y-93326000D01*
X224267142Y-93278380D01*
X224505238Y-93278380D01*
X224648095Y-93326000D01*
X224981428Y-93278380D02*
X225219523Y-94278380D01*
X225410000Y-93564095D01*
X225600476Y-94278380D01*
X225838571Y-93278380D01*
X226695714Y-93278380D02*
X226219523Y-93278380D01*
X226171904Y-93754571D01*
X226219523Y-93706952D01*
X226314761Y-93659333D01*
X226552857Y-93659333D01*
X226648095Y-93706952D01*
X226695714Y-93754571D01*
X226743333Y-93849809D01*
X226743333Y-94087904D01*
X226695714Y-94183142D01*
X226648095Y-94230761D01*
X226552857Y-94278380D01*
X226314761Y-94278380D01*
X226219523Y-94230761D01*
X226171904Y-94183142D01*
X80725476Y-113280761D02*
X80868333Y-113328380D01*
X81106428Y-113328380D01*
X81201666Y-113280761D01*
X81249285Y-113233142D01*
X81296904Y-113137904D01*
X81296904Y-113042666D01*
X81249285Y-112947428D01*
X81201666Y-112899809D01*
X81106428Y-112852190D01*
X80915952Y-112804571D01*
X80820714Y-112756952D01*
X80773095Y-112709333D01*
X80725476Y-112614095D01*
X80725476Y-112518857D01*
X80773095Y-112423619D01*
X80820714Y-112376000D01*
X80915952Y-112328380D01*
X81154047Y-112328380D01*
X81296904Y-112376000D01*
X81630238Y-112328380D02*
X81868333Y-113328380D01*
X82058809Y-112614095D01*
X82249285Y-113328380D01*
X82487380Y-112328380D01*
X82820714Y-112423619D02*
X82868333Y-112376000D01*
X82963571Y-112328380D01*
X83201666Y-112328380D01*
X83296904Y-112376000D01*
X83344523Y-112423619D01*
X83392142Y-112518857D01*
X83392142Y-112614095D01*
X83344523Y-112756952D01*
X82773095Y-113328380D01*
X83392142Y-113328380D01*
X84296904Y-112328380D02*
X83820714Y-112328380D01*
X83773095Y-112804571D01*
X83820714Y-112756952D01*
X83915952Y-112709333D01*
X84154047Y-112709333D01*
X84249285Y-112756952D01*
X84296904Y-112804571D01*
X84344523Y-112899809D01*
X84344523Y-113137904D01*
X84296904Y-113233142D01*
X84249285Y-113280761D01*
X84154047Y-113328380D01*
X83915952Y-113328380D01*
X83820714Y-113280761D01*
X83773095Y-113233142D01*
X261700476Y-94230761D02*
X261843333Y-94278380D01*
X262081428Y-94278380D01*
X262176666Y-94230761D01*
X262224285Y-94183142D01*
X262271904Y-94087904D01*
X262271904Y-93992666D01*
X262224285Y-93897428D01*
X262176666Y-93849809D01*
X262081428Y-93802190D01*
X261890952Y-93754571D01*
X261795714Y-93706952D01*
X261748095Y-93659333D01*
X261700476Y-93564095D01*
X261700476Y-93468857D01*
X261748095Y-93373619D01*
X261795714Y-93326000D01*
X261890952Y-93278380D01*
X262129047Y-93278380D01*
X262271904Y-93326000D01*
X262605238Y-93278380D02*
X262843333Y-94278380D01*
X263033809Y-93564095D01*
X263224285Y-94278380D01*
X263462380Y-93278380D01*
X263795714Y-93373619D02*
X263843333Y-93326000D01*
X263938571Y-93278380D01*
X264176666Y-93278380D01*
X264271904Y-93326000D01*
X264319523Y-93373619D01*
X264367142Y-93468857D01*
X264367142Y-93564095D01*
X264319523Y-93706952D01*
X263748095Y-94278380D01*
X264367142Y-94278380D01*
X265224285Y-93611714D02*
X265224285Y-94278380D01*
X264986190Y-93230761D02*
X264748095Y-93945047D01*
X265367142Y-93945047D01*
X252175476Y-113280761D02*
X252318333Y-113328380D01*
X252556428Y-113328380D01*
X252651666Y-113280761D01*
X252699285Y-113233142D01*
X252746904Y-113137904D01*
X252746904Y-113042666D01*
X252699285Y-112947428D01*
X252651666Y-112899809D01*
X252556428Y-112852190D01*
X252365952Y-112804571D01*
X252270714Y-112756952D01*
X252223095Y-112709333D01*
X252175476Y-112614095D01*
X252175476Y-112518857D01*
X252223095Y-112423619D01*
X252270714Y-112376000D01*
X252365952Y-112328380D01*
X252604047Y-112328380D01*
X252746904Y-112376000D01*
X253080238Y-112328380D02*
X253318333Y-113328380D01*
X253508809Y-112614095D01*
X253699285Y-113328380D01*
X253937380Y-112328380D01*
X254842142Y-113328380D02*
X254270714Y-113328380D01*
X254556428Y-113328380D02*
X254556428Y-112328380D01*
X254461190Y-112471238D01*
X254365952Y-112566476D01*
X254270714Y-112614095D01*
X255318333Y-113328380D02*
X255508809Y-113328380D01*
X255604047Y-113280761D01*
X255651666Y-113233142D01*
X255746904Y-113090285D01*
X255794523Y-112899809D01*
X255794523Y-112518857D01*
X255746904Y-112423619D01*
X255699285Y-112376000D01*
X255604047Y-112328380D01*
X255413571Y-112328380D01*
X255318333Y-112376000D01*
X255270714Y-112423619D01*
X255223095Y-112518857D01*
X255223095Y-112756952D01*
X255270714Y-112852190D01*
X255318333Y-112899809D01*
X255413571Y-112947428D01*
X255604047Y-112947428D01*
X255699285Y-112899809D01*
X255746904Y-112852190D01*
X255794523Y-112756952D01*
X242650476Y-94230761D02*
X242793333Y-94278380D01*
X243031428Y-94278380D01*
X243126666Y-94230761D01*
X243174285Y-94183142D01*
X243221904Y-94087904D01*
X243221904Y-93992666D01*
X243174285Y-93897428D01*
X243126666Y-93849809D01*
X243031428Y-93802190D01*
X242840952Y-93754571D01*
X242745714Y-93706952D01*
X242698095Y-93659333D01*
X242650476Y-93564095D01*
X242650476Y-93468857D01*
X242698095Y-93373619D01*
X242745714Y-93326000D01*
X242840952Y-93278380D01*
X243079047Y-93278380D01*
X243221904Y-93326000D01*
X243555238Y-93278380D02*
X243793333Y-94278380D01*
X243983809Y-93564095D01*
X244174285Y-94278380D01*
X244412380Y-93278380D01*
X245317142Y-94278380D02*
X244745714Y-94278380D01*
X245031428Y-94278380D02*
X245031428Y-93278380D01*
X244936190Y-93421238D01*
X244840952Y-93516476D01*
X244745714Y-93564095D01*
X246174285Y-93611714D02*
X246174285Y-94278380D01*
X245936190Y-93230761D02*
X245698095Y-93945047D01*
X246317142Y-93945047D01*
X100251666Y-113280761D02*
X100394523Y-113328380D01*
X100632619Y-113328380D01*
X100727857Y-113280761D01*
X100775476Y-113233142D01*
X100823095Y-113137904D01*
X100823095Y-113042666D01*
X100775476Y-112947428D01*
X100727857Y-112899809D01*
X100632619Y-112852190D01*
X100442142Y-112804571D01*
X100346904Y-112756952D01*
X100299285Y-112709333D01*
X100251666Y-112614095D01*
X100251666Y-112518857D01*
X100299285Y-112423619D01*
X100346904Y-112376000D01*
X100442142Y-112328380D01*
X100680238Y-112328380D01*
X100823095Y-112376000D01*
X101156428Y-112328380D02*
X101394523Y-113328380D01*
X101585000Y-112614095D01*
X101775476Y-113328380D01*
X102013571Y-112328380D01*
X102299285Y-112328380D02*
X102965952Y-112328380D01*
X102537380Y-113328380D01*
X33576666Y-94230761D02*
X33719523Y-94278380D01*
X33957619Y-94278380D01*
X34052857Y-94230761D01*
X34100476Y-94183142D01*
X34148095Y-94087904D01*
X34148095Y-93992666D01*
X34100476Y-93897428D01*
X34052857Y-93849809D01*
X33957619Y-93802190D01*
X33767142Y-93754571D01*
X33671904Y-93706952D01*
X33624285Y-93659333D01*
X33576666Y-93564095D01*
X33576666Y-93468857D01*
X33624285Y-93373619D01*
X33671904Y-93326000D01*
X33767142Y-93278380D01*
X34005238Y-93278380D01*
X34148095Y-93326000D01*
X34481428Y-93278380D02*
X34719523Y-94278380D01*
X34910000Y-93564095D01*
X35100476Y-94278380D01*
X35338571Y-93278380D01*
X36148095Y-93278380D02*
X35957619Y-93278380D01*
X35862380Y-93326000D01*
X35814761Y-93373619D01*
X35719523Y-93516476D01*
X35671904Y-93706952D01*
X35671904Y-94087904D01*
X35719523Y-94183142D01*
X35767142Y-94230761D01*
X35862380Y-94278380D01*
X36052857Y-94278380D01*
X36148095Y-94230761D01*
X36195714Y-94183142D01*
X36243333Y-94087904D01*
X36243333Y-93849809D01*
X36195714Y-93754571D01*
X36148095Y-93706952D01*
X36052857Y-93659333D01*
X35862380Y-93659333D01*
X35767142Y-93706952D01*
X35719523Y-93754571D01*
X35671904Y-93849809D01*
X24051666Y-113280761D02*
X24194523Y-113328380D01*
X24432619Y-113328380D01*
X24527857Y-113280761D01*
X24575476Y-113233142D01*
X24623095Y-113137904D01*
X24623095Y-113042666D01*
X24575476Y-112947428D01*
X24527857Y-112899809D01*
X24432619Y-112852190D01*
X24242142Y-112804571D01*
X24146904Y-112756952D01*
X24099285Y-112709333D01*
X24051666Y-112614095D01*
X24051666Y-112518857D01*
X24099285Y-112423619D01*
X24146904Y-112376000D01*
X24242142Y-112328380D01*
X24480238Y-112328380D01*
X24623095Y-112376000D01*
X24956428Y-112328380D02*
X25194523Y-113328380D01*
X25385000Y-112614095D01*
X25575476Y-113328380D01*
X25813571Y-112328380D01*
X26146904Y-112423619D02*
X26194523Y-112376000D01*
X26289761Y-112328380D01*
X26527857Y-112328380D01*
X26623095Y-112376000D01*
X26670714Y-112423619D01*
X26718333Y-112518857D01*
X26718333Y-112614095D01*
X26670714Y-112756952D01*
X26099285Y-113328380D01*
X26718333Y-113328380D01*
X114727379Y-63680239D02*
X114251189Y-64013572D01*
X114727379Y-64251667D02*
X113727379Y-64251667D01*
X113727379Y-63870715D01*
X113774999Y-63775477D01*
X113822618Y-63727858D01*
X113917856Y-63680239D01*
X114060713Y-63680239D01*
X114155951Y-63727858D01*
X114203570Y-63775477D01*
X114251189Y-63870715D01*
X114251189Y-64251667D01*
X113727379Y-63394524D02*
X114727379Y-63061191D01*
X113727379Y-62727858D01*
X114060713Y-61965953D02*
X114727379Y-61965953D01*
X113679760Y-62204048D02*
X114394046Y-62442143D01*
X114394046Y-61823096D01*
X95677379Y-63680239D02*
X95201189Y-64013572D01*
X95677379Y-64251667D02*
X94677379Y-64251667D01*
X94677379Y-63870715D01*
X94724999Y-63775477D01*
X94772618Y-63727858D01*
X94867856Y-63680239D01*
X95010713Y-63680239D01*
X95105951Y-63727858D01*
X95153570Y-63775477D01*
X95201189Y-63870715D01*
X95201189Y-64251667D01*
X94677379Y-63394524D02*
X95677379Y-63061191D01*
X94677379Y-62727858D01*
X94677379Y-62489762D02*
X94677379Y-61870715D01*
X95058332Y-62204048D01*
X95058332Y-62061191D01*
X95105951Y-61965953D01*
X95153570Y-61918334D01*
X95248808Y-61870715D01*
X95486903Y-61870715D01*
X95582141Y-61918334D01*
X95629760Y-61965953D01*
X95677379Y-62061191D01*
X95677379Y-62346905D01*
X95629760Y-62442143D01*
X95582141Y-62489762D01*
X76627379Y-63680239D02*
X76151189Y-64013572D01*
X76627379Y-64251667D02*
X75627379Y-64251667D01*
X75627379Y-63870715D01*
X75674999Y-63775477D01*
X75722618Y-63727858D01*
X75817856Y-63680239D01*
X75960713Y-63680239D01*
X76055951Y-63727858D01*
X76103570Y-63775477D01*
X76151189Y-63870715D01*
X76151189Y-64251667D01*
X75627379Y-63394524D02*
X76627379Y-63061191D01*
X75627379Y-62727858D01*
X75722618Y-62442143D02*
X75674999Y-62394524D01*
X75627379Y-62299286D01*
X75627379Y-62061191D01*
X75674999Y-61965953D01*
X75722618Y-61918334D01*
X75817856Y-61870715D01*
X75913094Y-61870715D01*
X76055951Y-61918334D01*
X76627379Y-62489762D01*
X76627379Y-61870715D01*
X57577379Y-63680239D02*
X57101189Y-64013572D01*
X57577379Y-64251667D02*
X56577379Y-64251667D01*
X56577379Y-63870715D01*
X56624999Y-63775477D01*
X56672618Y-63727858D01*
X56767856Y-63680239D01*
X56910713Y-63680239D01*
X57005951Y-63727858D01*
X57053570Y-63775477D01*
X57101189Y-63870715D01*
X57101189Y-64251667D01*
X56577379Y-63394524D02*
X57577379Y-63061191D01*
X56577379Y-62727858D01*
X57577379Y-61870715D02*
X57577379Y-62442143D01*
X57577379Y-62156429D02*
X56577379Y-62156429D01*
X56720237Y-62251667D01*
X56815475Y-62346905D01*
X56863094Y-62442143D01*
%LPC*%
D13*
X134289285Y-57985714D02*
X134717857Y-58128571D01*
X134860714Y-58271428D01*
X135003571Y-58557142D01*
X135003571Y-58985714D01*
X134860714Y-59271428D01*
X134717857Y-59414285D01*
X134432142Y-59557142D01*
X133289285Y-59557142D01*
X133289285Y-56557142D01*
X134289285Y-56557142D01*
X134575000Y-56700000D01*
X134717857Y-56842857D01*
X134860714Y-57128571D01*
X134860714Y-57414285D01*
X134717857Y-57700000D01*
X134575000Y-57842857D01*
X134289285Y-57985714D01*
X133289285Y-57985714D01*
X136003571Y-57557142D02*
X136717857Y-59557142D01*
X137432142Y-57557142D02*
X136717857Y-59557142D01*
X136432142Y-60271428D01*
X136289285Y-60414285D01*
X136003571Y-60557142D01*
X138575000Y-59271428D02*
X138717857Y-59414285D01*
X138575000Y-59557142D01*
X138432142Y-59414285D01*
X138575000Y-59271428D01*
X138575000Y-59557142D01*
X138575000Y-57700000D02*
X138717857Y-57842857D01*
X138575000Y-57985714D01*
X138432142Y-57842857D01*
X138575000Y-57700000D01*
X138575000Y-57985714D01*
X142146428Y-58700000D02*
X143575000Y-58700000D01*
X141860714Y-59557142D02*
X142860714Y-56557142D01*
X143860714Y-59557142D01*
X145289285Y-59557142D02*
X145003571Y-59414285D01*
X144860714Y-59128571D01*
X144860714Y-56557142D01*
X147575000Y-59414285D02*
X147289285Y-59557142D01*
X146717857Y-59557142D01*
X146432142Y-59414285D01*
X146289285Y-59128571D01*
X146289285Y-57985714D01*
X146432142Y-57700000D01*
X146717857Y-57557142D01*
X147289285Y-57557142D01*
X147575000Y-57700000D01*
X147717857Y-57985714D01*
X147717857Y-58271428D01*
X146289285Y-58557142D01*
X148717857Y-59557142D02*
X150289285Y-57557142D01*
X148717857Y-57557142D02*
X150289285Y-59557142D01*
X153717857Y-59557142D02*
X153717857Y-56557142D01*
X154860714Y-56557142D01*
X155146428Y-56700000D01*
X155289285Y-56842857D01*
X155432142Y-57128571D01*
X155432142Y-57557142D01*
X155289285Y-57842857D01*
X155146428Y-57985714D01*
X154860714Y-58128571D01*
X153717857Y-58128571D01*
X156717857Y-59557142D02*
X156717857Y-57557142D01*
X156717857Y-58128571D02*
X156860714Y-57842857D01*
X157003571Y-57700000D01*
X157289285Y-57557142D01*
X157575000Y-57557142D01*
X159860714Y-59557142D02*
X159860714Y-57985714D01*
X159717857Y-57700000D01*
X159432142Y-57557142D01*
X158860714Y-57557142D01*
X158575000Y-57700000D01*
X159860714Y-59414285D02*
X159575000Y-59557142D01*
X158860714Y-59557142D01*
X158575000Y-59414285D01*
X158432142Y-59128571D01*
X158432142Y-58842857D01*
X158575000Y-58557142D01*
X158860714Y-58414285D01*
X159575000Y-58414285D01*
X159860714Y-58271428D01*
X160860714Y-57557142D02*
X162003571Y-57557142D01*
X161289285Y-56557142D02*
X161289285Y-59128571D01*
X161432142Y-59414285D01*
X161717857Y-59557142D01*
X162003571Y-59557142D01*
X162575000Y-57557142D02*
X163717857Y-57557142D01*
X163003571Y-56557142D02*
X163003571Y-59128571D01*
X163146428Y-59414285D01*
X163432142Y-59557142D01*
X163717857Y-59557142D01*
X165860714Y-59414285D02*
X165575000Y-59557142D01*
X165003571Y-59557142D01*
X164717857Y-59414285D01*
X164575000Y-59128571D01*
X164575000Y-57985714D01*
X164717857Y-57700000D01*
X165003571Y-57557142D01*
X165575000Y-57557142D01*
X165860714Y-57700000D01*
X166003571Y-57985714D01*
X166003571Y-58271428D01*
X164575000Y-58557142D01*
D14*
X125256904Y-53244523D02*
X125256904Y-49244523D01*
X126590238Y-52101666D01*
X127923571Y-49244523D01*
X127923571Y-53244523D01*
X129828333Y-53244523D02*
X129828333Y-49244523D01*
X131733095Y-53244523D02*
X131733095Y-49244523D01*
X132685476Y-49244523D01*
X133256904Y-49435000D01*
X133637857Y-49815952D01*
X133828333Y-50196904D01*
X134018809Y-50958809D01*
X134018809Y-51530238D01*
X133828333Y-52292142D01*
X133637857Y-52673095D01*
X133256904Y-53054047D01*
X132685476Y-53244523D01*
X131733095Y-53244523D01*
X135733095Y-53244523D02*
X135733095Y-49244523D01*
X136685476Y-53625476D02*
X139733095Y-53625476D01*
X140685476Y-53244523D02*
X140685476Y-49244523D01*
X141066428Y-51720714D02*
X142209285Y-53244523D01*
X142209285Y-50577857D02*
X140685476Y-52101666D01*
X145447380Y-53054047D02*
X145066428Y-53244523D01*
X144304523Y-53244523D01*
X143923571Y-53054047D01*
X143733095Y-52673095D01*
X143733095Y-51149285D01*
X143923571Y-50768333D01*
X144304523Y-50577857D01*
X145066428Y-50577857D01*
X145447380Y-50768333D01*
X145637857Y-51149285D01*
X145637857Y-51530238D01*
X143733095Y-51911190D01*
X146971190Y-50577857D02*
X147923571Y-53244523D01*
X148875952Y-50577857D02*
X147923571Y-53244523D01*
X147542619Y-54196904D01*
X147352142Y-54387380D01*
X146971190Y-54577857D01*
X150399761Y-53244523D02*
X150399761Y-49244523D01*
X150399761Y-50768333D02*
X150780714Y-50577857D01*
X151542619Y-50577857D01*
X151923571Y-50768333D01*
X152114047Y-50958809D01*
X152304523Y-51339761D01*
X152304523Y-52482619D01*
X152114047Y-52863571D01*
X151923571Y-53054047D01*
X151542619Y-53244523D01*
X150780714Y-53244523D01*
X150399761Y-53054047D01*
X154590238Y-53244523D02*
X154209285Y-53054047D01*
X154018809Y-52863571D01*
X153828333Y-52482619D01*
X153828333Y-51339761D01*
X154018809Y-50958809D01*
X154209285Y-50768333D01*
X154590238Y-50577857D01*
X155161666Y-50577857D01*
X155542619Y-50768333D01*
X155733095Y-50958809D01*
X155923571Y-51339761D01*
X155923571Y-52482619D01*
X155733095Y-52863571D01*
X155542619Y-53054047D01*
X155161666Y-53244523D01*
X154590238Y-53244523D01*
X159352142Y-53244523D02*
X159352142Y-51149285D01*
X159161666Y-50768333D01*
X158780714Y-50577857D01*
X158018809Y-50577857D01*
X157637857Y-50768333D01*
X159352142Y-53054047D02*
X158971190Y-53244523D01*
X158018809Y-53244523D01*
X157637857Y-53054047D01*
X157447380Y-52673095D01*
X157447380Y-52292142D01*
X157637857Y-51911190D01*
X158018809Y-51720714D01*
X158971190Y-51720714D01*
X159352142Y-51530238D01*
X161256904Y-53244523D02*
X161256904Y-50577857D01*
X161256904Y-51339761D02*
X161447380Y-50958809D01*
X161637857Y-50768333D01*
X162018809Y-50577857D01*
X162399761Y-50577857D01*
X165447380Y-53244523D02*
X165447380Y-49244523D01*
X165447380Y-53054047D02*
X165066428Y-53244523D01*
X164304523Y-53244523D01*
X163923571Y-53054047D01*
X163733095Y-52863571D01*
X163542619Y-52482619D01*
X163542619Y-51339761D01*
X163733095Y-50958809D01*
X163923571Y-50768333D01*
X164304523Y-50577857D01*
X165066428Y-50577857D01*
X165447380Y-50768333D01*
X169828333Y-49244523D02*
X171161666Y-53244523D01*
X172495000Y-49244523D01*
X175923571Y-53244523D02*
X173637857Y-53244523D01*
X174780714Y-53244523D02*
X174780714Y-49244523D01*
X174399761Y-49815952D01*
X174018809Y-50196904D01*
X173637857Y-50387380D01*
G36*
G01*
X235575000Y-95845000D02*
X234325000Y-95845000D01*
G75*
G02*
X234075000Y-95595000I0J250000D01*
G01*
X234075000Y-94845000D01*
G75*
G02*
X234325000Y-94595000I250000J0D01*
G01*
X235575000Y-94595000D01*
G75*
G02*
X235825000Y-94845000I0J-250000D01*
G01*
X235825000Y-95595000D01*
G75*
G02*
X235575000Y-95845000I-250000J0D01*
G01*
G37*
G36*
G01*
X235575000Y-98645000D02*
X234325000Y-98645000D01*
G75*
G02*
X234075000Y-98395000I0J250000D01*
G01*
X234075000Y-97645000D01*
G75*
G02*
X234325000Y-97395000I250000J0D01*
G01*
X235575000Y-97395000D01*
G75*
G02*
X235825000Y-97645000I0J-250000D01*
G01*
X235825000Y-98395000D01*
G75*
G02*
X235575000Y-98645000I-250000J0D01*
G01*
G37*
D15*
X49515000Y-120750000D03*
X39355000Y-120750000D03*
D16*
X44435000Y-120750000D03*
D17*
X40625000Y-118210000D03*
X46975000Y-115670000D03*
D15*
X135240000Y-101700000D03*
X125080000Y-101700000D03*
D16*
X130160000Y-101700000D03*
D17*
X126350000Y-99160000D03*
X132700000Y-96620000D03*
D15*
X125715000Y-120750000D03*
X115555000Y-120750000D03*
D16*
X120635000Y-120750000D03*
D17*
X116825000Y-118210000D03*
X123175000Y-115670000D03*
G36*
G01*
X111750000Y-114895000D02*
X110500000Y-114895000D01*
G75*
G02*
X110250000Y-114645000I0J250000D01*
G01*
X110250000Y-113895000D01*
G75*
G02*
X110500000Y-113645000I250000J0D01*
G01*
X111750000Y-113645000D01*
G75*
G02*
X112000000Y-113895000I0J-250000D01*
G01*
X112000000Y-114645000D01*
G75*
G02*
X111750000Y-114895000I-250000J0D01*
G01*
G37*
G36*
G01*
X111750000Y-117695000D02*
X110500000Y-117695000D01*
G75*
G02*
X110250000Y-117445000I0J250000D01*
G01*
X110250000Y-116695000D01*
G75*
G02*
X110500000Y-116445000I250000J0D01*
G01*
X111750000Y-116445000D01*
G75*
G02*
X112000000Y-116695000I0J-250000D01*
G01*
X112000000Y-117445000D01*
G75*
G02*
X111750000Y-117695000I-250000J0D01*
G01*
G37*
G36*
G01*
X207000000Y-114895000D02*
X205750000Y-114895000D01*
G75*
G02*
X205500000Y-114645000I0J250000D01*
G01*
X205500000Y-113895000D01*
G75*
G02*
X205750000Y-113645000I250000J0D01*
G01*
X207000000Y-113645000D01*
G75*
G02*
X207250000Y-113895000I0J-250000D01*
G01*
X207250000Y-114645000D01*
G75*
G02*
X207000000Y-114895000I-250000J0D01*
G01*
G37*
G36*
G01*
X207000000Y-117695000D02*
X205750000Y-117695000D01*
G75*
G02*
X205500000Y-117445000I0J250000D01*
G01*
X205500000Y-116695000D01*
G75*
G02*
X205750000Y-116445000I250000J0D01*
G01*
X207000000Y-116445000D01*
G75*
G02*
X207250000Y-116695000I0J-250000D01*
G01*
X207250000Y-117445000D01*
G75*
G02*
X207000000Y-117695000I-250000J0D01*
G01*
G37*
D15*
X182865000Y-120750000D03*
X172705000Y-120750000D03*
D16*
X177785000Y-120750000D03*
D17*
X173975000Y-118210000D03*
X180325000Y-115670000D03*
D15*
X59040000Y-101700000D03*
X48880000Y-101700000D03*
D16*
X53960000Y-101700000D03*
D17*
X50150000Y-99160000D03*
X56500000Y-96620000D03*
D15*
X220965000Y-120750000D03*
X210805000Y-120750000D03*
D16*
X215885000Y-120750000D03*
D17*
X212075000Y-118210000D03*
X218425000Y-115670000D03*
X237475000Y-115670000D03*
X231125000Y-118210000D03*
D16*
X234935000Y-120750000D03*
D15*
X229855000Y-120750000D03*
X240015000Y-120750000D03*
X201915000Y-120750000D03*
X191755000Y-120750000D03*
D16*
X196835000Y-120750000D03*
D17*
X193025000Y-118210000D03*
X199375000Y-115670000D03*
D15*
X144765000Y-120750000D03*
X134605000Y-120750000D03*
D16*
X139685000Y-120750000D03*
D17*
X135875000Y-118210000D03*
X142225000Y-115670000D03*
D15*
X116190000Y-101700000D03*
X106030000Y-101700000D03*
D16*
X111110000Y-101700000D03*
D17*
X107300000Y-99160000D03*
X113650000Y-96620000D03*
D15*
X97140000Y-101700000D03*
X86980000Y-101700000D03*
D16*
X92060000Y-101700000D03*
D17*
X88250000Y-99160000D03*
X94600000Y-96620000D03*
D16*
X11430000Y-125730000D03*
X287020000Y-125730000D03*
X11430000Y-50800000D03*
X287020000Y-50800000D03*
G36*
G01*
X205200000Y-61210000D02*
X205200000Y-59960000D01*
G75*
G02*
X205450000Y-59710000I250000J0D01*
G01*
X206200000Y-59710000D01*
G75*
G02*
X206450000Y-59960000I0J-250000D01*
G01*
X206450000Y-61210000D01*
G75*
G02*
X206200000Y-61460000I-250000J0D01*
G01*
X205450000Y-61460000D01*
G75*
G02*
X205200000Y-61210000I0J250000D01*
G01*
G37*
G36*
G01*
X202400000Y-61210000D02*
X202400000Y-59960000D01*
G75*
G02*
X202650000Y-59710000I250000J0D01*
G01*
X203400000Y-59710000D01*
G75*
G02*
X203650000Y-59960000I0J-250000D01*
G01*
X203650000Y-61210000D01*
G75*
G02*
X203400000Y-61460000I-250000J0D01*
G01*
X202650000Y-61460000D01*
G75*
G02*
X202400000Y-61210000I0J250000D01*
G01*
G37*
G36*
G01*
X205200000Y-63710000D02*
X205200000Y-62460000D01*
G75*
G02*
X205450000Y-62210000I250000J0D01*
G01*
X206200000Y-62210000D01*
G75*
G02*
X206450000Y-62460000I0J-250000D01*
G01*
X206450000Y-63710000D01*
G75*
G02*
X206200000Y-63960000I-250000J0D01*
G01*
X205450000Y-63960000D01*
G75*
G02*
X205200000Y-63710000I0J250000D01*
G01*
G37*
G36*
G01*
X202400000Y-63710000D02*
X202400000Y-62460000D01*
G75*
G02*
X202650000Y-62210000I250000J0D01*
G01*
X203400000Y-62210000D01*
G75*
G02*
X203650000Y-62460000I0J-250000D01*
G01*
X203650000Y-63710000D01*
G75*
G02*
X203400000Y-63960000I-250000J0D01*
G01*
X202650000Y-63960000D01*
G75*
G02*
X202400000Y-63710000I0J250000D01*
G01*
G37*
D18*
X190525000Y-57585000D03*
X190525000Y-73585000D03*
D19*
X198575000Y-70585000D03*
X198575000Y-60585000D03*
X198575000Y-63085000D03*
X198575000Y-68085000D03*
X180275000Y-70585000D03*
X180275000Y-68085000D03*
X180275000Y-60585000D03*
X180275000Y-63085000D03*
X198575000Y-65585000D03*
X180275000Y-65585000D03*
D18*
X242525000Y-57585000D03*
X242525000Y-73585000D03*
D19*
X250575000Y-70585000D03*
X250575000Y-60585000D03*
X250575000Y-63085000D03*
X250575000Y-68085000D03*
X232275000Y-70585000D03*
X232275000Y-68085000D03*
X232275000Y-60585000D03*
X232275000Y-63085000D03*
X250575000Y-65585000D03*
X232275000Y-65585000D03*
D15*
X173340000Y-101700000D03*
X163180000Y-101700000D03*
D16*
X168260000Y-101700000D03*
D17*
X164450000Y-99160000D03*
X170800000Y-96620000D03*
D15*
X278115000Y-120750000D03*
X267955000Y-120750000D03*
D16*
X273035000Y-120750000D03*
D17*
X269225000Y-118210000D03*
X275575000Y-115670000D03*
D15*
X192390000Y-101700000D03*
X182230000Y-101700000D03*
D16*
X187310000Y-101700000D03*
D17*
X183500000Y-99160000D03*
X189850000Y-96620000D03*
G36*
G01*
X64125000Y-95845000D02*
X62875000Y-95845000D01*
G75*
G02*
X62625000Y-95595000I0J250000D01*
G01*
X62625000Y-94845000D01*
G75*
G02*
X62875000Y-94595000I250000J0D01*
G01*
X64125000Y-94595000D01*
G75*
G02*
X64375000Y-94845000I0J-250000D01*
G01*
X64375000Y-95595000D01*
G75*
G02*
X64125000Y-95845000I-250000J0D01*
G01*
G37*
G36*
G01*
X64125000Y-98645000D02*
X62875000Y-98645000D01*
G75*
G02*
X62625000Y-98395000I0J250000D01*
G01*
X62625000Y-97645000D01*
G75*
G02*
X62875000Y-97395000I250000J0D01*
G01*
X64125000Y-97395000D01*
G75*
G02*
X64375000Y-97645000I0J-250000D01*
G01*
X64375000Y-98395000D01*
G75*
G02*
X64125000Y-98645000I-250000J0D01*
G01*
G37*
D15*
X68565000Y-120750000D03*
X58405000Y-120750000D03*
D16*
X63485000Y-120750000D03*
D17*
X59675000Y-118210000D03*
X66025000Y-115670000D03*
G36*
G01*
X45075000Y-95845000D02*
X43825000Y-95845000D01*
G75*
G02*
X43575000Y-95595000I0J250000D01*
G01*
X43575000Y-94845000D01*
G75*
G02*
X43825000Y-94595000I250000J0D01*
G01*
X45075000Y-94595000D01*
G75*
G02*
X45325000Y-94845000I0J-250000D01*
G01*
X45325000Y-95595000D01*
G75*
G02*
X45075000Y-95845000I-250000J0D01*
G01*
G37*
G36*
G01*
X45075000Y-98645000D02*
X43825000Y-98645000D01*
G75*
G02*
X43575000Y-98395000I0J250000D01*
G01*
X43575000Y-97645000D01*
G75*
G02*
X43825000Y-97395000I250000J0D01*
G01*
X45075000Y-97395000D01*
G75*
G02*
X45325000Y-97645000I0J-250000D01*
G01*
X45325000Y-98395000D01*
G75*
G02*
X45075000Y-98645000I-250000J0D01*
G01*
G37*
G36*
G01*
X283200000Y-114895000D02*
X281950000Y-114895000D01*
G75*
G02*
X281700000Y-114645000I0J250000D01*
G01*
X281700000Y-113895000D01*
G75*
G02*
X281950000Y-113645000I250000J0D01*
G01*
X283200000Y-113645000D01*
G75*
G02*
X283450000Y-113895000I0J-250000D01*
G01*
X283450000Y-114645000D01*
G75*
G02*
X283200000Y-114895000I-250000J0D01*
G01*
G37*
G36*
G01*
X283200000Y-117695000D02*
X281950000Y-117695000D01*
G75*
G02*
X281700000Y-117445000I0J250000D01*
G01*
X281700000Y-116695000D01*
G75*
G02*
X281950000Y-116445000I250000J0D01*
G01*
X283200000Y-116445000D01*
G75*
G02*
X283450000Y-116695000I0J-250000D01*
G01*
X283450000Y-117445000D01*
G75*
G02*
X283200000Y-117695000I-250000J0D01*
G01*
G37*
G36*
G01*
X226050000Y-114895000D02*
X224800000Y-114895000D01*
G75*
G02*
X224550000Y-114645000I0J250000D01*
G01*
X224550000Y-113895000D01*
G75*
G02*
X224800000Y-113645000I250000J0D01*
G01*
X226050000Y-113645000D01*
G75*
G02*
X226300000Y-113895000I0J-250000D01*
G01*
X226300000Y-114645000D01*
G75*
G02*
X226050000Y-114895000I-250000J0D01*
G01*
G37*
G36*
G01*
X226050000Y-117695000D02*
X224800000Y-117695000D01*
G75*
G02*
X224550000Y-117445000I0J250000D01*
G01*
X224550000Y-116695000D01*
G75*
G02*
X224800000Y-116445000I250000J0D01*
G01*
X226050000Y-116445000D01*
G75*
G02*
X226300000Y-116695000I0J-250000D01*
G01*
X226300000Y-117445000D01*
G75*
G02*
X226050000Y-117695000I-250000J0D01*
G01*
G37*
G36*
G01*
X149850000Y-114895000D02*
X148600000Y-114895000D01*
G75*
G02*
X148350000Y-114645000I0J250000D01*
G01*
X148350000Y-113895000D01*
G75*
G02*
X148600000Y-113645000I250000J0D01*
G01*
X149850000Y-113645000D01*
G75*
G02*
X150100000Y-113895000I0J-250000D01*
G01*
X150100000Y-114645000D01*
G75*
G02*
X149850000Y-114895000I-250000J0D01*
G01*
G37*
G36*
G01*
X149850000Y-117695000D02*
X148600000Y-117695000D01*
G75*
G02*
X148350000Y-117445000I0J250000D01*
G01*
X148350000Y-116695000D01*
G75*
G02*
X148600000Y-116445000I250000J0D01*
G01*
X149850000Y-116445000D01*
G75*
G02*
X150100000Y-116695000I0J-250000D01*
G01*
X150100000Y-117445000D01*
G75*
G02*
X149850000Y-117695000I-250000J0D01*
G01*
G37*
G36*
G01*
X92700000Y-114895000D02*
X91450000Y-114895000D01*
G75*
G02*
X91200000Y-114645000I0J250000D01*
G01*
X91200000Y-113895000D01*
G75*
G02*
X91450000Y-113645000I250000J0D01*
G01*
X92700000Y-113645000D01*
G75*
G02*
X92950000Y-113895000I0J-250000D01*
G01*
X92950000Y-114645000D01*
G75*
G02*
X92700000Y-114895000I-250000J0D01*
G01*
G37*
G36*
G01*
X92700000Y-117695000D02*
X91450000Y-117695000D01*
G75*
G02*
X91200000Y-117445000I0J250000D01*
G01*
X91200000Y-116695000D01*
G75*
G02*
X91450000Y-116445000I250000J0D01*
G01*
X92700000Y-116445000D01*
G75*
G02*
X92950000Y-116695000I0J-250000D01*
G01*
X92950000Y-117445000D01*
G75*
G02*
X92700000Y-117695000I-250000J0D01*
G01*
G37*
G36*
G01*
X273675000Y-95845000D02*
X272425000Y-95845000D01*
G75*
G02*
X272175000Y-95595000I0J250000D01*
G01*
X272175000Y-94845000D01*
G75*
G02*
X272425000Y-94595000I250000J0D01*
G01*
X273675000Y-94595000D01*
G75*
G02*
X273925000Y-94845000I0J-250000D01*
G01*
X273925000Y-95595000D01*
G75*
G02*
X273675000Y-95845000I-250000J0D01*
G01*
G37*
G36*
G01*
X273675000Y-98645000D02*
X272425000Y-98645000D01*
G75*
G02*
X272175000Y-98395000I0J250000D01*
G01*
X272175000Y-97645000D01*
G75*
G02*
X272425000Y-97395000I250000J0D01*
G01*
X273675000Y-97395000D01*
G75*
G02*
X273925000Y-97645000I0J-250000D01*
G01*
X273925000Y-98395000D01*
G75*
G02*
X273675000Y-98645000I-250000J0D01*
G01*
G37*
G36*
G01*
X140325000Y-95845000D02*
X139075000Y-95845000D01*
G75*
G02*
X138825000Y-95595000I0J250000D01*
G01*
X138825000Y-94845000D01*
G75*
G02*
X139075000Y-94595000I250000J0D01*
G01*
X140325000Y-94595000D01*
G75*
G02*
X140575000Y-94845000I0J-250000D01*
G01*
X140575000Y-95595000D01*
G75*
G02*
X140325000Y-95845000I-250000J0D01*
G01*
G37*
G36*
G01*
X140325000Y-98645000D02*
X139075000Y-98645000D01*
G75*
G02*
X138825000Y-98395000I0J250000D01*
G01*
X138825000Y-97645000D01*
G75*
G02*
X139075000Y-97395000I250000J0D01*
G01*
X140325000Y-97395000D01*
G75*
G02*
X140575000Y-97645000I0J-250000D01*
G01*
X140575000Y-98395000D01*
G75*
G02*
X140325000Y-98645000I-250000J0D01*
G01*
G37*
G36*
G01*
X73650000Y-114895000D02*
X72400000Y-114895000D01*
G75*
G02*
X72150000Y-114645000I0J250000D01*
G01*
X72150000Y-113895000D01*
G75*
G02*
X72400000Y-113645000I250000J0D01*
G01*
X73650000Y-113645000D01*
G75*
G02*
X73900000Y-113895000I0J-250000D01*
G01*
X73900000Y-114645000D01*
G75*
G02*
X73650000Y-114895000I-250000J0D01*
G01*
G37*
G36*
G01*
X73650000Y-117695000D02*
X72400000Y-117695000D01*
G75*
G02*
X72150000Y-117445000I0J250000D01*
G01*
X72150000Y-116695000D01*
G75*
G02*
X72400000Y-116445000I250000J0D01*
G01*
X73650000Y-116445000D01*
G75*
G02*
X73900000Y-116695000I0J-250000D01*
G01*
X73900000Y-117445000D01*
G75*
G02*
X73650000Y-117695000I-250000J0D01*
G01*
G37*
G36*
G01*
X264150000Y-114895000D02*
X262900000Y-114895000D01*
G75*
G02*
X262650000Y-114645000I0J250000D01*
G01*
X262650000Y-113895000D01*
G75*
G02*
X262900000Y-113645000I250000J0D01*
G01*
X264150000Y-113645000D01*
G75*
G02*
X264400000Y-113895000I0J-250000D01*
G01*
X264400000Y-114645000D01*
G75*
G02*
X264150000Y-114895000I-250000J0D01*
G01*
G37*
G36*
G01*
X264150000Y-117695000D02*
X262900000Y-117695000D01*
G75*
G02*
X262650000Y-117445000I0J250000D01*
G01*
X262650000Y-116695000D01*
G75*
G02*
X262900000Y-116445000I250000J0D01*
G01*
X264150000Y-116445000D01*
G75*
G02*
X264400000Y-116695000I0J-250000D01*
G01*
X264400000Y-117445000D01*
G75*
G02*
X264150000Y-117695000I-250000J0D01*
G01*
G37*
G36*
G01*
X197475000Y-95845000D02*
X196225000Y-95845000D01*
G75*
G02*
X195975000Y-95595000I0J250000D01*
G01*
X195975000Y-94845000D01*
G75*
G02*
X196225000Y-94595000I250000J0D01*
G01*
X197475000Y-94595000D01*
G75*
G02*
X197725000Y-94845000I0J-250000D01*
G01*
X197725000Y-95595000D01*
G75*
G02*
X197475000Y-95845000I-250000J0D01*
G01*
G37*
G36*
G01*
X197475000Y-98645000D02*
X196225000Y-98645000D01*
G75*
G02*
X195975000Y-98395000I0J250000D01*
G01*
X195975000Y-97645000D01*
G75*
G02*
X196225000Y-97395000I250000J0D01*
G01*
X197475000Y-97395000D01*
G75*
G02*
X197725000Y-97645000I0J-250000D01*
G01*
X197725000Y-98395000D01*
G75*
G02*
X197475000Y-98645000I-250000J0D01*
G01*
G37*
G36*
G01*
X130800000Y-114895000D02*
X129550000Y-114895000D01*
G75*
G02*
X129300000Y-114645000I0J250000D01*
G01*
X129300000Y-113895000D01*
G75*
G02*
X129550000Y-113645000I250000J0D01*
G01*
X130800000Y-113645000D01*
G75*
G02*
X131050000Y-113895000I0J-250000D01*
G01*
X131050000Y-114645000D01*
G75*
G02*
X130800000Y-114895000I-250000J0D01*
G01*
G37*
G36*
G01*
X130800000Y-117695000D02*
X129550000Y-117695000D01*
G75*
G02*
X129300000Y-117445000I0J250000D01*
G01*
X129300000Y-116695000D01*
G75*
G02*
X129550000Y-116445000I250000J0D01*
G01*
X130800000Y-116445000D01*
G75*
G02*
X131050000Y-116695000I0J-250000D01*
G01*
X131050000Y-117445000D01*
G75*
G02*
X130800000Y-117695000I-250000J0D01*
G01*
G37*
G36*
G01*
X254625000Y-95845000D02*
X253375000Y-95845000D01*
G75*
G02*
X253125000Y-95595000I0J250000D01*
G01*
X253125000Y-94845000D01*
G75*
G02*
X253375000Y-94595000I250000J0D01*
G01*
X254625000Y-94595000D01*
G75*
G02*
X254875000Y-94845000I0J-250000D01*
G01*
X254875000Y-95595000D01*
G75*
G02*
X254625000Y-95845000I-250000J0D01*
G01*
G37*
G36*
G01*
X254625000Y-98645000D02*
X253375000Y-98645000D01*
G75*
G02*
X253125000Y-98395000I0J250000D01*
G01*
X253125000Y-97645000D01*
G75*
G02*
X253375000Y-97395000I250000J0D01*
G01*
X254625000Y-97395000D01*
G75*
G02*
X254875000Y-97645000I0J-250000D01*
G01*
X254875000Y-98395000D01*
G75*
G02*
X254625000Y-98645000I-250000J0D01*
G01*
G37*
G36*
G01*
X187950000Y-114895000D02*
X186700000Y-114895000D01*
G75*
G02*
X186450000Y-114645000I0J250000D01*
G01*
X186450000Y-113895000D01*
G75*
G02*
X186700000Y-113645000I250000J0D01*
G01*
X187950000Y-113645000D01*
G75*
G02*
X188200000Y-113895000I0J-250000D01*
G01*
X188200000Y-114645000D01*
G75*
G02*
X187950000Y-114895000I-250000J0D01*
G01*
G37*
G36*
G01*
X187950000Y-117695000D02*
X186700000Y-117695000D01*
G75*
G02*
X186450000Y-117445000I0J250000D01*
G01*
X186450000Y-116695000D01*
G75*
G02*
X186700000Y-116445000I250000J0D01*
G01*
X187950000Y-116445000D01*
G75*
G02*
X188200000Y-116695000I0J-250000D01*
G01*
X188200000Y-117445000D01*
G75*
G02*
X187950000Y-117695000I-250000J0D01*
G01*
G37*
G36*
G01*
X121275000Y-95845000D02*
X120025000Y-95845000D01*
G75*
G02*
X119775000Y-95595000I0J250000D01*
G01*
X119775000Y-94845000D01*
G75*
G02*
X120025000Y-94595000I250000J0D01*
G01*
X121275000Y-94595000D01*
G75*
G02*
X121525000Y-94845000I0J-250000D01*
G01*
X121525000Y-95595000D01*
G75*
G02*
X121275000Y-95845000I-250000J0D01*
G01*
G37*
G36*
G01*
X121275000Y-98645000D02*
X120025000Y-98645000D01*
G75*
G02*
X119775000Y-98395000I0J250000D01*
G01*
X119775000Y-97645000D01*
G75*
G02*
X120025000Y-97395000I250000J0D01*
G01*
X121275000Y-97395000D01*
G75*
G02*
X121525000Y-97645000I0J-250000D01*
G01*
X121525000Y-98395000D01*
G75*
G02*
X121275000Y-98645000I-250000J0D01*
G01*
G37*
G36*
G01*
X54600000Y-114895000D02*
X53350000Y-114895000D01*
G75*
G02*
X53100000Y-114645000I0J250000D01*
G01*
X53100000Y-113895000D01*
G75*
G02*
X53350000Y-113645000I250000J0D01*
G01*
X54600000Y-113645000D01*
G75*
G02*
X54850000Y-113895000I0J-250000D01*
G01*
X54850000Y-114645000D01*
G75*
G02*
X54600000Y-114895000I-250000J0D01*
G01*
G37*
G36*
G01*
X54600000Y-117695000D02*
X53350000Y-117695000D01*
G75*
G02*
X53100000Y-117445000I0J250000D01*
G01*
X53100000Y-116695000D01*
G75*
G02*
X53350000Y-116445000I250000J0D01*
G01*
X54600000Y-116445000D01*
G75*
G02*
X54850000Y-116695000I0J-250000D01*
G01*
X54850000Y-117445000D01*
G75*
G02*
X54600000Y-117695000I-250000J0D01*
G01*
G37*
G36*
G01*
X245100000Y-114895000D02*
X243850000Y-114895000D01*
G75*
G02*
X243600000Y-114645000I0J250000D01*
G01*
X243600000Y-113895000D01*
G75*
G02*
X243850000Y-113645000I250000J0D01*
G01*
X245100000Y-113645000D01*
G75*
G02*
X245350000Y-113895000I0J-250000D01*
G01*
X245350000Y-114645000D01*
G75*
G02*
X245100000Y-114895000I-250000J0D01*
G01*
G37*
G36*
G01*
X245100000Y-117695000D02*
X243850000Y-117695000D01*
G75*
G02*
X243600000Y-117445000I0J250000D01*
G01*
X243600000Y-116695000D01*
G75*
G02*
X243850000Y-116445000I250000J0D01*
G01*
X245100000Y-116445000D01*
G75*
G02*
X245350000Y-116695000I0J-250000D01*
G01*
X245350000Y-117445000D01*
G75*
G02*
X245100000Y-117695000I-250000J0D01*
G01*
G37*
G36*
G01*
X178425000Y-95845000D02*
X177175000Y-95845000D01*
G75*
G02*
X176925000Y-95595000I0J250000D01*
G01*
X176925000Y-94845000D01*
G75*
G02*
X177175000Y-94595000I250000J0D01*
G01*
X178425000Y-94595000D01*
G75*
G02*
X178675000Y-94845000I0J-250000D01*
G01*
X178675000Y-95595000D01*
G75*
G02*
X178425000Y-95845000I-250000J0D01*
G01*
G37*
G36*
G01*
X178425000Y-98645000D02*
X177175000Y-98645000D01*
G75*
G02*
X176925000Y-98395000I0J250000D01*
G01*
X176925000Y-97645000D01*
G75*
G02*
X177175000Y-97395000I250000J0D01*
G01*
X178425000Y-97395000D01*
G75*
G02*
X178675000Y-97645000I0J-250000D01*
G01*
X178675000Y-98395000D01*
G75*
G02*
X178425000Y-98645000I-250000J0D01*
G01*
G37*
G36*
G01*
X168900000Y-114895000D02*
X167650000Y-114895000D01*
G75*
G02*
X167400000Y-114645000I0J250000D01*
G01*
X167400000Y-113895000D01*
G75*
G02*
X167650000Y-113645000I250000J0D01*
G01*
X168900000Y-113645000D01*
G75*
G02*
X169150000Y-113895000I0J-250000D01*
G01*
X169150000Y-114645000D01*
G75*
G02*
X168900000Y-114895000I-250000J0D01*
G01*
G37*
G36*
G01*
X168900000Y-117695000D02*
X167650000Y-117695000D01*
G75*
G02*
X167400000Y-117445000I0J250000D01*
G01*
X167400000Y-116695000D01*
G75*
G02*
X167650000Y-116445000I250000J0D01*
G01*
X168900000Y-116445000D01*
G75*
G02*
X169150000Y-116695000I0J-250000D01*
G01*
X169150000Y-117445000D01*
G75*
G02*
X168900000Y-117695000I-250000J0D01*
G01*
G37*
G36*
G01*
X102225000Y-95845000D02*
X100975000Y-95845000D01*
G75*
G02*
X100725000Y-95595000I0J250000D01*
G01*
X100725000Y-94845000D01*
G75*
G02*
X100975000Y-94595000I250000J0D01*
G01*
X102225000Y-94595000D01*
G75*
G02*
X102475000Y-94845000I0J-250000D01*
G01*
X102475000Y-95595000D01*
G75*
G02*
X102225000Y-95845000I-250000J0D01*
G01*
G37*
G36*
G01*
X102225000Y-98645000D02*
X100975000Y-98645000D01*
G75*
G02*
X100725000Y-98395000I0J250000D01*
G01*
X100725000Y-97645000D01*
G75*
G02*
X100975000Y-97395000I250000J0D01*
G01*
X102225000Y-97395000D01*
G75*
G02*
X102475000Y-97645000I0J-250000D01*
G01*
X102475000Y-98395000D01*
G75*
G02*
X102225000Y-98645000I-250000J0D01*
G01*
G37*
G36*
G01*
X35550000Y-114895000D02*
X34300000Y-114895000D01*
G75*
G02*
X34050000Y-114645000I0J250000D01*
G01*
X34050000Y-113895000D01*
G75*
G02*
X34300000Y-113645000I250000J0D01*
G01*
X35550000Y-113645000D01*
G75*
G02*
X35800000Y-113895000I0J-250000D01*
G01*
X35800000Y-114645000D01*
G75*
G02*
X35550000Y-114895000I-250000J0D01*
G01*
G37*
G36*
G01*
X35550000Y-117695000D02*
X34300000Y-117695000D01*
G75*
G02*
X34050000Y-117445000I0J250000D01*
G01*
X34050000Y-116695000D01*
G75*
G02*
X34300000Y-116445000I250000J0D01*
G01*
X35550000Y-116445000D01*
G75*
G02*
X35800000Y-116695000I0J-250000D01*
G01*
X35800000Y-117445000D01*
G75*
G02*
X35550000Y-117695000I-250000J0D01*
G01*
G37*
G36*
G01*
X173650000Y-59960000D02*
X173650000Y-61210000D01*
G75*
G02*
X173400000Y-61460000I-250000J0D01*
G01*
X172650000Y-61460000D01*
G75*
G02*
X172400000Y-61210000I0J250000D01*
G01*
X172400000Y-59960000D01*
G75*
G02*
X172650000Y-59710000I250000J0D01*
G01*
X173400000Y-59710000D01*
G75*
G02*
X173650000Y-59960000I0J-250000D01*
G01*
G37*
G36*
G01*
X176450000Y-59960000D02*
X176450000Y-61210000D01*
G75*
G02*
X176200000Y-61460000I-250000J0D01*
G01*
X175450000Y-61460000D01*
G75*
G02*
X175200000Y-61210000I0J250000D01*
G01*
X175200000Y-59960000D01*
G75*
G02*
X175450000Y-59710000I250000J0D01*
G01*
X176200000Y-59710000D01*
G75*
G02*
X176450000Y-59960000I0J-250000D01*
G01*
G37*
G36*
G01*
X257200000Y-63710000D02*
X257200000Y-62460000D01*
G75*
G02*
X257450000Y-62210000I250000J0D01*
G01*
X258200000Y-62210000D01*
G75*
G02*
X258450000Y-62460000I0J-250000D01*
G01*
X258450000Y-63710000D01*
G75*
G02*
X258200000Y-63960000I-250000J0D01*
G01*
X257450000Y-63960000D01*
G75*
G02*
X257200000Y-63710000I0J250000D01*
G01*
G37*
G36*
G01*
X254400000Y-63710000D02*
X254400000Y-62460000D01*
G75*
G02*
X254650000Y-62210000I250000J0D01*
G01*
X255400000Y-62210000D01*
G75*
G02*
X255650000Y-62460000I0J-250000D01*
G01*
X255650000Y-63710000D01*
G75*
G02*
X255400000Y-63960000I-250000J0D01*
G01*
X254650000Y-63960000D01*
G75*
G02*
X254400000Y-63710000I0J250000D01*
G01*
G37*
G36*
G01*
X257200000Y-61210000D02*
X257200000Y-59960000D01*
G75*
G02*
X257450000Y-59710000I250000J0D01*
G01*
X258200000Y-59710000D01*
G75*
G02*
X258450000Y-59960000I0J-250000D01*
G01*
X258450000Y-61210000D01*
G75*
G02*
X258200000Y-61460000I-250000J0D01*
G01*
X257450000Y-61460000D01*
G75*
G02*
X257200000Y-61210000I0J250000D01*
G01*
G37*
G36*
G01*
X254400000Y-61210000D02*
X254400000Y-59960000D01*
G75*
G02*
X254650000Y-59710000I250000J0D01*
G01*
X255400000Y-59710000D01*
G75*
G02*
X255650000Y-59960000I0J-250000D01*
G01*
X255650000Y-61210000D01*
G75*
G02*
X255400000Y-61460000I-250000J0D01*
G01*
X254650000Y-61460000D01*
G75*
G02*
X254400000Y-61210000I0J250000D01*
G01*
G37*
G36*
G01*
X225650000Y-59960000D02*
X225650000Y-61210000D01*
G75*
G02*
X225400000Y-61460000I-250000J0D01*
G01*
X224650000Y-61460000D01*
G75*
G02*
X224400000Y-61210000I0J250000D01*
G01*
X224400000Y-59960000D01*
G75*
G02*
X224650000Y-59710000I250000J0D01*
G01*
X225400000Y-59710000D01*
G75*
G02*
X225650000Y-59960000I0J-250000D01*
G01*
G37*
G36*
G01*
X228450000Y-59960000D02*
X228450000Y-61210000D01*
G75*
G02*
X228200000Y-61460000I-250000J0D01*
G01*
X227450000Y-61460000D01*
G75*
G02*
X227200000Y-61210000I0J250000D01*
G01*
X227200000Y-59960000D01*
G75*
G02*
X227450000Y-59710000I250000J0D01*
G01*
X228200000Y-59710000D01*
G75*
G02*
X228450000Y-59960000I0J-250000D01*
G01*
G37*
G36*
G01*
X173650000Y-67460000D02*
X173650000Y-68710000D01*
G75*
G02*
X173400000Y-68960000I-250000J0D01*
G01*
X172650000Y-68960000D01*
G75*
G02*
X172400000Y-68710000I0J250000D01*
G01*
X172400000Y-67460000D01*
G75*
G02*
X172650000Y-67210000I250000J0D01*
G01*
X173400000Y-67210000D01*
G75*
G02*
X173650000Y-67460000I0J-250000D01*
G01*
G37*
G36*
G01*
X176450000Y-67460000D02*
X176450000Y-68710000D01*
G75*
G02*
X176200000Y-68960000I-250000J0D01*
G01*
X175450000Y-68960000D01*
G75*
G02*
X175200000Y-68710000I0J250000D01*
G01*
X175200000Y-67460000D01*
G75*
G02*
X175450000Y-67210000I250000J0D01*
G01*
X176200000Y-67210000D01*
G75*
G02*
X176450000Y-67460000I0J-250000D01*
G01*
G37*
G36*
G01*
X225650000Y-67460000D02*
X225650000Y-68710000D01*
G75*
G02*
X225400000Y-68960000I-250000J0D01*
G01*
X224650000Y-68960000D01*
G75*
G02*
X224400000Y-68710000I0J250000D01*
G01*
X224400000Y-67460000D01*
G75*
G02*
X224650000Y-67210000I250000J0D01*
G01*
X225400000Y-67210000D01*
G75*
G02*
X225650000Y-67460000I0J-250000D01*
G01*
G37*
G36*
G01*
X228450000Y-67460000D02*
X228450000Y-68710000D01*
G75*
G02*
X228200000Y-68960000I-250000J0D01*
G01*
X227450000Y-68960000D01*
G75*
G02*
X227200000Y-68710000I0J250000D01*
G01*
X227200000Y-67460000D01*
G75*
G02*
X227450000Y-67210000I250000J0D01*
G01*
X228200000Y-67210000D01*
G75*
G02*
X228450000Y-67460000I0J-250000D01*
G01*
G37*
G36*
G01*
X173650000Y-64960000D02*
X173650000Y-66210000D01*
G75*
G02*
X173400000Y-66460000I-250000J0D01*
G01*
X172650000Y-66460000D01*
G75*
G02*
X172400000Y-66210000I0J250000D01*
G01*
X172400000Y-64960000D01*
G75*
G02*
X172650000Y-64710000I250000J0D01*
G01*
X173400000Y-64710000D01*
G75*
G02*
X173650000Y-64960000I0J-250000D01*
G01*
G37*
G36*
G01*
X176450000Y-64960000D02*
X176450000Y-66210000D01*
G75*
G02*
X176200000Y-66460000I-250000J0D01*
G01*
X175450000Y-66460000D01*
G75*
G02*
X175200000Y-66210000I0J250000D01*
G01*
X175200000Y-64960000D01*
G75*
G02*
X175450000Y-64710000I250000J0D01*
G01*
X176200000Y-64710000D01*
G75*
G02*
X176450000Y-64960000I0J-250000D01*
G01*
G37*
G36*
G01*
X225650000Y-64960000D02*
X225650000Y-66210000D01*
G75*
G02*
X225400000Y-66460000I-250000J0D01*
G01*
X224650000Y-66460000D01*
G75*
G02*
X224400000Y-66210000I0J250000D01*
G01*
X224400000Y-64960000D01*
G75*
G02*
X224650000Y-64710000I250000J0D01*
G01*
X225400000Y-64710000D01*
G75*
G02*
X225650000Y-64960000I0J-250000D01*
G01*
G37*
G36*
G01*
X228450000Y-64960000D02*
X228450000Y-66210000D01*
G75*
G02*
X228200000Y-66460000I-250000J0D01*
G01*
X227450000Y-66460000D01*
G75*
G02*
X227200000Y-66210000I0J250000D01*
G01*
X227200000Y-64960000D01*
G75*
G02*
X227450000Y-64710000I250000J0D01*
G01*
X228200000Y-64710000D01*
G75*
G02*
X228450000Y-64960000I0J-250000D01*
G01*
G37*
G36*
G01*
X173650000Y-62460000D02*
X173650000Y-63710000D01*
G75*
G02*
X173400000Y-63960000I-250000J0D01*
G01*
X172650000Y-63960000D01*
G75*
G02*
X172400000Y-63710000I0J250000D01*
G01*
X172400000Y-62460000D01*
G75*
G02*
X172650000Y-62210000I250000J0D01*
G01*
X173400000Y-62210000D01*
G75*
G02*
X173650000Y-62460000I0J-250000D01*
G01*
G37*
G36*
G01*
X176450000Y-62460000D02*
X176450000Y-63710000D01*
G75*
G02*
X176200000Y-63960000I-250000J0D01*
G01*
X175450000Y-63960000D01*
G75*
G02*
X175200000Y-63710000I0J250000D01*
G01*
X175200000Y-62460000D01*
G75*
G02*
X175450000Y-62210000I250000J0D01*
G01*
X176200000Y-62210000D01*
G75*
G02*
X176450000Y-62460000I0J-250000D01*
G01*
G37*
G36*
G01*
X225650000Y-62460000D02*
X225650000Y-63710000D01*
G75*
G02*
X225400000Y-63960000I-250000J0D01*
G01*
X224650000Y-63960000D01*
G75*
G02*
X224400000Y-63710000I0J250000D01*
G01*
X224400000Y-62460000D01*
G75*
G02*
X224650000Y-62210000I250000J0D01*
G01*
X225400000Y-62210000D01*
G75*
G02*
X225650000Y-62460000I0J-250000D01*
G01*
G37*
G36*
G01*
X228450000Y-62460000D02*
X228450000Y-63710000D01*
G75*
G02*
X228200000Y-63960000I-250000J0D01*
G01*
X227450000Y-63960000D01*
G75*
G02*
X227200000Y-63710000I0J250000D01*
G01*
X227200000Y-62460000D01*
G75*
G02*
X227450000Y-62210000I250000J0D01*
G01*
X228200000Y-62210000D01*
G75*
G02*
X228450000Y-62460000I0J-250000D01*
G01*
G37*
D15*
X163815000Y-120750000D03*
X153655000Y-120750000D03*
D16*
X158735000Y-120750000D03*
D17*
X154925000Y-118210000D03*
X161275000Y-115670000D03*
D15*
X230490000Y-101700000D03*
X220330000Y-101700000D03*
D16*
X225410000Y-101700000D03*
D17*
X221600000Y-99160000D03*
X227950000Y-96620000D03*
D19*
X8135000Y-56310000D03*
X10675000Y-56310000D03*
X13215000Y-56310000D03*
X15755000Y-56310000D03*
X18295000Y-56310000D03*
X20835000Y-56310000D03*
X23375000Y-56310000D03*
X25915000Y-56310000D03*
X28455000Y-56310000D03*
X30995000Y-56310000D03*
X33535000Y-56310000D03*
X36075000Y-56310000D03*
X36075000Y-71550000D03*
X33535000Y-71550000D03*
X30995000Y-71550000D03*
X28455000Y-71550000D03*
X25915000Y-71550000D03*
X23375000Y-71550000D03*
X20835000Y-71550000D03*
X18295000Y-71550000D03*
X15755000Y-71550000D03*
X13215000Y-71550000D03*
X10675000Y-71550000D03*
D20*
X8135000Y-71550000D03*
D15*
X87615000Y-120750000D03*
X77455000Y-120750000D03*
D16*
X82535000Y-120750000D03*
D17*
X78725000Y-118210000D03*
X85075000Y-115670000D03*
D15*
X268590000Y-101700000D03*
X258430000Y-101700000D03*
D16*
X263510000Y-101700000D03*
D17*
X259700000Y-99160000D03*
X266050000Y-96620000D03*
D15*
X259065000Y-120750000D03*
X248905000Y-120750000D03*
D16*
X253985000Y-120750000D03*
D17*
X250175000Y-118210000D03*
X256525000Y-115670000D03*
D15*
X249540000Y-101700000D03*
X239380000Y-101700000D03*
D16*
X244460000Y-101700000D03*
D17*
X240650000Y-99160000D03*
X247000000Y-96620000D03*
D15*
X106665000Y-120750000D03*
X96505000Y-120750000D03*
D16*
X101585000Y-120750000D03*
D17*
X97775000Y-118210000D03*
X104125000Y-115670000D03*
D15*
X39990000Y-101700000D03*
X29830000Y-101700000D03*
D16*
X34910000Y-101700000D03*
D17*
X31100000Y-99160000D03*
X37450000Y-96620000D03*
D15*
X30465000Y-120750000D03*
X20305000Y-120750000D03*
D16*
X25385000Y-120750000D03*
D17*
X21575000Y-118210000D03*
X27925000Y-115670000D03*
D16*
X126324999Y-62135001D03*
X117524999Y-62135001D03*
D21*
X124424999Y-69135001D03*
X121924999Y-69135001D03*
X119424999Y-69135001D03*
D16*
X107274999Y-62135001D03*
X98474999Y-62135001D03*
D21*
X105374999Y-69135001D03*
X102874999Y-69135001D03*
X100374999Y-69135001D03*
D16*
X88224999Y-62135001D03*
X79424999Y-62135001D03*
D21*
X86324999Y-69135001D03*
X83824999Y-69135001D03*
X81324999Y-69135001D03*
D16*
X69174999Y-62135001D03*
X60374999Y-62135001D03*
D21*
X67274999Y-69135001D03*
X64774999Y-69135001D03*
X62274999Y-69135001D03*
M02*
